<svg width="19" height="24" viewBox="0 0 19 24" fill="none" xmlns="http://www.w3.org/2000/svg">
<path d="M9.4431 5.55465C10.4501 5.55465 11.7125 4.85188 12.4642 3.91486C13.145 3.06568 13.6414 1.87976 13.6414 0.693839C13.6414 0.532788 13.6272 0.371736 13.5989 0.239967C12.4784 0.28389 11.1309 1.01594 10.3225 1.99689C9.68422 2.74358 9.1027 3.91486 9.1027 5.11542C9.1027 5.29111 9.13106 5.46681 9.14525 5.52537C9.21616 5.54001 9.32963 5.55465 9.4431 5.55465ZM5.89723 23.2703C7.27303 23.2703 7.88292 22.3186 9.59912 22.3186C11.3437 22.3186 11.7266 23.241 13.2585 23.241C14.7619 23.241 15.7689 21.8062 16.7192 20.4006C17.783 18.7901 18.2227 17.2089 18.251 17.1357C18.1518 17.1064 15.2725 15.8912 15.2725 12.4798C15.2725 9.52236 17.5419 8.19003 17.6695 8.08755C16.1661 5.86211 13.8825 5.80355 13.2585 5.80355C11.5706 5.80355 10.1948 6.8577 9.32963 6.8577C8.39352 6.8577 7.15956 5.86211 5.69866 5.86211C2.9187 5.86211 0.0961914 8.23396 0.0961914 12.7141C0.0961914 15.4959 1.14577 18.4387 2.43646 20.3421C3.54278 21.9526 4.50725 23.2703 5.89723 23.2703Z" fill="#FFF"/>
</svg>
