<svg width="26" height="24" viewBox="0 0 26 24" fill="none" xmlns="http://www.w3.org/2000/svg">
<path fill-rule="evenodd" clip-rule="evenodd" d="M25.48 12.2728C25.48 11.4219 25.3973 10.6037 25.2436 9.81822H13V14.46H19.9964C19.695 15.96 18.7791 17.2309 17.4023 18.0819V21.0928H21.6036C24.0618 19.0037 25.48 15.9273 25.48 12.2728Z" fill="#4285F4"/>
<path fill-rule="evenodd" clip-rule="evenodd" d="M12.9996 23.9999C16.5096 23.9999 19.4523 22.9254 21.6032 21.0927L17.4019 18.0818C16.2378 18.8018 14.7487 19.2272 12.9996 19.2272C9.61369 19.2272 6.74778 17.1163 5.72551 14.2799H1.38232V17.389C3.52142 21.3108 7.91778 23.9999 12.9996 23.9999Z" fill="#34A853"/>
<path fill-rule="evenodd" clip-rule="evenodd" d="M5.72567 14.28C5.46567 13.56 5.31794 12.7909 5.31794 12C5.31794 11.2091 5.46567 10.44 5.72567 9.71999V6.6109H1.38248C0.502029 8.2309 -0.000244141 10.0636 -0.000244141 12C-0.000244141 13.9364 0.502029 15.7691 1.38248 17.3891L5.72567 14.28Z" fill="#FBBC05"/>
<path fill-rule="evenodd" clip-rule="evenodd" d="M12.9996 4.77274C14.9082 4.77274 16.6219 5.3782 17.9691 6.56729L21.6978 3.12547C19.4464 1.18911 16.5037 1.52588e-05 12.9996 1.52588e-05C7.91778 1.52588e-05 3.52141 2.68911 1.38232 6.61092L5.72551 9.72001C6.74778 6.88365 9.61369 4.77274 12.9996 4.77274Z" fill="#EA4335"/>
</svg>
