<svg width="41" height="50" viewBox="0 0 41 50" fill="none" xmlns="http://www.w3.org/2000/svg">
<path d="M12.5297 32.0042H28.2896M12.5297 38.7584H20.4097M36.1695 2.73596H4.64984C4.05273 2.73596 3.48008 2.97316 3.05786 3.39538C2.63564 3.8176 2.39844 4.39025 2.39844 4.98736V45.5126C2.39844 46.1097 2.63564 46.6824 3.05786 47.1046C3.48008 47.5268 4.05273 47.764 4.64984 47.764H36.1695C36.7666 47.764 37.3392 47.5268 37.7614 47.1046C38.1837 46.6824 38.4209 46.1097 38.4209 45.5126V4.98736C38.4209 4.39025 38.1837 3.8176 37.7614 3.39538C37.3392 2.97316 36.7666 2.73596 36.1695 2.73596V2.73596Z" stroke="#E3E3E3" stroke-width="3.75234" stroke-linecap="round" stroke-linejoin="round"/>
<path d="M27.1647 12.8673L18.1591 21.8729L13.6562 17.3701" stroke="#E3E3E3" stroke-width="3.75234" stroke-linecap="round" stroke-linejoin="round"/>
</svg>
