<svg width="48" height="42" viewBox="0 0 48 42" fill="none" xmlns="http://www.w3.org/2000/svg">
<path d="M27.6969 0C22.3656 0 17.2526 2.17434 13.4828 6.04468C9.71299 9.91503 7.59513 15.1643 7.59513 20.6378H0.894531L9.58298 29.558L9.73932 29.879L18.7628 20.6378H12.0622C12.0622 11.7636 19.0532 4.58619 27.6969 4.58619C36.3407 4.58619 43.3317 11.7636 43.3317 20.6378C43.3317 29.5121 36.3407 36.6895 27.6969 36.6895C23.3862 36.6895 19.4775 34.878 16.6633 31.9657L13.4917 35.2219C15.3531 37.1436 17.5667 38.6678 20.0048 39.7069C22.4429 40.7459 25.0572 41.2791 27.6969 41.2757C33.0283 41.2757 38.1412 39.1013 41.9111 35.231C45.6809 31.3607 47.7987 26.1113 47.7987 20.6378C47.7987 15.1643 45.6809 9.91503 41.9111 6.04468C38.1412 2.17434 33.0283 8.15614e-08 27.6969 0ZM25.4634 11.4655V22.9309L35.0229 28.7554L36.6311 25.9807L28.8137 21.2111V11.4655H25.4634Z" fill="#E3E3E3"/>
</svg>
