<svg width="75" height="75" viewBox="0 0 75 75" fill="none" xmlns="http://www.w3.org/2000/svg">
<path opacity="0.95" d="M8.20711 74.2929C7.81658 74.6834 7.18342 74.6834 6.79289 74.2929L0.707107 68.2071C0.316583 67.8166 0.316583 67.1834 0.707107 66.7929L29.2929 38.2071C29.6834 37.8166 29.6834 37.1834 29.2929 36.7929L0.707107 8.20711C0.316583 7.81658 0.316582 7.18342 0.707107 6.79289L6.79289 0.707107C7.18342 0.316583 7.81658 0.316583 8.20711 0.707107L36.7929 29.2929C37.1834 29.6834 37.8166 29.6834 38.2071 29.2929L66.7929 0.707107C67.1834 0.316583 67.8166 0.316583 68.2071 0.707107L74.2929 6.79289C74.6834 7.18342 74.6834 7.81658 74.2929 8.20711L45.7071 36.7929C45.3166 37.1834 45.3166 37.8166 45.7071 38.2071L74.2929 66.7929C74.6834 67.1834 74.6834 67.8166 74.2929 68.2071L68.2071 74.2929C67.8166 74.6834 67.1834 74.6834 66.7929 74.2929L38.2071 45.7071C37.8166 45.3166 37.1834 45.3166 36.7929 45.7071L8.20711 74.2929Z" fill="#F04625"/>
</svg>
