<svg width="37" height="64" viewBox="0 0 37 64" fill="none" xmlns="http://www.w3.org/2000/svg">
<path d="M16.4954 17.8003C16.4893 17.8003 16.4772 17.7157 16.8776 17.4504C16.8837 17.456 16.8898 17.4673 16.8898 17.4786C16.9505 17.6084 16.9929 17.7157 17.0354 17.8173C16.5985 17.868 16.5075 17.8285 16.4954 17.8003ZM16.2891 16.8747C16.3558 16.8352 16.4711 16.79 16.6349 16.7223C16.641 16.7505 16.6471 16.7787 16.6531 16.8013C16.4832 16.8352 16.3679 16.8577 16.2891 16.8747ZM13.4372 24.2234C13.4372 24.2234 12.1326 23.422 11.5562 23.0043C10.7067 22.3947 9.17154 20.3064 9.17154 20.3064C9.59021 20.8426 13.868 22.7729 13.868 22.7729L13.4372 24.2234ZM35.5179 56.6834C35.3116 56.5479 34.6017 56.3447 34.3651 56.1923C33.2425 55.4529 32.1018 54.3636 31.4404 53.4154C30.2207 51.6713 29.0861 50.5199 27.5995 49.8651C26.6347 49.4418 25.9672 49.7466 25.8762 48.5895C25.8762 48.3638 25.2451 47.6526 25.0631 47.4889C24.6262 47.0487 24.8265 43.4646 24.8143 42.8832C24.784 41.8955 24.426 42.5728 24.4745 41.5794C24.5473 40.0273 24.8143 37.4874 24.0923 36.1045C23.6129 35.1845 24.7597 35.732 24.7537 34.7668C24.7415 33.8694 24.2682 32.9438 24.6202 32.0689C25.2876 30.3079 24.6626 28.2929 25.3604 26.4868C26.3191 24.0315 26.3313 22.6092 25.0935 20.2781C24.6141 19.3525 24.4381 19.234 24.7415 18.3083C25.2391 16.8182 23.7343 17.9527 23.1942 17.3318C22.818 16.7505 23.6554 16.4852 23.534 14.3009C23.4673 13.0027 23.2792 11.3264 21.2889 10.8579C19.2198 10.3669 16.6774 11.2474 16.2769 13.4373C16.2466 13.6123 16.2284 14.5436 16.2284 14.5436C16.2284 14.5436 15.4821 15.0572 15.3971 15.204C15.1665 15.6217 15.9857 15.3677 16.5075 15.3733C16.4711 15.7966 16.5136 16.203 16.6046 16.6037C16.0221 16.8352 16.0039 16.886 16.0282 16.948C16.0403 16.9763 16.0464 16.9988 16.1434 16.9988C16.2284 16.9988 16.3922 16.9819 16.6835 16.9198C16.726 17.0553 16.7806 17.1964 16.8352 17.3318C16.459 17.5746 16.3194 17.7326 16.374 17.8511C16.4044 17.9076 16.4893 17.9584 16.7199 17.9584C16.8109 17.9584 16.9323 17.9471 17.0718 17.9301C17.2235 18.3647 17.0354 18.2349 16.6349 18.7711C16.1434 19.4371 15.385 19.9677 15.385 19.9677C15.385 19.9677 14.3049 19.5613 13.6132 19.234C13.2552 19.059 12.0052 18.5115 11.1072 18.1051C10.6157 17.885 10.1849 17.8737 10.1485 17.6028C9.99676 17.0496 10.379 16.0619 10.5065 15.4241C10.6157 14.8766 10.47 14.6396 10.47 14.6396C10.47 14.6396 15.2636 8.56073 16.3133 4.49124C16.6653 3.13663 16.9687 2.03036 16.8716 1.03134C16.817 0.50078 16.4408 0.585444 16.0039 0.602375C15.8279 0.613665 15.6034 0.687039 15.5367 0.895875C15.1544 2.10374 14.7296 3.14228 14.5233 3.66154C13.1035 7.25691 11.1982 10.8297 9.32323 14.2275C9.18974 14.4702 7.7274 14.363 7.33299 14.5436C6.46529 14.8992 6.77475 14.8202 6.21651 15.6555C5.99807 15.9772 5.03329 17.1287 5.15465 17.5068C5.23353 17.8173 4.79665 18.1841 4.82092 18.5792C4.88767 19.7532 3.53455 21.6723 5.65828 22.2085C6.1255 22.327 6.8233 22.3213 7.21163 22.6092C7.97011 23.168 7.43007 23.168 7.80628 23.738C8.49194 24.7992 9.75405 26.0183 10.4033 26.6787C11.1496 27.4407 12.1872 28.2478 12.6666 28.4002C12.9518 28.4905 13.0307 28.3437 12.7273 27.8188C13.3523 27.9994 14.4323 27.3221 14.4323 27.3221C14.4323 27.3221 14.1896 29.9241 13.9772 31.1828C13.8498 31.9278 13.2188 32.4471 13.0792 33.1582C13.0367 33.3614 13.6314 34.7725 13.7649 34.6878C13.4069 34.9418 12.6787 34.6935 12.2297 34.9644C11.6715 35.2974 11.2771 35.8449 11.1314 36.4488C10.9312 37.2672 9.63269 38.2719 9.09265 38.921C7.52716 40.7949 6.11943 42.2793 5.26994 44.5991C4.86339 43.8202 2.88529 40.9134 2.40593 43.2445C2.19963 44.2209 2.27244 44.966 2.08434 45.886C2.02973 46.2303 1.80522 46.6423 1.66566 46.9527C1.55037 47.1954 2.02973 49.4983 2.18143 49.7127C2.79427 50.6102 2.73966 50.2094 3.04305 51.2593C3.38892 52.4333 3.75298 53.5847 4.31122 54.6853C4.49933 55.0578 5.04543 55.7069 4.85126 56.1641C4.49933 56.9769 4.58428 57.451 4.58428 57.451C4.12919 57.784 3.14621 58.4613 2.28458 58.9354C-0.300306 59.9062 0.858644 61.8817 4.00783 61.8817C5.33062 61.8817 5.92526 61.4809 6.63519 60.6682C7.26624 59.957 8.75892 60.386 9.63876 60.2166C11.902 59.7764 10.4276 58.1057 10.4458 56.6043C9.22615 55.2271 10.0696 53.8105 10.1242 52.2131C10.1545 51.2028 10.015 48.5895 10.015 48.5895C10.015 48.5895 12.3753 47.0317 13.4918 46.1625C14.4809 45.3949 15.3668 44.9208 16.1981 44.0064C16.9323 45.3949 19.3958 48.7137 19.3958 48.7137C19.3958 48.7137 18.6555 49.075 18.4917 49.1653C18.1822 49.3402 17.8364 49.3515 18.3643 50.232C18.7951 50.9545 19.9783 51.7672 20.1725 52.4897C20.2149 52.6477 22.3326 54.2451 22.7877 54.3805C23.1214 54.4765 23.4916 54.4257 23.8071 54.5386C24.426 54.7643 25.0935 55.4811 25.6335 55.8424C26.4769 56.4068 29.8749 57.863 30.0326 58.8282C30.1783 59.7651 31.0642 60.0247 30.8275 61.227C30.688 61.9494 30.2814 63.3774 31.4889 63.4338C32.4234 63.4846 33.7158 62.8299 34.2012 62.1244C35.5119 60.1997 34.632 59.8949 35.3905 59.3023C36.0276 58.7999 36.0762 59.116 36.7133 57.6767C36.8893 57.2817 35.7 56.8019 35.5179 56.6834Z" fill="#F1F1F1"/>
</svg>
