<svg width="64" height="63" viewBox="0 0 64 63" fill="none" xmlns="http://www.w3.org/2000/svg">
<path d="M58.4224 9.05034H5.45809C4.67798 9.05125 3.93008 9.36155 3.37846 9.91317C2.82683 10.4648 2.51653 11.2127 2.51562 11.9928V51.2256C2.51653 52.0058 2.82683 52.7537 3.37846 53.3053C3.93008 53.8569 4.67798 54.1672 5.45809 54.1681H58.4224C59.2025 54.1672 59.9504 53.8569 60.502 53.3053C61.0537 52.7537 61.364 52.0058 61.3649 51.2256V11.9928C61.364 11.2127 61.0537 10.4648 60.502 9.91317C59.9504 9.36155 59.2025 9.05125 58.4224 9.05034ZM57.4416 12.9736V20.8202H6.43891V12.9736H57.4416ZM6.43891 50.2448V28.6668H57.4416V50.2448H6.43891Z" fill="#E1E1E1"/>
<path d="M11.3428 38.475H19.1893V42.3982H11.3428V38.475Z" fill="#E1E1E1"/>
<path d="M23.1133 38.475H30.9598V42.3982H23.1133V38.475Z" fill="#E1E1E1"/>
</svg>
