<svg width="53" height="50" viewBox="0 0 53 50" fill="none" xmlns="http://www.w3.org/2000/svg">
<path d="M8.63044 21.079L8.63011 21.0789L8.63044 21.079ZM8.63044 21.079L8.63045 21.079L8.63044 21.079ZM26.7797 11.1169C26.7267 11.1187 26.6738 11.122 26.6209 11.1271C23.6627 11.4101 21.0538 12.2371 18.9666 13.7706C16.8461 15.3286 15.4396 17.4884 14.7114 20.1027C14.4449 21.0593 14.7643 22.0831 15.5273 22.7185C16.7651 23.7492 18.4126 24.3909 20.2167 24.8064C22.0528 25.2292 24.2564 25.4632 26.7857 25.54C26.8235 25.5411 26.8614 25.5414 26.8992 25.5408C29.4899 25.503 31.938 25.1346 33.8293 24.109C35.9101 22.9806 37.2441 21.0747 37.291 18.5181C37.2926 18.4289 37.2895 18.3397 37.2817 18.2509C37.0447 15.5553 35.4828 13.6329 33.4393 12.5026C31.4853 11.4217 29.0926 11.0422 26.7797 11.1169ZM16.5118 11.768C19.118 9.61799 22.7223 8.30943 27.5476 8.04928C35.9393 8.07606 41.633 13.3134 41.633 18.5668C41.633 21.1682 40.3301 23.3358 37.8813 24.9557C35.3801 26.6103 31.7393 27.6244 27.5068 27.6282C19.4467 27.4701 14.2335 25.1531 11.187 21.1988C12.1629 16.9222 13.9834 13.8538 16.5118 11.768Z" stroke="black" stroke-width="5.04587" stroke-linejoin="round"/>
<path d="M14.5898 38.7937C13.4063 37.7286 12.3983 36.4701 11.6246 35.0195C15.5671 38.1961 20.6966 39.8461 25.8052 39.8461C31.9166 39.8461 36.5113 37.6523 39.3727 33.9986L43.0118 36.1518C40.3095 40.1321 34.4342 43.1902 27.1816 43.1902C22.1989 43.1902 17.7114 41.6033 14.5898 38.7937Z" stroke="#00C44E" stroke-width="4.32503" stroke-linejoin="round"/>
</svg>
