<svg width="42" height="33" viewBox="0 0 42 33" fill="none" xmlns="http://www.w3.org/2000/svg">
<path d="M37.6716 0.892517H4.65101C2.38084 0.892517 0.544075 2.6866 0.544075 4.87937L0.523438 28.8005C0.523438 30.9933 2.38084 32.7874 4.65101 32.7874H37.6716C39.9417 32.7874 41.7991 30.9933 41.7991 28.8005V4.87937C41.7991 2.6866 39.9417 0.892517 37.6716 0.892517ZM36.8461 9.36459L22.2551 18.1755C21.5947 18.5742 20.7279 18.5742 20.0675 18.1755L5.47652 9.36459C5.26958 9.25238 5.08836 9.10078 4.94384 8.91897C4.79931 8.73715 4.69448 8.5289 4.63568 8.30682C4.57689 8.08474 4.56537 7.85344 4.6018 7.62693C4.63823 7.40042 4.72187 7.18341 4.84765 6.98902C4.97343 6.79464 5.13873 6.62693 5.33356 6.49604C5.52838 6.36515 5.74868 6.2738 5.98111 6.22753C6.21354 6.18125 6.45328 6.18102 6.68581 6.22683C6.91834 6.27264 7.13883 6.36355 7.33393 6.49405L21.1613 14.8465L34.9887 6.49405C35.1838 6.36355 35.4042 6.27264 35.6368 6.22683C35.8693 6.18102 36.109 6.18125 36.3415 6.22753C36.5739 6.2738 36.7942 6.36515 36.989 6.49604C37.1838 6.62693 37.3492 6.79464 37.4749 6.98902C37.6007 7.18341 37.6843 7.40042 37.7208 7.62693C37.7572 7.85344 37.7457 8.08474 37.6869 8.30682C37.6281 8.5289 37.5233 8.73715 37.3787 8.91897C37.2342 9.10078 37.053 9.25238 36.8461 9.36459Z" fill="#E3E3E3"/>
</svg>
