<svg width="46" height="33" viewBox="0 0 46 33" fill="none" xmlns="http://www.w3.org/2000/svg">
<path d="M27.5398 16.6267C25.0938 16.6267 23.0723 14.6052 23.0723 12.1593C23.0723 11.3685 23.3024 10.6336 23.6709 9.98585C23.4699 9.97021 23.2778 9.92554 23.0723 9.92554C21.2986 9.93724 19.601 10.647 18.3468 11.9012C17.0926 13.1554 16.3828 14.8531 16.3711 16.6267C16.3711 20.2945 19.4045 23.3279 23.0723 23.3279C26.7378 23.3279 29.7735 20.2945 29.7735 16.6267C29.7735 16.4212 29.7288 16.2291 29.7132 16.0281C29.0654 16.3967 28.3305 16.6267 27.5398 16.6267Z" fill="#E3E3E3"/>
<path d="M23.0712 0.990601C6.02115 0.990601 0.896965 15.7712 0.850057 15.9209L0.613281 16.6267L0.847823 17.3326C0.896966 17.4822 6.02115 32.2628 23.0712 32.2628C40.1213 32.2628 45.2455 17.4822 45.2924 17.3326L45.5292 16.6267L45.2946 15.9209C45.2455 15.7712 40.1213 0.990601 23.0712 0.990601ZM23.0712 27.7954C11.1185 27.7954 6.488 19.2045 5.36666 16.6267C6.49246 14.0401 11.1252 5.45806 23.0712 5.45806C35.0239 5.45806 39.6545 14.049 40.7758 16.6267C39.65 19.2134 35.0172 27.7954 23.0712 27.7954Z" fill="#E3E3E3"/>
</svg>
