<svg width="50" height="53" viewBox="0 0 50 53" fill="none" xmlns="http://www.w3.org/2000/svg">
<path d="M46.8993 0.34375H3.45019C2.73807 0.34375 2.05512 0.648011 1.55157 1.1896C1.04803 1.73119 0.765137 2.46574 0.765137 3.23166V49.9633C0.765137 50.7292 1.04803 51.4638 1.55157 52.0054C2.05512 52.5469 2.73807 52.8512 3.45019 52.8512H26.8346V32.5046H20.4881V24.6284H26.8346V18.7214C26.7031 17.3345 26.8553 15.9335 27.2806 14.6167C27.7058 13.2998 28.3938 12.099 29.2962 11.0984C30.1986 10.0977 31.2937 9.32158 32.5045 8.82433C33.7153 8.32707 35.0127 8.12076 36.3055 8.21987C38.2054 8.20729 40.1043 8.31248 41.9929 8.53491V15.6234H38.1118C35.0362 15.6234 34.4504 17.1986 34.4504 19.4827V24.5497H41.7732L40.8213 32.4258H34.4504V52.8512H46.8993C47.2519 52.8512 47.601 52.7765 47.9268 52.6314C48.2525 52.4862 48.5485 52.2735 48.7979 52.0054C49.0472 51.7372 49.245 51.4188 49.3799 51.0684C49.5149 50.7181 49.5843 50.3425 49.5843 49.9633V3.23166C49.5843 2.85241 49.5149 2.47688 49.3799 2.1265C49.245 1.77613 49.0472 1.45777 48.7979 1.1896C48.5485 0.921432 48.2525 0.70871 47.9268 0.563579C47.601 0.418448 47.2519 0.34375 46.8993 0.34375Z" fill="#E8E8E8"/>
</svg>
