<svg width="58" height="51" viewBox="0 0 58 51" fill="none" xmlns="http://www.w3.org/2000/svg">
<path d="M39.436 33.63C39.1798 33.0952 38.7509 32.6406 38.1909 32.3305L28.5812 26.9239C28.5515 27.1057 28.5038 27.2876 28.4383 27.464L26.5318 32.5283L33.8656 36.6514L39.5611 48.6731C40.0794 49.7641 41.2829 50.4218 42.5459 50.4218C42.957 50.4218 43.38 50.3523 43.791 50.2026C45.4353 49.5983 46.2098 47.9298 45.5247 46.4752L39.436 33.63Z" fill="#FFF"/>
<path d="M37.3509 5.30303C37.3509 5.98219 37.202 6.63461 36.9041 7.2603C36.6122 7.89133 36.1892 8.44749 35.647 8.92344C35.0989 9.40474 34.4734 9.77908 33.7585 10.0358C33.0495 10.2978 32.3048 10.4262 31.5363 10.4262C30.7618 10.4262 30.023 10.2978 29.3081 10.0358C28.5992 9.77908 27.9677 9.40474 27.4255 8.92344C26.8774 8.44749 26.4604 7.89133 26.1625 7.2603C25.8706 6.63461 25.7216 5.98219 25.7216 5.30303C25.7216 4.61852 25.8706 3.9661 26.1625 3.34041C26.4604 2.70938 26.8774 2.15322 27.4255 1.67727C27.9677 1.19598 28.5992 0.821635 29.3081 0.564945C30.023 0.302906 30.7618 0.174561 31.5363 0.174561C32.3048 0.174561 33.0495 0.302906 33.7585 0.564945C34.4734 0.821635 35.0989 1.19598 35.647 1.67727C36.1892 2.15322 36.6122 2.70938 36.9041 3.34041C37.202 3.9661 37.3509 4.61852 37.3509 5.30303Z" fill="#FFF"/>
<path d="M28.14 26.3945C28.5511 24.8597 28.8311 23.5067 28.9979 22.2339C28.9681 22.2072 28.9384 22.1911 28.9145 22.1644L22.1288 15.9931C21.6343 15.5439 21.3722 14.9503 21.3781 14.3246C21.3901 13.6989 21.676 13.1107 22.1884 12.6722C22.6888 12.2497 23.3442 12.0144 24.0412 12.0144C24.768 12.0144 25.4472 12.2658 25.9536 12.7257L28.6643 15.191C28.563 14.7043 28.4558 14.207 28.3247 13.6829C27.4668 10.2336 24.4284 8.85925 22.1765 9.12129C21.8131 9.15873 21.4794 9.26568 21.1696 9.41542C21.1041 9.43681 21.0386 9.46355 20.9671 9.49028L12.7575 13.0786C12.3226 13.2658 11.977 13.5866 11.7804 13.977L8.34289 20.9023C7.88416 21.8275 8.35481 22.9024 9.40335 23.3035C9.67144 23.4104 9.95741 23.4586 10.2315 23.4586C11.0298 23.4586 11.7864 23.0521 12.126 22.3676L15.2656 16.0519L19.0547 14.3942C19.3466 17.6295 19.9781 22.25 18.8879 26.0469C18.4053 28.4587 18.8998 29.2127 20.2224 29.5496L18.0181 35.4054L4.73258 30.8598C3.07041 30.2876 1.19972 31.0149 0.550339 32.4802C-0.0930831 33.9508 0.735024 35.5979 2.3972 36.1701L18.8462 41.8013C19.2274 41.9296 19.6206 41.9938 20.0198 41.9938C20.4905 41.9938 20.9552 41.9029 21.3901 41.721C22.1943 41.3895 22.802 40.7798 23.082 40.0419L27.8719 27.2982C27.9494 27.1057 27.997 26.9078 28.0209 26.71C28.0626 26.6084 28.0983 26.5068 28.14 26.3945Z" fill="#FFF"/>
<path d="M57.6652 45.0898C57.7426 45.6352 57.6949 46.1699 57.5282 46.6993C57.3614 47.2286 57.0873 47.7099 56.7061 48.143C56.3248 48.5761 55.8602 48.9237 55.3181 49.1964C54.776 49.4637 54.1982 49.6348 53.5787 49.699C52.9591 49.7685 52.3515 49.7258 51.7558 49.5814C51.1542 49.4317 50.6121 49.191 50.1177 48.8542C49.6292 48.5173 49.2301 48.1056 48.9263 47.6297C48.6165 47.1538 48.4259 46.6404 48.3544 46.095C48.277 45.5496 48.3246 45.0149 48.4914 44.4855C48.6582 43.9562 48.9322 43.4749 49.3135 43.0418C49.6947 42.614 50.1594 42.2611 50.7015 41.9884C51.2435 41.721 51.8214 41.5499 52.4409 41.4858C53.0545 41.4216 53.668 41.459 54.2637 41.6034C54.8654 41.7531 55.4075 41.9938 55.9019 42.336C56.3904 42.6728 56.7895 43.0792 57.0933 43.5551C57.4031 44.0364 57.5937 44.5443 57.6652 45.0898Z" fill="#FFF"/>
<path d="M25.5255 13.0893C24.7331 12.3674 23.4225 12.3513 22.6063 13.0519C21.7841 13.7524 21.7662 14.9075 22.5586 15.6295L29.3443 21.8008C29.7375 22.159 30.2737 22.3516 30.8278 22.3516C31.0005 22.3516 31.1793 22.3355 31.358 22.2927L41.9387 19.8114C43.0409 19.5494 43.6962 18.5493 43.4043 17.576C43.1124 16.6081 41.9804 16.0252 40.8723 16.2872L31.4652 18.4959L25.5255 13.0893Z" fill="#FFF"/>
</svg>
