<svg width="42" height="42" viewBox="0 0 42 42" fill="none" xmlns="http://www.w3.org/2000/svg">
<path d="M19.0075 33.2045H23.0725V29.1394H19.0075V33.2045ZM21.04 0.684204C9.82051 0.684204 0.714844 9.78987 0.714844 21.0094C0.714844 32.2288 9.82051 41.3345 21.04 41.3345C32.2595 41.3345 41.3652 32.2288 41.3652 21.0094C41.3652 9.78987 32.2595 0.684204 21.04 0.684204ZM21.04 37.2695C12.0766 37.2695 4.77987 29.9728 4.77987 21.0094C4.77987 12.046 12.0766 4.74924 21.04 4.74924C30.0034 4.74924 37.3001 12.046 37.3001 21.0094C37.3001 29.9728 30.0034 37.2695 21.04 37.2695ZM21.04 8.81427C16.5481 8.81427 12.9099 12.4525 12.9099 16.9443H16.975C16.975 14.7086 18.8042 12.8793 21.04 12.8793C23.2758 12.8793 25.105 14.7086 25.105 16.9443C25.105 21.0094 19.0075 20.5012 19.0075 27.1069H23.0725C23.0725 22.5337 29.1701 22.0256 29.1701 16.9443C29.1701 12.4525 25.5319 8.81427 21.04 8.81427Z" fill="#E3E3E3"/>
</svg>
