<svg width="56" height="59" viewBox="0 0 56 59" fill="none" xmlns="http://www.w3.org/2000/svg">
<path d="M16.3345 0.143555H39.299C48.0474 0.143555 55.1555 7.78864 55.1555 17.198V41.8975C55.1555 46.4206 53.4849 50.7584 50.5113 53.9568C47.5376 57.1551 43.5044 58.9519 39.299 58.9519H16.3345C7.5861 58.9519 0.478027 51.3068 0.478027 41.8975V17.198C0.478027 12.6749 2.14862 8.337 5.12228 5.13868C8.09594 1.94035 12.1291 0.143555 16.3345 0.143555ZM15.7877 6.02439C13.1775 6.02439 10.6741 7.13964 8.82841 9.12481C6.98269 11.11 5.94578 13.8024 5.94578 16.6099V42.4856C5.94578 48.337 10.3473 53.0711 15.7877 53.0711H39.8458C42.4561 53.0711 44.9594 51.9558 46.8051 49.9706C48.6508 47.9855 49.6878 45.293 49.6878 42.4856V16.6099C49.6878 10.7585 45.2862 6.02439 39.8458 6.02439H15.7877ZM42.1696 10.435C43.0759 10.435 43.9452 10.8223 44.586 11.5115C45.2269 12.2008 45.5869 13.1357 45.5869 14.1105C45.5869 15.0853 45.2269 16.0202 44.586 16.7095C43.9452 17.3988 43.0759 17.7861 42.1696 17.7861C41.2633 17.7861 40.3941 17.3988 39.7532 16.7095C39.1123 16.0202 38.7523 15.0853 38.7523 14.1105C38.7523 13.1357 39.1123 12.2008 39.7532 11.5115C40.3941 10.8223 41.2633 10.435 42.1696 10.435ZM27.8168 14.8456C31.4421 14.8456 34.919 16.3946 37.4825 19.1518C40.046 21.909 41.4861 25.6485 41.4861 29.5477C41.4861 33.447 40.046 37.1865 37.4825 39.9437C34.919 42.7008 31.4421 44.2498 27.8168 44.2498C24.1914 44.2498 20.7146 42.7008 18.1511 39.9437C15.5876 37.1865 14.1474 33.447 14.1474 29.5477C14.1474 25.6485 15.5876 21.909 18.1511 19.1518C20.7146 16.3946 24.1914 14.8456 27.8168 14.8456ZM27.8168 20.7265C25.6416 20.7265 23.5554 21.6558 22.0173 23.3102C20.4792 24.9645 19.6151 27.2082 19.6151 29.5477C19.6151 31.8873 20.4792 34.131 22.0173 35.7853C23.5554 37.4396 25.6416 38.369 27.8168 38.369C29.992 38.369 32.0781 37.4396 33.6162 35.7853C35.1543 34.131 36.0184 31.8873 36.0184 29.5477C36.0184 27.2082 35.1543 24.9645 33.6162 23.3102C32.0781 21.6558 29.992 20.7265 27.8168 20.7265Z" fill="#E8E8E8"/>
</svg>
