<svg width="50" height="53" viewBox="0 0 50 53" fill="none" xmlns="http://www.w3.org/2000/svg">
<path d="M44.1028 0.34375C45.5415 0.34375 46.9212 0.958418 47.9384 2.05254C48.9557 3.14665 49.5272 4.6306 49.5272 6.17791V47.017C49.5272 48.5644 48.9557 50.0483 47.9384 51.1424C46.9212 52.2365 45.5415 52.8512 44.1028 52.8512H6.13236C4.69373 52.8512 3.31403 52.2365 2.29676 51.1424C1.2795 50.0483 0.708008 48.5644 0.708008 47.017V6.17791C0.708008 4.6306 1.2795 3.14665 2.29676 2.05254C3.31403 0.958418 4.69373 0.34375 6.13236 0.34375H44.1028ZM42.7467 45.5585V30.098C42.7467 27.5758 41.8152 25.157 40.1571 23.3736C38.4989 21.5902 36.25 20.5883 33.905 20.5883C31.5997 20.5883 28.9146 22.1052 27.6128 24.3805V21.1425H20.0458V45.5585H27.6128V31.1773C27.6128 28.9311 29.2943 27.0934 31.3827 27.0934C32.3898 27.0934 33.3556 27.5236 34.0676 28.2895C34.7797 29.0554 35.1798 30.0942 35.1798 31.1773V45.5585H42.7467ZM11.2313 16.5627C12.4397 16.5627 13.5987 16.0464 14.4532 15.1273C15.3077 14.2083 15.7877 12.9618 15.7877 11.662C15.7877 8.94914 13.7536 6.73216 11.2313 6.73216C10.0156 6.73216 8.84976 7.25155 7.99017 8.17608C7.13059 9.10061 6.64767 10.3545 6.64767 11.662C6.64767 14.3749 8.70893 16.5627 11.2313 16.5627ZM15.0012 45.5585V21.1425H7.48845V45.5585H15.0012Z" fill="#E8E8E8"/>
</svg>
