<svg width="941" height="1143" viewBox="0 0 941 1143" fill="none" xmlns="http://www.w3.org/2000/svg">
<path d="M937.218 148.66C876.422 115.784 819.66 77.9081 754.942 51.0921C694.482 26.0942 630.211 8.82292 564.484 -0.418727C458.637 -15.3165 328.192 -7.89286 239.435 52.9607C113.976 118.713 21.4653 226.128 6.44837 358.541C-3.46954 445.857 18.2714 533.325 28.0772 619.883C32.9521 662.557 33.0642 705.028 29.9824 747.802C28.3014 770.881 25.1075 793.808 19.7283 816.382C15.0215 836.128 3.9829 855.015 1.74157 875.014C1.68554 875.216 1.74157 875.418 1.74157 875.569C1.29331 875.822 0.845035 876.024 0.340739 876.327C0.00454617 876.529 -0.107528 876.882 0.116606 877.236C4.87943 885.114 13.8448 885.417 23.3144 887.134C38.7236 889.911 54.4689 891.275 70.1022 892.386C85.0071 893.497 100.977 892.487 115.713 894.709C122.493 895.769 130.618 896.83 137.342 895.214C137.79 895.062 138.071 894.911 138.463 894.759C140.312 896.072 143.842 895.567 144.234 893.194C149.333 861.53 149.389 830.118 158.747 798.858C167.712 769.164 193.32 725.127 235.401 746.438C265.603 761.791 248.736 812.14 242.685 834.916C231.478 877.589 189.901 905.314 163.23 940.008C162.445 941.069 162.445 942.129 162.893 942.988C162.109 943.24 161.324 943.543 160.54 943.796C156.954 945.008 158.299 949.704 162.109 948.997C223.634 937.685 279.163 904.254 341.247 934.1C366.294 946.119 386.803 965.461 408.151 981.974C432.414 1000.71 455.668 1020.41 480.154 1038.84C526.83 1074.04 577.932 1097.07 636.151 1112.72C668.09 1121.26 700.645 1128.33 733.145 1134.84C757.519 1139.69 791.419 1147.42 815.85 1139.79C817.811 1139.13 818.988 1137.87 819.436 1136.46C820.949 1136.15 822.35 1134.99 822.406 1133.38C823.75 1110.2 814.393 1083.63 809.742 1061.06C802.682 1026.92 795.734 992.782 789.57 958.492C783.294 923.696 778.251 888.75 773.32 853.753C769.062 823.2 767.045 789.617 754.325 760.831C753.429 758.761 750.795 757.953 748.778 758.508C736.338 751.286 714.822 749.165 702.214 745.782C687.197 741.792 667.081 733.46 649.711 732.5C663.047 716.895 675.598 701.19 691.848 687.655C702.943 678.464 715.774 671.697 730.287 668.061C743.062 664.829 754.101 670.182 766.092 669.93C765.98 695.483 773.601 722.249 777.971 747.145C783.406 777.597 786.656 809.009 794.781 838.956C795.342 841.077 797.023 841.885 798.704 841.784C801.281 847.592 807.277 852.793 811.255 857.439C818.315 865.62 825.544 873.6 832.155 882.084C833.108 883.397 834.509 884.003 835.91 884.053C836.022 884.356 836.078 884.609 836.19 884.912C837.479 888.245 842.97 887.689 843.082 884.053C843.586 866.024 838.207 847.44 835.349 829.664C831.931 808.302 828.625 786.94 825.319 765.528C821.733 742.348 818.371 719.168 815.177 695.938C812.376 675.737 811.423 654.779 806.604 634.832C813.833 634.175 818.427 626.347 821.621 620.944C825.936 613.773 826.496 605.491 825.039 597.612C822.686 584.836 808.677 574.079 794.277 571.857C794.165 567.665 792.484 563.171 791.643 559.333C787.945 542.617 782.118 526.204 775.618 510.145C768.67 492.975 759.536 476.663 748.554 461.311C744.239 455.352 739.308 448.837 733.425 443.332C733.369 442.625 733.145 441.918 732.752 441.211C736.675 438.282 739.869 434.343 743.399 430.96C751.972 422.728 760.713 414.648 769.398 406.568C783.799 393.134 801.897 379.348 813.328 363.137C814.505 362.48 815.289 361.42 815.345 360.107C816.186 358.794 816.97 357.43 817.755 356.067C818.82 354.097 816.522 351.421 814.169 352.835C813.496 353.239 812.88 353.693 812.264 354.148C807.781 349.35 799.768 345.967 794.613 342.785C790.13 339.957 784.415 335.664 778.476 333.089C778.363 332.786 778.251 332.483 778.083 332.18C784.695 329.352 790.018 319.151 793.268 315.111C808.061 296.678 824.591 279.609 841.289 262.539C857.931 245.571 874.685 228.704 891.215 211.685C906.624 195.777 924.498 179.314 935.929 160.578C940.804 158.76 943.157 151.841 937.218 148.66ZM236.353 734.722C235.849 734.52 235.288 734.318 234.784 734.116C248.961 727.652 262.409 719.42 276.193 712.451C295.356 702.604 314.8 693.211 334.467 684.12C375.708 664.981 418.125 647.911 461.271 632.559C511.925 614.53 563.924 598.774 617.044 587.866C569.415 600.39 522.627 616.803 478.249 633.771C437.513 649.376 397.897 667.455 359.57 687.403C340.631 697.301 321.804 707.603 303.257 718.057C287.287 727.097 267.62 736.338 255.292 749.317C255.18 749.418 255.18 749.519 255.124 749.569C250.81 743.408 244.758 738.257 236.353 734.722ZM735.274 423.687C731.912 426.869 727.821 429.899 724.852 433.535C650.832 367.935 548.066 329.655 443.62 334.755C392.798 337.23 334.355 352.33 289.809 381.065C297.429 374.651 305.442 368.591 313.735 362.985C354.695 335.058 403.781 320.716 454.827 318.999C507.835 317.282 561.346 326.928 611.384 342.028C635.086 349.199 657.612 358.541 679.409 369.5C691.512 375.611 703.279 382.226 714.542 389.498C725.804 396.77 734.601 407.174 746.649 413.133C742.838 416.668 739.028 420.152 735.274 423.687ZM769.454 325.716C639.569 241.379 454.715 196.838 306.619 269.306C296.589 274.205 287.119 279.76 278.042 285.82C305.778 262.287 337.661 242.945 373.243 230.219C507.947 182.142 670.611 236.43 780.325 310.212C775.674 315.06 770.631 320.716 769.454 325.716ZM882.529 203.908C864.431 222.391 845.884 240.571 827.729 259.004C814.393 272.589 800.553 286.073 788.786 300.819C677.84 221.482 507.386 172.092 370.497 221.23C305.274 244.662 252.435 292.183 214.052 343.947C177.294 393.538 144.234 459.796 144.458 520.447C144.458 521.71 146.027 522.215 146.98 521.71C143.394 554.384 141.096 593.976 157.402 624.075C157.514 624.277 157.906 624.176 157.85 623.974C153.088 554.586 156.618 487.824 182.897 421.667C207.44 360.056 252.883 307.839 317.601 276.881C462.055 207.746 645.34 259.206 768.726 340.967C770.239 341.977 771.695 342.28 773.04 342.179C776.458 344.755 780.437 346.977 783.518 349.098C788.393 352.38 793.324 355.511 798.255 358.693C799.6 359.602 800.889 360.511 802.178 361.268C787.497 372.783 774.721 387.175 761.497 399.397C758.864 401.821 756.23 404.295 753.597 406.719C743.399 386.569 712.244 371.621 691.96 360.864C669.267 348.845 645.172 339.452 620.406 331.624C566.165 314.606 506.826 305.667 449.392 308.343C399.858 310.667 352.006 326.675 312.895 354.148C273.615 381.772 233.383 422.98 219.543 467.068C219.151 468.482 221.392 469.34 222.177 468.078C230.638 454.948 238.09 441.615 246.663 428.738C293.899 374.045 373.747 348.744 450.064 346.017C550.756 342.482 651.392 384.347 720.761 448.534C725.804 455.099 731.52 461.311 736.114 467.825C747.377 483.783 755.782 501.105 762.954 518.831C768.558 532.567 772.424 546.758 777.075 560.797C778.251 564.433 778.7 570.039 780.605 574.332C780.044 575.998 780.717 578.018 782.454 578.978C794.277 585.593 807.221 587.31 811.255 601.046C812.824 606.4 810.639 612.157 808.229 616.954C806.1 621.146 802.066 624.075 800.945 628.165C799.32 628.519 797.863 629.68 797.807 631.498C796.854 652.81 801.505 674.778 804.363 695.938C806.996 715.734 809.854 735.48 812.824 755.276C816.074 776.688 819.436 798.101 822.91 819.463C825.375 834.411 827 849.965 830.418 865.065C827.729 861.934 824.983 858.803 822.238 855.722C817.195 850.016 811.087 840.875 803.298 837.087C803.298 836.986 803.354 836.936 803.298 836.835C798.928 808.302 793.156 779.82 788.001 751.388C782.734 722.35 780.941 690.433 770.463 662.557C769.902 661.092 768.109 660.89 767.045 661.648C751.748 646.497 716.895 657.001 700.757 665.536C672.629 680.383 651.952 706.543 636.823 731.894C634.974 734.975 637.664 738.56 640.858 739.217C654.754 748.256 677.503 750.731 693.193 754.973C704.231 757.953 715.27 760.932 726.252 763.962C733.145 765.881 739.925 768.81 746.929 768.962C749.562 799.313 757.351 829.866 761.666 859.964C766.26 891.679 771.247 923.343 777.019 954.906C783.238 989.146 790.859 1023.13 797.695 1057.27C800.833 1072.62 803.69 1088.03 807.277 1103.28C809.35 1111.91 810.022 1121.66 813.44 1130.14C813.272 1130.14 813.104 1130.19 812.88 1130.19C799.04 1133.58 778.307 1128.38 764.691 1126.36C748.554 1123.98 732.64 1120.75 716.783 1117.37C684.788 1110.5 652.849 1103.13 621.526 1094.09C555.015 1074.85 504.024 1039.95 452.418 998.741C414.819 968.693 376.156 930.666 328.024 914.657C276.081 897.385 221.84 921.828 173.204 939.352C192.871 915.061 217.974 894.305 235.12 868.347C244.31 854.409 252.155 837.794 257.141 822.24C263.361 802.999 268.124 775.729 258.71 755.781C259.271 755.731 259.887 755.63 260.503 755.377C277.594 748.61 293.171 735.985 308.916 726.794C327.351 716.138 346.347 706.088 365.118 695.938C401.147 676.444 438.745 659.274 477.072 643.72C517.192 627.408 558.657 613.773 600.626 601.854C640.634 590.441 681.65 583.22 722.05 573.321C722.218 573.321 722.33 573.221 722.442 573.17C727.429 571.756 727.093 564.282 721.266 564.635C630.435 570.291 542.911 593.623 458.413 623.267C416.388 637.963 375.316 654.83 335.028 673.111C315.248 682.05 295.804 691.494 276.529 701.291C258.766 710.33 239.267 719.067 223.465 730.884C189.901 724.875 165.415 752.499 153.816 779.365C140.872 809.464 132.019 850.47 135.997 884.205C118.739 878.751 94.2526 881.478 76.6581 880.518C59.9602 879.609 43.2623 878.195 26.7324 876.074C21.8015 875.418 16.9826 874.206 12.3319 873.903C22.642 861.732 26.8445 846.228 31.3832 831.583C36.8745 813.857 40.0684 795.626 42.6459 777.345C48.6415 735.581 49.594 692.756 46.7924 650.739C41.189 565.494 19.224 481.713 19.7843 395.962C20.2886 323.797 43.2623 254.762 86.9122 194.313C125.855 140.327 181.384 99.674 237.418 60.7378C338.222 3.21735 457.797 -5.31731 573.954 13.0145C638.224 23.1652 700.645 42.204 759.424 67.5554C818.371 92.9574 870.818 128.055 926.628 158.305C910.658 172.092 897.098 189.01 882.529 203.908Z" fill="#3c3c3c"/>
<path d="M783.574 1082.32C780.941 1069.44 778.531 1056.46 776.122 1043.54C770.35 1012.23 766.26 980.712 762.169 949.25C754.941 894.508 751.915 835.775 733.873 782.85C733.312 781.133 731.351 780.527 729.726 780.78C711.235 772.043 690.671 766.134 671.283 759.317C650.215 751.843 628.474 743.005 606.173 739.116C616.987 731.44 625.224 714.775 632.732 705.382C648.03 686.343 665.736 669.173 681.65 650.639C681.706 650.588 681.706 650.538 681.706 650.487C682.21 650.235 682.602 650.083 682.714 650.235C682.882 650.336 683.106 650.184 682.994 650.033C679.856 643.771 647.917 672.96 646.236 674.526C623.207 695.686 598.328 717.704 580.397 742.702C579.613 743.813 580.005 744.924 580.79 745.682C579.501 745.934 578.492 747.449 579.781 748.409C600.513 763.508 629.09 771.437 653.241 781.234C666.913 786.789 680.305 792.95 693.977 798.505C698.684 800.424 703.334 803.303 708.265 805.071C708.433 826.079 714.429 847.794 717.511 868.601C720.705 890.72 723.618 912.89 727.205 934.959C731.463 961.017 735.778 987.025 740.204 1013.08C742.222 1024.8 744.071 1036.57 745.976 1048.28C747.208 1056.11 747.545 1065.1 750.458 1072.83C697.843 1064.7 646.797 1044.19 599.393 1022.98C551.316 1001.42 506.321 974.753 465.249 943.645C433.702 919.808 404.901 892.79 367.751 875.772C331.497 859.157 293.787 862.237 259.158 880.468C257.421 881.377 257.701 883.195 258.878 884.104C257.757 885.013 256.637 885.973 255.572 886.932C254.059 888.346 255.908 890.164 257.701 889.457C281.011 880.418 298.718 874.711 324.269 880.923C347.859 886.629 369.04 901.325 387.643 914.859C424.849 941.776 459.757 971.218 497.132 997.984C536.355 1026.01 577.82 1050.96 623.151 1070.3C670.947 1090.75 724.235 1107.72 777.41 1109.49C780.941 1109.59 782.79 1107.42 783.07 1105C784.134 1105 785.199 1104.44 785.479 1103.28C787.16 1096.11 784.975 1089.54 783.574 1082.32ZM601.802 1049.44C552.997 1026.16 509.571 994.853 467.322 963.088C432.245 936.676 399.185 907.032 359.178 886.528C348.868 881.226 336.764 876.58 324.213 873.802C386.41 881.68 438.577 940.968 487.662 974.551C527.39 1001.77 571.04 1024.24 616.315 1043.13C659.74 1061.21 706.192 1078.53 753.989 1083.23C758.079 1083.63 760.04 1079.59 759.144 1076.61C762.73 1060.66 755.165 1039.44 752.476 1023.64C747.769 995.812 743.51 967.986 739.476 940.11C736.002 916.273 732.696 892.437 729.39 868.601C726.532 847.946 725.524 824.766 717.287 805.121C718.183 804.061 718.463 802.545 717.623 801.384C714.149 796.889 708.321 795.273 702.942 792.95C690.167 787.294 677.223 781.891 664.279 776.588C638.84 766.185 611.608 752.146 584.208 746.237C584.488 746.136 584.712 746.035 584.88 745.833C588.858 742.197 605.052 725.481 623.207 707.048C619.228 711.997 615.25 716.947 611.328 721.946C606.901 727.653 601.074 732.905 600.121 739.975C600.065 740.379 600.233 740.682 600.569 740.934C600.121 742.045 600.457 743.308 601.97 744.065C620.797 753.257 641.866 759.216 661.758 766.336C683.387 774.063 705.015 784.012 727.485 789.567C727.597 789.567 727.709 789.567 727.877 789.617C733.985 845.017 746.088 900.265 753.316 955.614C756.734 981.52 760.32 1007.38 764.579 1033.18C766.82 1046.82 769.51 1060.4 772.087 1073.99C773.6 1081.97 774.104 1091.26 777.691 1098.99C777.579 1098.99 777.523 1098.99 777.41 1098.93C717.231 1096.81 654.585 1074.64 601.802 1049.44Z" fill="#3c3c3c"/>
<path d="M858.051 138.862C842.306 154.517 830.203 173.202 814.737 189.211C799.945 204.513 782.91 219.057 773.441 237.743C772.6 239.409 774.898 241.379 776.467 239.864C806.669 210.068 844.043 179.465 863.038 142.296C864.439 139.569 860.629 136.286 858.051 138.862Z" fill="#3c3c3c"/>
<path d="M837.248 125.076C809.344 156.538 777.741 187.849 754.991 222.947C753.703 224.967 756.672 226.987 758.522 225.421C776.844 209.564 792.03 190.677 807.046 172.294C818.085 158.861 834.783 142.751 840.274 126.641C840.779 125.177 838.369 123.763 837.248 125.076Z" fill="#3c3c3c"/>
<path d="M801.566 115.834C793.217 134.974 774.838 151.942 762.174 168.911C749.007 186.586 735.895 204.514 724.296 222.997C723.119 224.916 725.921 226.835 727.658 225.32C746.429 208.907 759.765 188.101 773.941 168.456C785.092 153.003 804.199 135.328 806.665 116.44C807.057 113.612 802.574 113.562 801.566 115.834Z" fill="#3c3c3c"/>
<path d="M766.544 96.8983C766.376 97.4033 766.208 97.9083 766.04 98.4133C765.872 98.4133 765.872 98.6153 766.04 98.6658C765.984 98.6658 754.945 114.574 754.217 115.584C747.044 125.431 741.105 136.087 734.493 146.187C722.39 164.721 709.614 183.356 702.274 203.91C701.489 206.182 704.907 207.091 706.252 205.425C721.605 186.537 734.157 165.63 747.156 145.329C756.346 130.986 772.091 113.816 772.708 96.8983C772.876 93.3127 766.264 93.3632 766.544 96.8983Z" fill="#3c3c3c"/>
<path d="M746.534 77.3538C746.254 75.2328 742.724 74.3742 742.108 76.7983C739.642 86.3934 732.974 94.7766 727.259 102.958C720.199 112.957 714.091 123.562 707.647 133.915C695.6 153.459 682.544 172.699 672.682 193.253C671.057 196.586 675.596 198.96 678.062 196.081C694.535 176.689 707.087 154.721 719.862 133.309C728.772 118.31 749 95.2311 746.534 77.3538Z" fill="#3c3c3c"/>
<path d="M702.441 65.4341C696.726 86.3919 682.829 107.602 672.911 127.197C663.162 146.437 652.291 166.739 647.36 187.495C646.744 190.171 650.666 191.787 652.347 189.363C666.131 169.466 675.377 146.437 685.407 124.823C693.7 107.097 706.139 85.5839 706.419 65.9391C706.475 63.8686 702.945 63.4141 702.441 65.4341Z" fill="#3c3c3c"/>
<path d="M660.581 49.2759C660.301 47.9124 657.779 47.9124 657.499 49.2759C653.129 70.6378 648.31 90.2321 640.297 110.836C630.883 135.127 618.892 159.014 613.121 184.265C612.56 186.689 616.315 188.355 617.715 186.032C631.78 163.206 640.801 137.854 649.879 113.21C657.443 92.6562 665.064 71.0418 660.581 49.2759Z" fill="#3c3c3c"/>
<path d="M613.796 44.3234C613.46 42.6063 610.378 42.6063 610.042 44.3234C605.559 65.7357 605.335 87.1986 599.284 108.611C594.072 127.195 588.133 147.8 587.18 166.939C587.068 169.565 591.439 170.727 592.784 168.303C603.318 148.557 606.008 126.64 611.555 105.581C616.934 85.0776 618.167 65.0287 613.796 44.3234Z" fill="#3c3c3c"/>
<path d="M577.045 32.5591C576.204 29.0746 570.209 30.3876 570.545 33.4177C569.256 58.2136 568.135 82.5045 563.877 107.048C560.291 127.955 556.312 149.115 554.799 170.224C554.631 172.648 558.722 173.659 559.955 171.487C570.993 151.236 572.562 125.481 576.092 103.462C579.734 80.5349 582.48 55.3855 577.045 32.5591Z" fill="#3c3c3c"/>
<path d="M524.424 31.7496C523.752 26.6995 517.42 29.679 518.148 32.4061C516.019 52.8589 517.7 73.9178 517.588 94.4716C517.532 114.571 515.234 136.286 518.877 156.133C519.269 158.355 523.191 158.254 523.752 156.133C533.277 116.086 529.635 72.1502 524.424 31.7496Z" fill="#3c3c3c"/>
<path d="M480.551 34.0744C481.504 31.7008 475.956 29.1253 475.172 32.7109C471.081 51.6487 474.668 71.2935 476.965 90.2818C480.103 115.785 481.504 141.439 484.754 166.942C485.034 168.912 488.34 169.669 488.844 167.447C499.042 123.612 483.521 78.0101 480.551 34.0744Z" fill="#3c3c3c"/>
<path d="M444.74 94.876C441.883 83.2608 439.529 71.5446 436.728 59.8789C435.383 54.2733 434.038 48.6677 432.693 43.0621C432.413 41.6481 432.077 40.9411 431.741 40.5876C431.853 40.4866 431.965 40.3856 432.021 40.234L432.525 39.224C432.973 38.517 432.917 37.4565 432.189 36.8505C431.348 36.194 430.732 35.891 429.611 35.689C427.65 35.285 426.025 36.4465 425.913 38.2645C424.344 55.8893 429.051 74.2716 432.805 91.5429C437.96 115.076 442.555 138.206 445.749 162.042C446.141 164.87 451.072 166.082 451.688 162.8C456.283 140.226 450.12 116.945 444.74 94.876Z" fill="#3c3c3c"/>
<path d="M389.159 39.8317C389.159 39.4782 389.047 39.1247 388.767 38.7712C388.599 38.3672 388.431 37.9127 388.319 37.5087C388.263 37.5592 388.263 37.5592 388.263 37.5592C387.478 34.7311 382.603 35.0341 382.267 38.2662C381.539 46.4978 385.853 54.7295 388.487 62.5571C392.241 73.9703 394.987 85.737 398.349 97.2512C404.512 118.26 408.603 139.571 418.241 159.62C418.913 161.084 421.827 160.377 421.603 158.812C416.56 117.704 404.456 78.6164 389.159 39.8317Z" fill="#3c3c3c"/>
<path d="M356.945 49.0734C356.216 46.4979 352.238 47.2554 352.07 49.6289C350.837 67.5567 360.699 85.4845 366.582 102.301C372.746 119.926 377.117 138.712 386.586 155.176C387.819 157.347 391.91 156.388 391.741 153.913C389.78 116.694 366.414 84.424 356.945 49.0734Z" fill="#3c3c3c"/>
<path d="M313.403 63.0615C311.722 60.7385 307.631 62.2535 308.416 64.9806C312.954 81.1914 320.575 96.6951 327.299 112.3C334.583 129.117 337.273 147.196 346.855 163.255C348.031 165.225 351.898 164.417 351.673 162.043C348.536 128.157 333.575 91.7965 313.403 63.0615Z" fill="#3c3c3c"/>
<path d="M325.446 162.802C321.019 148.005 313.903 136.188 305.498 122.856C300.847 115.533 297.429 107.655 292.386 100.535C287.511 93.717 279.835 87.8589 275.744 80.7887C274.288 78.3142 269.525 79.3747 269.749 82.2533C270.757 94.8785 284.654 107.302 290.481 118.917C298.326 134.572 308.468 150.884 318.722 165.378C320.907 168.509 326.567 166.539 325.446 162.802Z" fill="#3c3c3c"/>
<path d="M305.105 187.343C298.269 170.173 285.157 156.033 272.941 141.741C261.735 128.661 250.808 115.682 236.464 105.279C234.671 103.966 231.365 105.683 232.99 107.653C255.067 135.125 275.575 164.062 299.669 190.222C301.743 192.444 306.169 190.07 305.105 187.343Z" fill="#3c3c3c"/>
<path d="M274.85 200.222C261.29 170.629 227.334 147.449 198.533 130.127C195.227 128.158 191.977 132.45 194.442 134.874C205.929 146.237 219.209 155.933 231.536 166.538C245.04 178.053 256.303 190.981 268.406 203.606C270.872 206.182 276.363 203.454 274.85 200.222Z" fill="#3c3c3c"/>
<path d="M265.939 232.694C249.073 199.313 201.893 176.133 169.45 156.337C166.144 154.317 163.454 158.458 165.527 160.831C178.191 175.376 197.298 186.082 213.436 197.343C230.414 209.262 245.319 223.301 262.241 235.219C264.37 236.734 267.06 234.916 265.939 232.694Z" fill="#3c3c3c"/>
<path d="M242.798 247.793C211.756 222.088 172.14 209.009 139.417 185.93C136.615 183.708 131.74 186.637 134.037 189.717C144.011 203.1 159.757 208.655 174.493 216.937C195.842 228.906 216.799 241.38 238.54 252.742C241.958 254.56 245.768 250.268 242.798 247.793Z" fill="#3c3c3c"/>
<path d="M218.588 269.611C203.571 257.39 182.502 251.43 164.684 243.3C146.921 235.22 128.15 227.846 111.788 217.645C107.978 215.12 104.224 220.372 107.026 223.2C119.185 235.624 137.115 241.28 152.749 249.41C171.464 259.157 194.662 270.015 216.066 273.449C218.42 273.802 220.605 271.277 218.588 269.611Z" fill="#3c3c3c"/>
<path d="M216.908 289.76C211.696 283.649 205.981 283.346 197.688 280.165C184.8 275.215 171.296 271.781 157.736 268.751C132.858 263.146 108.371 255.52 83.5482 250.218C83.5482 250.218 83.5482 250.218 83.5482 250.268C80.1862 249.359 77.1044 253.803 80.8026 256.076C98.229 266.731 120.306 271.882 140.59 276.124C165.301 281.326 189.675 287.588 214.33 292.739C216.067 293.093 218.196 291.275 216.908 289.76Z" fill="#3c3c3c"/>
<path d="M184.973 307.586C164.129 301.981 142.444 298.749 121.039 295.062C105.518 292.386 88.5956 286.174 72.8502 290.012C70.3848 290.618 70.0486 294.406 72.8502 294.759C110.224 299.456 145.75 312.99 184.132 313.142C187.719 313.142 188.335 308.495 184.973 307.586Z" fill="#3c3c3c"/>
<path d="M161.491 336.625C129.216 331.474 97.1089 326.828 64.4975 323.949C61.5838 323.697 60.407 327.787 62.9846 328.898C77.0489 334.807 93.1305 336.019 108.372 338.292C125.854 340.867 142.832 342.635 160.539 342.736C164.405 342.786 165.413 337.282 161.491 336.625Z" fill="#3c3c3c"/>
<path d="M137.516 368.895C121.042 364.653 103.224 365.915 86.2456 366.168C77.0561 366.269 58.285 363.188 51.617 370.41C49.5998 372.632 52.0653 375.813 55.035 374.399C58.285 372.884 67.2503 374.5 70.8364 374.652C77.7846 374.904 84.7327 375.005 91.6808 375.106C106.978 375.308 122.723 376.116 137.516 372.278C139.365 371.824 139.365 369.4 137.516 368.895Z" fill="#3c3c3c"/>
<path d="M127.483 395.457C118.574 386.467 95.3759 391.214 83.3847 391.164C77.2771 391.113 63.1007 390.558 62.3722 398.285C62.2041 400.204 65.342 400.86 66.3506 399.244C68.3118 395.962 84.2813 398.689 88.0355 398.891C100.419 399.598 114.371 400.153 126.642 398.335C128.155 398.083 128.323 396.315 127.483 395.457Z" fill="#3c3c3c"/>
<path d="M118.581 418.689C114.49 413.538 107.15 413.134 100.65 413.79C97.1758 414.093 93.6457 414.396 90.2277 415.002C88.0424 415.406 85.8571 415.962 83.6718 416.315C80.7581 416.871 79.5814 418.386 76.5556 419.042C74.4263 419.547 74.2022 422.729 76.5556 423.133C83.0554 424.143 90.1717 421.416 96.8396 421.365C101.49 421.315 105.917 420.204 110.624 421.062C113.538 421.567 115.331 421.971 117.964 420.86C118.805 420.507 119.141 419.345 118.581 418.689Z" fill="#3c3c3c"/>
<path d="M111.625 446.717C109.944 440.505 103.164 439.899 97.0561 440.354C90.22 440.859 85.0649 440.96 80.6943 446.161C79.2935 447.777 81.9271 449.999 83.7762 448.888C87.8106 446.414 91.3967 447.272 95.9914 447.171C98.4569 447.07 106.582 446.01 108.207 448.03C109.383 449.494 112.129 448.636 111.625 446.717Z" fill="#3c3c3c"/>
<path d="M105.516 469.089C101.37 468.836 97.5596 469.392 93.4691 469.644C90.7235 469.846 90.7235 473.381 93.4691 473.533C97.5596 473.836 101.37 474.341 105.516 474.139C109.158 473.937 109.158 469.24 105.516 469.089Z" fill="#3c3c3c"/>
<path d="M103.777 490.5C103.385 490.449 102.993 490.449 102.544 490.449C99.1824 490.348 99.1824 495.247 102.544 495.095C102.993 495.095 103.385 495.095 103.777 495.095C107.083 494.994 107.083 490.601 103.777 490.5Z" fill="#3c3c3c"/>
<path d="M365.289 379.397C348.255 372.529 331.445 371.266 313.234 374.902C303.036 376.922 283.985 380.205 281.688 391.264C281.351 393.082 283.761 394.749 285.386 393.183C291.661 387.022 307.015 385.255 315.812 383.285C331.333 379.801 347.246 382.427 362.712 384.901C366.186 385.457 368.987 380.912 365.289 379.397Z" fill="#3c3c3c"/>
<path d="M381.32 360.311C371.851 357.584 359.299 356.827 349.605 358.443C341.032 359.907 330.666 358.847 324.166 364.452C322.429 365.967 324.615 367.937 326.52 367.23C330.106 365.816 336.214 367.381 340.024 367.533C347.476 367.886 355.041 366.977 362.549 367.28C377.062 367.886 399.475 374.552 410.346 383.946C412.195 385.511 415.837 384.501 415.613 381.976C414.548 367.785 393.76 363.846 381.32 360.311Z" fill="#3c3c3c"/>
<path d="M462.339 375.711C444.801 350.158 397.284 337.129 367.811 352.431C365.906 353.441 366.578 356.723 369.044 356.471C384.957 354.602 401.151 355.764 416.672 359.45C432.249 363.187 444.352 372.631 458.137 379.499C460.77 380.812 464.02 378.135 462.339 375.711Z" fill="#3c3c3c"/>
<path d="M496.965 382.933C493.547 369.854 480.267 357.531 468.556 349.805C453.091 339.604 439.475 336.624 420.928 340.765C418.631 341.27 418.519 344.603 420.928 345.058C427.652 346.169 434.488 346.472 441.212 347.785C450.122 349.451 458.246 355.41 464.97 360.561C475.056 368.238 481.724 379.095 492.595 385.963C494.892 387.377 497.582 385.054 496.965 382.933Z" fill="#3c3c3c"/>
<path d="M507.053 359.096C497.023 346.875 485.144 342.33 468.726 342.128C466.261 342.128 464.916 345.612 467.382 346.572C473.825 349.097 481.558 349.955 486.993 354.197C492.877 358.742 497.584 363.136 501.786 369.095C508.734 378.842 511.312 390.911 519.605 399.8C521.118 401.416 523.527 399.951 523.695 398.285C525.208 384.649 515.794 369.701 507.053 359.096Z" fill="#3c3c3c"/>
<path d="M547.397 360.661C539.216 352.278 517.979 335.461 504.307 340.612C502.794 341.168 501.73 342.683 502.738 344.097C502.85 344.4 503.019 344.652 503.187 344.955C503.691 346.571 506.268 346.571 506.773 344.955C505.428 349.046 517.587 352.076 520.333 353.49C527.001 356.924 533.613 363.338 538.88 368.337C550.423 379.296 555.522 393.537 561.349 407.273C562.806 410.859 567.905 410.051 568.409 406.415C570.819 389.194 559.5 373.135 547.397 360.661Z" fill="#3c3c3c"/>
<path d="M547.733 350.208C545.94 350.461 545.1 352.683 546.052 353.945C546.276 354.349 546.557 354.753 546.893 355.157C547.677 356.218 549.302 356.218 550.087 355.157C552.328 352.077 572.052 378.034 574.125 381.62C580.064 392.124 582.362 404.396 589.422 414.294C590.655 416.061 594.465 416.162 594.857 413.688C598.275 393.033 576.815 345.966 547.733 350.208Z" fill="#3c3c3c"/>
<path d="M609.366 386.367C604.547 377.328 601.465 365.46 588.354 364.299C585.496 364.046 583.759 367.884 586 369.5C603.651 382.277 603.875 408.739 611.047 426.667C612.168 429.394 616.146 428.738 616.538 425.96C618.331 412.577 615.978 398.589 609.366 386.367Z" fill="#3c3c3c"/>
<path d="M644.832 408.285C641.358 399.447 640.798 389.802 632.953 382.631C628.358 378.49 614.574 366.925 611.661 378.237C611.212 379.954 613.846 381.772 615.247 380.106C616.872 378.237 630.376 399.851 630.544 400.255C635.251 412.578 636.315 426.011 641.526 438.131C642.647 440.757 646.569 440.959 647.634 438.131C651.276 428.182 648.699 417.931 644.832 408.285Z" fill="#3c3c3c"/>
<path d="M674.534 420.91C672.069 414.042 667.698 406.921 662.879 401.265C658.116 395.66 653.802 395.357 647.694 391.367C645.341 389.802 643.044 392.68 644.108 394.599C647.358 400.71 648.479 398.033 654.81 405.507C658.565 409.952 661.983 418.587 664 423.536C669.323 436.515 669.715 450.655 672.405 464.189C672.909 466.815 677.84 466.866 678.344 464.189C681.034 449.342 679.689 435.202 674.534 420.91Z" fill="#3c3c3c"/>
<path d="M695.94 431.92C693.251 426.466 687.367 412.73 678.346 415.76C676.161 416.518 676.048 419.194 678.346 419.901C684.005 421.618 688.432 438.839 690.113 443.485C694.539 456.009 692.802 469.442 696.164 482.068C696.837 484.542 701.039 484.542 701.712 482.068C706.026 465.655 703.393 447.273 695.94 431.92Z" fill="#3c3c3c"/>
<path d="M723.451 458.433C721.882 450.201 718.632 439.546 707.986 438.283C705.52 438.031 704.904 440.96 706.193 442.323C720.033 456.969 713.421 481.714 714.261 499.288C714.374 501.611 718.24 503.025 719.529 500.551C726.253 487.522 726.085 472.422 723.451 458.433Z" fill="#3c3c3c"/>
<path d="M737.743 462.121C736.23 459.798 732.308 460.858 732.252 463.434C732.027 472.978 733.933 482.321 733.428 491.967C732.98 500.4 725.752 509.743 729.17 517.823C729.954 519.692 732.476 520.045 733.764 518.378C745.7 502.572 748.613 478.988 737.743 462.121Z" fill="#3c3c3c"/>
<path d="M755.442 498.781C755.106 496.912 751.52 496.862 751.239 498.781C750.287 505.144 750.231 511.457 749.951 517.87C749.67 525.849 745.86 532.01 743.899 539.485C743.451 541.252 745.412 542.616 747.205 541.757C762.838 534.434 757.627 511.154 755.442 498.781Z" fill="#3c3c3c"/>
<path d="M762.672 528.125C762.28 526.256 758.918 526.256 758.47 528.125C757.573 532.215 756.957 536.407 756.453 540.548C755.892 545.699 753.595 551.153 754.379 556.304C754.66 558.122 757.069 559.587 758.75 557.92C766.258 550.648 764.633 537.064 762.672 528.125Z" fill="#3c3c3c"/>
<path d="M770.242 555.242C767.833 557.514 765.087 561.807 766.88 564.988C767.273 565.645 768.393 565.594 768.786 564.988C769.57 563.776 769.85 562.312 770.355 560.948C770.803 559.635 771.643 558.423 772.652 557.413C774.109 555.949 771.811 553.827 770.242 555.242Z" fill="#3c3c3c"/>
<path d="M675.381 805.273C661.261 806.283 649.774 813.05 637.783 819.362C618.451 829.614 600.072 840.926 580.461 850.774C542.862 869.661 504.423 888.044 467.946 908.648C466.489 909.456 467.441 911.779 469.178 911.173C505.264 898.396 538.884 880.923 572.336 863.399C590.098 854.107 607.693 845.017 624.839 834.765C639.8 825.776 658.011 811.989 675.997 809.111C678.351 808.707 677.847 805.071 675.381 805.273Z" fill="#3c3c3c"/>
<path d="M661.537 836.33C615.085 865.822 561.63 885.417 516.635 917.03C515.178 918.04 516.971 919.858 518.428 919.151C544.035 907.182 568.634 893.244 593.4 879.962C617.383 867.034 642.318 855.217 664.339 839.663C666.468 838.148 663.666 834.966 661.537 836.33Z" fill="#3c3c3c"/>
<path d="M659.071 871.935C644.222 873.552 629.653 883.803 618.166 891.934C602.925 902.792 586.788 913.043 572.331 924.759C570.762 926.022 572.387 928.698 574.46 927.991C607.072 917.285 627.3 887.288 659.687 875.976C661.928 875.218 661.816 871.632 659.071 871.935Z" fill="#3c3c3c"/>
<path d="M653.575 904.911C646.795 910.264 637.55 912.234 631.162 917.688C624.158 923.647 616.481 929.404 610.149 935.919C608.244 937.838 610.597 940.868 613.231 939.504C621.076 935.464 627.52 929.354 633.907 923.647C640.855 917.537 650.213 914.405 657.273 908.244C659.739 906.123 656.097 902.942 653.575 904.911Z" fill="#3c3c3c"/>
<path d="M653.132 945.261C650.891 947.231 648.482 949.099 645.848 950.715C643.326 952.281 640.805 953.796 639.124 956.119C638.059 957.634 639.796 959.149 641.477 958.897C647.641 957.988 653.468 953.19 657.727 949.352C660.753 946.726 656.158 942.585 653.132 945.261Z" fill="#3c3c3c"/>
<path d="M601.801 627.965C512.876 668.012 418.796 700.282 340.405 757.045C338.556 758.358 340.91 760.883 342.871 759.923C385.512 738.561 425.912 713.867 468.722 692.757C513.044 670.991 560.56 654.478 603.986 631.298C606.396 630.035 604.266 626.803 601.801 627.965Z" fill="#3c3c3c"/>
<path d="M535.294 686.695C476.123 708.663 418.913 740.075 369.436 776.587C367.643 777.9 369.94 780.526 371.845 779.415C425.917 748.205 478.533 714.572 536.695 689.675C538.6 688.917 537.199 685.988 535.294 686.695Z" fill="#3c3c3c"/>
<path d="M484.078 737.247C453.708 749.266 414.484 767.85 393.192 791.485C392.071 792.747 393.528 794.818 395.265 793.858C426.307 777.041 453.428 754.973 486.039 740.277C488.336 739.267 486.319 736.388 484.078 737.247Z" fill="#3c3c3c"/>
<path d="M465.591 770.933C456.289 774.973 447.772 779.871 439.311 785.174C431.578 790.022 422.949 794.769 416.561 801.031C415.273 802.344 416.505 804.566 418.523 804.061C437.07 799.314 451.526 783.457 468.28 775.023C471.25 773.559 468.616 769.62 465.591 770.933Z" fill="#3c3c3c"/>
<path d="M454.604 800.072C446.423 803.758 438.746 809.465 432.919 815.727C431.462 817.293 433.255 819.313 435.272 818.505C443.565 815.07 449.505 808.505 457.461 804.516C460.767 802.95 457.854 798.607 454.604 800.072Z" fill="#3c3c3c"/>
<path d="M122.103 748.912C116.948 744.67 110.953 745.528 104.341 744.569C95.2633 743.205 86.4101 741.589 77.1646 742.7C74.2508 743.054 72.85 747.346 76.4361 747.801C91.341 749.72 105.573 752.093 120.702 751.992C122.383 751.942 123.392 750.023 122.103 748.912Z" fill="#3c3c3c"/>
<path d="M130.783 764.869C121.593 760.627 112.292 760.93 102.206 760.526C88.4214 759.92 74.7492 757.749 60.853 759.365C58.3315 759.668 57.2108 763.253 60.1806 763.708C73.7407 765.879 87.4128 766.637 101.029 768.354C109.546 769.414 122.041 770.778 130.278 768.253C131.903 767.798 132.52 765.627 130.783 764.869Z" fill="#3c3c3c"/>
<path d="M133.035 785.376C122.22 779.013 110.229 780.326 97.7897 779.366C83.3892 778.255 68.036 777.7 53.6355 778.912C51.0579 779.114 49.9933 782.851 52.9631 783.305C78.6263 786.79 105.522 785.78 130.793 790.224C134.043 790.78 135.892 787.043 133.035 785.376Z" fill="#3c3c3c"/>
<path d="M120.424 812.997C103.11 805.472 76.7742 804.361 58.2832 807.846C55.3695 808.401 55.3695 812.492 58.2832 813.047C69.3778 815.168 80.8646 814.865 92.1273 816.481C101.205 817.794 110.562 819.36 119.696 817.996C122.273 817.592 122.665 813.956 120.424 812.997Z" fill="#3c3c3c"/>
<path d="M101.712 838.349C96.0531 836.379 89.2171 837.389 83.2775 836.379C76.2734 835.117 68.877 836.48 62.0409 837.692C59.7435 838.147 59.7435 841.429 62.0409 841.833C69.6614 843.247 77.394 843.298 85.0146 844.863C90.0576 845.924 96.7816 846.227 101.712 844.51C105.075 843.298 105.075 839.51 101.712 838.349Z" fill="#3c3c3c"/>
<path d="M90.1062 866.429C88.089 863.601 84.2227 863.803 80.8046 863.904C76.322 864.055 71.8393 864.51 67.4127 865.116C64.7791 865.469 64.7791 869.509 67.4127 869.863C71.391 870.418 75.3694 870.721 79.4598 870.974C83.102 871.176 87.9209 871.681 90.1062 868.55C90.4984 867.944 90.4984 867.035 90.1062 866.429Z" fill="#3c3c3c"/>
<path d="M276.025 353.694C270.534 348.593 264.034 344.604 258.262 339.806C256.077 337.988 252.939 340.816 255.013 342.735C260.112 347.381 265.827 351.472 271.094 355.966C274.456 358.946 277.482 362.178 281.18 364.855C281.852 365.36 283.421 365.158 283.253 364.097C282.581 359.804 279.219 356.673 276.025 353.694Z" fill="#3c3c3c"/>
<path d="M301.573 343.796C298.939 338.797 293.672 334.858 289.358 330.969C284.147 326.272 279.272 321.222 274.789 315.869C273.164 313.95 269.634 315.667 271.091 317.788C274.509 322.737 278.375 327.283 282.522 331.727C287.228 336.726 292.608 342.988 299.332 345.816C300.845 346.473 302.301 345.16 301.573 343.796Z" fill="#3c3c3c"/>
<path d="M335.022 333.595C332.781 328.999 328.634 323.899 325.496 319.707C322.415 315.516 319.165 311.728 316.251 307.435C313.057 302.638 307.005 293.396 299.441 294.962C296.471 295.568 297.087 299.86 300.113 299.709C305.156 299.406 311.096 313.596 312.889 317.081C314.066 319.404 316.251 321.626 317.82 323.747C319.557 326.02 320.397 328.999 322.358 331.07C325.44 334.251 327.794 337.13 332.781 337.079C334.91 337.079 335.806 335.16 335.022 333.595Z" fill="#3c3c3c"/>
<path d="M345.119 293.243C343.718 288.597 340.748 281.275 334.585 280.669C332.455 280.467 331.559 283.497 333.52 284.305C337.61 286.022 337.666 295.364 339.179 298.798C342.541 306.576 345.511 315.918 350.778 322.736C351.787 324.099 354.476 324.099 354.869 322.281C357.446 311.676 347.977 302.939 345.119 293.243Z" fill="#3c3c3c"/>
<path d="M376.044 289.909C374.643 284.91 370.329 279.809 369.825 274.607C369.6 272.234 368.872 270.416 367.359 268.547C365.678 266.477 362.036 268.244 363.437 270.618C364.726 272.688 364.726 277.284 365.398 279.759C366.799 284.556 368.816 289.253 369.825 294.151C371.225 301.07 371.001 307.837 376.493 313.392C377.725 314.705 380.583 313.746 380.415 311.928C379.686 304.605 378.005 297.08 376.044 289.909Z" fill="#3c3c3c"/>
<path d="M406.412 281.629C404.619 273.195 404.619 266.428 400.08 258.752C398.736 256.429 395.318 258.146 395.71 260.368C397.447 269.963 397.951 279.508 399.184 289.153C399.912 295.213 399.632 302.334 405.908 305.566C407.421 306.374 409.382 305.364 409.382 303.799C409.326 296.324 407.925 289.002 406.412 281.629Z" fill="#3c3c3c"/>
<path d="M439.083 299.91C432.416 287.335 434.097 273.397 432.191 259.812C431.967 258.045 429.39 258.045 429.166 259.812C428.437 264.66 423.226 306.728 438.299 301.728C439.14 301.425 439.476 300.667 439.083 299.91Z" fill="#3c3c3c"/>
<path d="M464.576 283.599C464.408 274.963 463.96 266.075 461.943 257.641C461.438 255.621 457.908 255.621 457.404 257.641C455.163 267.035 454.882 276.933 454.714 286.528C454.602 293.447 452.081 302.133 460.15 305.87C461.775 306.627 464.296 305.718 464.128 303.799C463.512 297.184 464.688 290.315 464.576 283.599Z" fill="#3c3c3c"/>
<path d="M498.812 256.581C498.532 253.854 493.657 252.693 493.097 255.874C491.752 263.853 489.903 271.731 487.661 279.559C485.812 285.872 483.179 293.295 486.093 299.557C486.989 301.577 489.511 301.88 490.967 300.113C495.786 294.406 496.235 285.821 497.467 278.852C498.756 271.378 499.709 264.106 498.812 256.581Z" fill="#3c3c3c"/>
<path d="M523.801 259.206C523.185 256.933 519.431 256.933 518.758 259.206C516.741 266.377 517.526 273.599 514.444 280.669C511.082 288.345 508.896 296.374 511.474 304.455C512.258 306.828 515.733 306.576 516.629 304.455C522.457 290.062 528.116 274.407 523.801 259.206Z" fill="#3c3c3c"/>
<path d="M554.233 264.71C554.009 262.235 550.255 262.235 549.975 264.71C548.63 279.204 532.548 294.354 538.488 309.353C539.216 311.221 542.578 312.181 543.699 310.009C547.397 302.586 548.63 294.152 551.488 286.425C554.065 279.355 554.962 272.033 554.233 264.71Z" fill="#3c3c3c"/>
<path d="M577.764 276.124C577.484 274.205 574.01 273.296 573.674 275.619C571.657 288.699 563.868 300.264 562.299 313.596C561.963 316.02 565.717 316.323 566.95 314.707C575.299 304.152 579.613 288.85 577.764 276.124Z" fill="#3c3c3c"/>
<path d="M608.298 278.246C605.104 278.347 603.984 279.61 601.686 281.529C600.342 282.69 599.725 284.609 599.053 286.074C597.652 289.003 595.299 291.326 593.674 294.154C591.376 298.144 580.618 313.496 585.941 317.788C591.376 322.131 595.355 312.839 597.092 309.658C599.837 304.557 602.303 299.305 605.16 294.255C607.01 290.972 607.458 285.367 610.484 282.943C612.501 281.377 610.876 278.145 608.298 278.246Z" fill="#3c3c3c"/>
<path d="M632.617 290.114C632.057 287.74 628.247 287.993 627.518 290.114C625.053 297.335 621.971 303.951 617.993 310.617C614.631 316.273 610.877 321.677 610.428 328.242C610.26 330.716 614.239 332.282 616.088 330.312C621.467 324.555 624.941 317.283 628.527 310.516C632.001 304.103 634.298 297.234 632.617 290.114Z" fill="#3c3c3c"/>
<path d="M665.744 301.424C665.015 298.495 660.588 298.899 659.636 301.424C657.114 308.04 653.976 313.04 649.774 318.898C646.356 323.746 643.834 329.856 642.882 335.513C642.434 338.442 646.188 341.32 648.934 338.694C654.649 333.089 656.89 325.362 661.429 318.999C665.127 313.747 667.368 307.586 665.744 301.424Z" fill="#3c3c3c"/>
<path d="M701.372 313.596C701.035 311.122 697.617 310.617 696.609 312.99C695.208 316.222 692.574 318.848 690.333 321.576C687.363 325.161 685.066 329.05 681.928 332.534C677.445 337.433 672.402 344.503 676.773 350.614C677.557 351.775 679.743 352.28 680.863 351.068C683.161 348.543 683.777 346.068 685.29 342.988C687.307 338.948 690.781 335.413 693.639 331.827C697.225 327.333 702.156 319.404 701.372 313.596Z" fill="#3c3c3c"/>
<path d="M727.159 323.342C726.823 320.564 722.677 319.857 721.612 322.685C718.586 330.665 712.479 337.735 706.819 344.35C702.617 349.299 697.966 355.057 699.759 361.521C700.263 363.44 703.177 364.147 704.69 362.682C710.069 357.531 713.823 350.461 718.362 344.653C722.957 338.795 728.056 330.715 727.159 323.342Z" fill="#3c3c3c"/>
<path d="M750.119 339.098C749.727 336.876 746.309 337.381 745.692 339.098C744.46 342.279 742.498 344.905 740.257 347.632C737.68 350.612 736.223 354.248 733.309 357.025C728.882 361.116 723.391 368.287 728.322 373.539C729.05 374.347 730.395 374.095 731.18 373.539C733.925 371.519 735.102 369.045 736.895 366.368C738.968 363.287 742.162 360.863 743.451 357.379C745.692 351.319 751.184 345.865 750.119 339.098Z" fill="#3c3c3c"/>
<path d="M769.506 359.098C762.11 364.905 752.136 372.581 749.558 381.52C749.11 383.035 750.959 384.399 752.528 383.591C756.73 381.369 759.868 377.733 762.838 374.298C766.256 370.359 769.73 366.37 773.372 362.532C775.67 360.158 772.196 356.977 769.506 359.098Z" fill="#3c3c3c"/>
</svg>
