<svg width="50" height="50" viewBox="0 0 50 50" fill="none" xmlns="http://www.w3.org/2000/svg">
<path d="M12.8404 4.63513H31.1331C32.2112 4.63513 33.2451 5.06341 34.0075 5.82575C34.7698 6.58809 35.1981 7.62205 35.1981 8.70016V12.7652H31.1331V8.70016H12.8404V41.2204H31.1331V37.1554H35.1981V41.2204C35.1981 42.2985 34.7698 43.3325 34.0075 44.0948C33.2451 44.8572 32.2112 45.2854 31.1331 45.2854H12.8404C11.7623 45.2854 10.7284 44.8572 9.96601 44.0948C9.20367 43.3325 8.77539 42.2985 8.77539 41.2204V8.70016C8.77539 7.62205 9.20367 6.58809 9.96601 5.82575C10.7284 5.06341 11.7623 4.63513 12.8404 4.63513Z" fill="#BF2C2C"/>
<path d="M33.35 32.257L36.2158 35.1229L46.3784 24.9603L36.2158 14.7977L33.35 17.6636L38.5939 22.9278H18.9395V26.9928H38.5939L33.35 32.257Z" fill="#BF2C2C"/>
</svg>
