<svg width="65" height="51" viewBox="0 0 65 51" fill="none" xmlns="http://www.w3.org/2000/svg">
<path d="M24.0853 0.306547C23.7463 0.325175 23.0273 0.821911 23.0273 0.821911L22.4194 1.43041C22.4194 1.43041 21.338 2.29349 21.1919 2.35559C21.0457 2.41768 20.2274 2.75298 19.9936 2.84611C19.7598 2.93925 19.6429 3.24971 19.6429 3.24971C19.6429 3.24971 19.4909 3.42978 19.7247 3.52292C19.9585 3.61606 19.9585 3.88926 20.1339 3.95135C20.3092 4.01345 20.432 4.56607 20.432 4.56607C20.432 4.56607 20.6366 6.3419 20.6366 6.70824C20.6366 7.0808 20.9288 6.90073 20.9288 6.90073L21.1919 7.17393C21.1919 7.17393 21.1627 7.87558 21.1919 7.99976C21.2211 8.12394 21.075 8.85663 21.075 8.85663L21.4783 9.01186L21.6829 9.47755L21.718 9.93082L22.2733 10.3034L22.3317 10.7318L22.7409 11.0733L22.9104 11.5266L23.267 12.0792L23.9099 12.0233L25.0732 11.5266L25.0206 12.2655L24.5471 12.9361C24.5471 12.9361 24.1379 13.7371 23.8456 14.5318C23.5534 15.3328 24.3776 16.0717 24.4945 16.4381C24.6114 16.8106 26.0084 19.2571 26.0084 19.2571C26.0084 19.2571 26.2422 20.5486 26.1838 20.977C26.1253 21.4054 26.8267 23.9823 26.8267 23.9823L26.6572 25.0316L25.8389 26.5032L25.3128 29.1359L23.3196 33.0663L22.5012 33.4327L21.2737 33.8052L20.4028 35.7053L20.052 36.3821L20.695 36.6863L15.785 39.2073L4.50938 45.5841C4.50938 45.5841 3.34032 46.1988 2.81425 46.3851C2.28817 46.5652 2.52198 46.0188 2.46353 45.7704C2.40507 45.5282 2.64473 45.2178 2.64473 44.9135C2.64473 44.6031 2.17126 44.2367 2.17126 44.2367C2.17126 44.2367 1.64519 44.2926 1.17756 44.6031C0.709938 44.9073 0.826845 45.342 0.768391 45.6462L0.598877 46.6273C0.598877 46.6273 1.06066 47.7015 1.17756 47.7946C1.29447 47.8877 2.8727 48.4093 2.8727 48.4093L6.02916 46.9377L12.1609 43.4978L17.3048 40.1883L20.1339 38.5615L20.9288 38.3442C20.9288 38.3442 21.4257 38.7478 21.4841 38.8968C21.5426 39.052 22.1564 38.1889 22.1564 38.1889L23.0916 37.9406L24.3776 37.301L25.2777 35.8294L28.2881 34.1095L29.3402 34.6311L29.4338 34.1716L29.3402 33.5569L29.9832 33.9605L30.3339 33.619L31.1523 33.4327C31.1523 33.4327 31.9998 32.9732 32.1167 32.9422C32.2337 32.9111 32.789 31.4085 32.789 31.4085L32.8182 30.2101L33.1105 30.0921L33.315 29.4153L34.7179 27.9127L35.6532 26.9875L36.9976 25.0316L38.2251 22.9764L38.9791 23.2185L39.4526 23.7091L38.5407 24.9385L37.3424 26.2859L36.3254 27.9127L35.6239 29.3843L35.7934 30.7068L36.9041 32.6069L38.1082 34.5379L38.079 35.3948L39.1545 37.7916L41.1127 42.5478L41.6387 43.771L41.668 44.8452L41.2296 45.6773C41.2296 45.6773 40.762 46.5031 40.7327 46.6583C40.7035 46.8073 40.2359 47.3599 40.1774 47.5152C40.119 47.6704 39.1837 48.3162 38.9791 48.4403C38.7745 48.5645 38.7161 48.9557 38.6576 49.1109C38.5992 49.2662 39.3065 49.8809 39.4234 49.8498C39.5403 49.8188 40.7327 50.1603 40.7327 50.1603L42.6032 50.3714C42.6032 50.3714 44.1522 50.0051 44.0645 49.6946C43.9769 49.3904 44.6491 49.1109 44.6491 49.1109L45.7597 49.2662L46.8411 48.4962C46.8411 48.4962 46.6949 47.1799 46.7242 47.0619C46.7534 46.9377 46.315 45.6152 46.315 45.6152C46.315 45.6152 45.8766 44.7272 45.8181 44.572C45.7597 44.423 44.9413 41.9952 44.9413 41.9952L44.4445 39.7226L44.2107 37.8847C44.2107 37.8847 43.8074 35.7053 43.7489 35.5811C43.6904 35.4569 42.9247 33.2526 42.7786 33.0353C42.6325 32.818 41.9018 32.2405 41.8141 32.1163C41.7264 31.9922 41.4108 31.3774 41.3816 31.1353C41.3523 30.8869 41.5218 30.1853 41.5218 30.1853L42.6617 29.4774V29.9679L43.6846 31.2284C43.6846 31.2284 46.8118 34.3827 46.8118 34.5069C46.8118 34.6311 47.3964 35.4321 47.3964 35.4321L48.2439 36.0406L49.676 36.2579C49.676 36.2579 49.7053 36.469 49.6176 36.6863C49.5299 36.9036 50.2898 37.301 50.2898 37.301L52.1544 38.0958C52.1544 38.0958 56.3981 41.3184 56.4274 41.4426C56.4566 41.5668 57.2983 42.2125 57.4152 42.1815C57.5321 42.1504 58.029 42.6347 58.1459 42.6658C58.2628 42.6968 58.0582 43.1936 57.9121 43.4668C57.7659 43.7462 58.1167 43.9883 58.1751 44.2678C58.2336 44.541 58.7596 45.0004 58.7889 45.2178C58.8181 45.4351 59.1104 45.9815 59.2565 46.2299C59.4026 46.472 59.578 47.242 59.5488 47.5462C59.5195 47.8567 59.0227 48.4652 58.7596 48.7136C58.4966 48.9557 58.5258 49.5394 58.4674 49.7878C58.4089 50.0299 58.8473 50.0299 58.9935 49.9989C59.1396 49.974 60.7178 49.6946 60.7178 49.6946L62.261 48.6515L62.9683 47.4903V46.0746C62.9683 46.0746 62.939 44.2367 62.939 43.8952C62.939 43.5599 63.4067 43.4047 63.7574 43.0942C64.1081 42.79 64.0789 42.6409 64.0789 42.6409C64.0789 42.6409 64.3653 41.4115 64.4237 41.1942C64.4822 40.9831 64.488 40.3373 64.488 39.971C64.488 39.6046 64.0496 39.4805 63.8743 39.3252C63.6989 39.1762 62.8806 39.2942 62.6175 39.2631C62.3545 39.2321 61.3316 39.2631 61.3316 39.2631L60.0456 38.9278L58.8765 37.6674L56.8365 36.1089L56.0708 34.6932C56.0708 34.6932 54.2646 32.8801 54.06 32.7C53.8554 32.5137 53.1832 32.1474 52.8325 32.0542C52.4818 31.9611 51.6868 31.781 51.5407 31.6879C51.3946 31.5948 50.8743 30.3653 50.9036 30.2412C50.9328 30.1232 50.1963 28.13 50.1963 28.13L49.7345 25.9133L48.7992 24.1375L49.0038 23.8022C49.0038 23.8022 49.5591 22.9702 49.6468 22.8211C49.7345 22.6659 50.056 21.747 50.056 21.3496C50.056 20.946 50.1437 20.1512 50.0852 19.8097C50.0268 19.4744 50.0852 17.9407 50.056 17.7296C50.0268 17.5123 49.7053 16.5312 49.5591 16.1897C49.413 15.8544 48.0978 14.5691 47.864 14.2586C47.6302 13.9544 46.3442 13.0292 45.9935 12.8181C45.6428 12.6008 43.217 11.005 43.1001 10.9119C42.9832 10.8249 38.57 8.15499 38.57 8.15499C38.57 8.15499 35.8577 6.49713 35.4193 6.47229C34.9809 6.44125 32.1752 6.06869 32.1752 6.06869L30.8016 6.43504C30.8016 6.43504 29.4864 6.3419 29.3402 6.15562C29.1941 5.97556 29.1941 5.64026 29.2526 5.48503C29.311 5.33601 28.8434 4.53502 28.7849 4.41084C28.7265 4.29286 28.8726 3.79612 28.8726 3.79612L28.4634 3.00134C28.4634 3.00134 27.8789 2.16931 27.8497 2.02029C27.8205 1.86506 27.8848 1.28139 28.0017 1.2193C28.1186 1.15721 27.6451 0.884003 27.6451 0.884003L26.3884 0.790865L25.3654 0.635635C25.3654 0.635635 24.436 0.486613 24.2022 0.331384C24.173 0.312756 24.1321 0.300338 24.0853 0.306547ZM29.6909 18.307L30.5385 18.4623L31.6784 18.8286L32.9059 19.8407L34.8056 19.9649L34.8348 20.4306L34.449 21.4675L32.3798 26.1058L31.9706 26.379L30.8892 28.5274L29.8955 29.6016C29.8955 29.6016 28.3465 31.4085 28.2881 31.5637C28.2296 31.7189 28.2881 32.5448 28.2881 32.5448L25.9792 33.8052L27.7328 31.3464L28.82 29.9679L29.5448 28.0617C29.5448 28.0617 30.1586 26.348 30.2755 26.2859C30.3924 26.2238 30.4216 24.2617 30.4216 24.0816C30.4216 23.8953 30.2755 21.4054 30.2755 21.4054L29.6909 18.307Z" fill="#F1F1F1"/>
</svg>
