<svg width="40" height="55" viewBox="0 0 40 55" fill="none" xmlns="http://www.w3.org/2000/svg">
<path d="M23.2327 8.59629C22.9709 9.60769 21.7341 10.378 20.2523 10.378C18.7704 10.378 17.5337 9.60769 17.2718 8.59629H23.2327ZM38.664 26.6495H27.4053C27.0989 23.2066 24.0126 20.4921 20.2523 20.4921C16.4919 20.4921 13.4001 23.2066 13.0992 26.6495H1.83491V1.16013H10.0743V8.03557C10.0743 8.34475 10.3417 8.59629 10.6759 8.59629H16.0518C16.3025 10.2313 18.0908 11.5047 20.2523 11.5047C22.4138 11.5047 24.1965 10.2313 24.4471 8.59629H29.8342C30.1629 8.59629 30.4303 8.34475 30.4303 8.03557V1.16013H38.664V26.6495ZM17.2718 45.819C17.5337 44.8024 18.7704 44.0373 20.2523 44.0373C21.7341 44.0373 22.9709 44.8024 23.2327 45.819H17.2718ZM30.4303 53.2552V46.3745C30.4303 46.0653 30.1629 45.819 29.8342 45.819H24.4471C24.1965 44.1892 22.4138 42.9158 20.2523 42.9158C18.0908 42.9158 16.3025 44.1892 16.0518 45.819H10.6759C10.3417 45.819 10.0743 46.0653 10.0743 46.3745V53.2552H1.83491V27.7658H13.0992C13.4001 31.214 16.4919 33.9285 20.2523 33.9285C24.0126 33.9285 27.0989 31.214 27.4053 27.7658H38.664V53.2552H30.4303ZM26.5975 53.2552V49.8332C26.5975 49.524 26.3301 49.2777 26.0014 49.2777H14.5031C14.1744 49.2777 13.907 49.524 13.907 49.8332V53.2552H11.272V46.9405H29.2325V53.2552H26.5975ZM15.1048 53.2552V50.3939H25.3998V53.2552H15.1048ZM14.2914 26.6495C14.5978 23.825 17.1493 21.6083 20.2523 21.6083C23.3497 21.6083 25.9067 23.825 26.2075 26.6495H14.2914ZM26.2075 27.7658C25.9067 30.5956 23.3497 32.807 20.2523 32.807C17.1493 32.807 14.5978 30.5956 14.2914 27.7658H26.2075ZM15.1048 1.16013H25.3998V4.0214H15.1048V1.16013ZM13.907 1.16013V4.58213C13.907 4.89131 14.1744 5.14285 14.5031 5.14285H26.0014C26.3301 5.14285 26.5975 4.89131 26.5975 4.58213V1.16013H29.2325V7.48008H11.272V1.16013H13.907ZM0.637169 0.604648V53.8159C0.637169 54.1251 0.904571 54.3714 1.23882 54.3714H39.2713C39.6 54.3714 39.8674 54.1251 39.8674 53.8159V0.604648C39.8674 0.295464 39.6 0.0439224 39.2713 0.0439224H1.23882C0.904571 0.0439224 0.637169 0.295464 0.637169 0.604648Z" fill="white"/>
</svg>
