<svg width="65" height="48" viewBox="0 0 65 48" fill="none" xmlns="http://www.w3.org/2000/svg">
<path d="M5.2547 12.4542L10.8665 14.4968L11.5151 15.4564C11.1937 15.6923 10.9568 16.0354 10.8778 16.4482C10.7086 17.3274 11.329 18.1691 12.2596 18.3246L13.6245 18.5551L13.9516 19.0376L14.4931 18.7052L22.1466 19.9973C22.2481 20.0134 22.3497 20.0241 22.4455 20.0241C22.8629 20.0241 23.2633 19.8793 23.5792 19.6166L28.0461 15.8853L29.8058 26.0071L30.5108 35.8179L21.1258 42.8677C19.9752 43.7362 19.7834 45.3231 20.6971 46.4168C21.2216 47.044 22.0056 47.3711 22.7896 47.3711C23.3705 47.3711 23.9571 47.1942 24.4477 46.8242L34.9269 38.9488C34.9439 38.9381 34.9551 38.9273 34.9664 38.9166C35.0285 38.8684 35.0849 38.8201 35.1356 38.7719C35.1582 38.7504 35.1807 38.7343 35.1977 38.7129C35.2541 38.6539 35.3105 38.6003 35.3612 38.536C35.3669 38.5252 35.3781 38.5145 35.3894 38.5038C35.4515 38.4288 35.5079 38.3483 35.5586 38.2679C35.5643 38.2572 35.5755 38.2411 35.5812 38.2304C35.6207 38.1607 35.6601 38.091 35.694 38.0213C35.7053 37.9999 35.7165 37.9784 35.7222 37.957C35.756 37.8873 35.7842 37.8176 35.8068 37.7479C35.8124 37.7264 35.8237 37.7104 35.8293 37.6889C35.8575 37.5978 35.8801 37.5066 35.897 37.4101C35.9139 37.3297 35.9252 37.2493 35.9309 37.1689L36.7092 27.9103L46.5059 35.8983L47.7806 45.0444C47.9611 46.3149 49.106 47.237 50.4258 47.237C50.5386 47.237 50.657 47.2317 50.7754 47.2156C52.2362 47.0333 53.2683 45.7627 53.0709 44.3796L51.6609 34.2793C51.6609 34.2632 51.6553 34.2471 51.6553 34.231C51.6497 34.1935 51.644 34.1613 51.6327 34.1291C51.6271 34.0863 51.6158 34.0487 51.6045 34.0058C51.5989 33.9683 51.5876 33.9361 51.5763 33.904C51.565 33.8665 51.5538 33.8236 51.5368 33.786C51.5256 33.7539 51.5143 33.7163 51.4974 33.6842C51.4804 33.6466 51.4635 33.6091 51.4466 33.5716C51.4297 33.5394 51.4184 33.5073 51.4015 33.4697C51.3789 33.4322 51.3507 33.3893 51.3282 33.3518C51.2943 33.2982 51.2661 33.2499 51.2323 33.207C51.2041 33.1641 51.1759 33.1266 51.1477 33.0891C51.1251 33.0623 51.1026 33.0408 51.08 33.014C51.0518 32.9765 51.018 32.939 50.9841 32.9068C50.9616 32.8854 50.939 32.8586 50.9164 32.8371C50.8939 32.821 50.877 32.7996 50.8544 32.7835L41.1705 24.0663L39.4446 14.1483L55.1296 20.1903C55.3439 20.276 55.5582 20.3136 55.7782 20.3136C56.4493 20.3136 57.0866 19.9329 57.3574 19.3057C57.7127 18.4801 57.2953 17.5365 56.4211 17.1988L38.153 10.1596C37.9274 10.0685 37.6962 10.031 37.465 10.0363C37.3352 10.0256 37.1999 10.031 37.0589 10.0524L28.9203 11.323C28.7962 11.3391 28.6778 11.3766 28.565 11.4195C28.283 11.4731 28.0122 11.5964 27.781 11.7894L21.9379 16.6787L13.0718 15.1776L12.1017 13.7462L12.4627 8.06881V8.06345C12.6883 6.77678 12.4288 5.40434 11.6223 4.21954C9.89645 1.67837 6.32067 0.943902 3.64165 2.57904C0.956991 4.20881 0.178665 7.59167 1.90452 10.1328C2.71104 11.3176 3.92365 12.1111 5.2547 12.4542ZM4.12669 9.30723C3.90673 9.43589 3.61909 9.37692 3.48373 9.1732C3.34273 8.96948 3.40477 8.69606 3.61909 8.56203C3.83905 8.43337 4.12669 8.49234 4.26205 8.69606C4.40305 8.89978 4.34101 9.1732 4.12669 9.30723ZM5.01782 10.6153C4.79786 10.7494 4.51021 10.6904 4.37485 10.4813C4.23385 10.2776 4.29589 10.0042 4.51021 9.8755C4.73018 9.74148 5.01782 9.80045 5.15318 10.0095C5.29418 10.2133 5.23214 10.4867 5.01782 10.6153ZM9.34937 7.97767C9.13504 8.10634 8.8474 8.04737 8.7064 7.84364C8.57104 7.63992 8.63308 7.36651 8.8474 7.23784C9.06172 7.10381 9.34937 7.16278 9.49037 7.36651C9.63137 7.57023 9.56933 7.84364 9.34937 7.97767ZM9.73853 8.54595C9.95285 8.41728 10.2405 8.47625 10.3815 8.67998C10.5225 8.8837 10.4605 9.15711 10.2405 9.28578C10.0262 9.41981 9.73853 9.36084 9.59753 9.15711C9.45653 8.94803 9.52421 8.67998 9.73853 8.54595ZM8.93764 9.5592C9.073 9.76292 9.01096 10.0363 8.79664 10.165C8.58232 10.299 8.29468 10.2401 8.15368 10.0363C8.01268 9.83261 8.07472 9.5592 8.29468 9.42517C8.509 9.2965 8.79664 9.35547 8.93764 9.5592ZM6.84519 10.3044C7.06515 10.1757 7.35279 10.2347 7.48815 10.4384C7.62915 10.6421 7.56712 10.9156 7.35279 11.0496C7.13283 11.1783 6.84519 11.1193 6.70983 10.9156C6.56883 10.7118 6.63087 10.4384 6.84519 10.3044ZM7.90552 8.85689C7.69119 8.98556 7.40355 8.92659 7.26255 8.72287C7.12155 8.51914 7.18359 8.24573 7.40355 8.11706C7.61788 7.98303 7.90552 8.04201 8.04652 8.24573C8.18188 8.45481 8.11984 8.72286 7.90552 8.85689ZM7.01439 7.54342C6.80007 7.67745 6.51243 7.61848 6.37143 7.41476C6.23042 7.21103 6.29247 6.93762 6.51243 6.80359C6.72675 6.67492 7.01439 6.7339 7.15539 6.93762C7.29075 7.14134 7.22871 7.41476 7.01439 7.54342ZM6.60267 9.12495C6.73803 9.33403 6.67599 9.60209 6.46167 9.73611C6.24171 9.87014 5.95406 9.81117 5.8187 9.60209C5.6777 9.39836 5.73974 9.12495 5.9597 8.99628C6.17403 8.86225 6.46167 8.92123 6.60267 9.12495ZM5.57054 8.42264C5.35622 8.55667 5.06294 8.4977 4.92758 8.29398C4.78658 8.09026 4.84862 7.81684 5.06858 7.68281C5.2829 7.55414 5.57054 7.61312 5.71154 7.81684C5.8469 8.02056 5.78486 8.29398 5.57054 8.42264ZM11.0357 13.4567L8.27212 12.4542C8.83048 12.3094 9.37193 12.0843 9.88517 11.7733C10.3984 11.4624 10.844 11.0818 11.2106 10.6636L11.0357 13.4567ZM10.2913 6.35326C10.5112 6.22459 10.7989 6.28356 10.9342 6.48728C11.0752 6.69101 11.0132 6.96442 10.7932 7.09845C10.5789 7.22712 10.2913 7.16815 10.1503 6.96442C10.0149 6.7607 10.0769 6.48728 10.2913 6.35326ZM9.40013 5.04515C9.62009 4.91112 9.90773 4.97009 10.0431 5.17917C10.1841 5.3829 10.1221 5.65631 9.90773 5.78498C9.68777 5.91901 9.40013 5.86004 9.25913 5.65095C9.12376 5.44723 9.18581 5.17381 9.40013 5.04515ZM8.509 3.73168C8.72896 3.60301 9.0166 3.66198 9.15197 3.8657C9.29297 4.06943 9.23093 4.34284 9.0166 4.47687C8.79664 4.60554 8.509 4.54656 8.37364 4.34284C8.23264 4.13912 8.29468 3.8657 8.509 3.73168ZM7.95628 5.92437C8.1706 5.7957 8.45824 5.85467 8.59924 6.0584C8.74024 6.26212 8.6782 6.53553 8.45824 6.6642C8.24392 6.79823 7.95628 6.73926 7.81528 6.53553C7.67991 6.32645 7.74196 6.0584 7.95628 5.92437ZM7.06515 4.61626C7.27947 4.48223 7.56711 4.5412 7.70812 4.74493C7.84912 4.94865 7.78708 5.22206 7.56711 5.35609C7.35279 5.48476 7.06515 5.42579 6.92415 5.22206C6.78879 5.01834 6.85083 4.74493 7.06515 4.61626ZM6.17403 3.30279C6.38835 3.16876 6.68163 3.23309 6.81699 3.43682C6.95799 3.64054 6.89595 3.91395 6.67599 4.04262C6.46167 4.17665 6.17403 4.11768 6.03302 3.91395C5.89766 3.70487 5.9597 3.43682 6.17403 3.30279ZM5.6213 5.49548C5.83562 5.36145 6.12327 5.42042 6.26427 5.62415C6.40527 5.82787 6.33759 6.10128 6.12327 6.23531C5.90894 6.36398 5.6213 6.30501 5.4803 6.10128C5.3393 5.89756 5.40698 5.62415 5.6213 5.49548ZM4.73018 4.18201C4.9445 4.05334 5.23214 4.11232 5.37314 4.31604C5.51414 4.51976 5.4521 4.79317 5.23214 4.92184C5.01782 5.05587 4.73018 4.9969 4.58917 4.79317C4.45381 4.58945 4.51585 4.31604 4.73018 4.18201ZM4.17745 6.3747C4.39177 6.24067 4.67942 6.29965 4.82042 6.50337C4.95578 6.71245 4.89374 6.9805 4.67942 7.11453C4.46509 7.24856 4.17745 7.18423 4.03645 6.98051C3.89545 6.77678 3.95749 6.50337 4.17745 6.3747ZM3.28633 5.06123C3.50065 4.93256 3.78829 4.99154 3.92929 5.19526C4.06465 5.39898 4.00261 5.6724 3.78829 5.80106C3.57397 5.93509 3.28633 5.87612 3.14533 5.6724C3.00432 5.46868 3.06636 5.19526 3.28633 5.06123ZM2.72796 7.25392C2.94792 7.11989 3.23557 7.17887 3.37093 7.38795C3.51193 7.59167 3.44989 7.86509 3.23557 7.99375C3.0156 8.12778 2.72796 8.06881 2.5926 7.85973C2.4516 7.65601 2.51364 7.38259 2.72796 7.25392Z" fill="#F1F1F1"/>
<path d="M34.4864 0.531403C35.118 0.595731 35.7101 0.777987 36.2684 1.06746C36.8267 1.35693 37.3061 1.73752 37.7009 2.20925C38.1013 2.68098 38.3889 3.20631 38.5637 3.78525C38.7385 4.36419 38.7949 4.95385 38.7216 5.55423C38.6539 6.15461 38.4622 6.71747 38.152 7.2428C37.8475 7.77349 37.4414 8.22378 36.9452 8.59902C36.4489 8.97425 35.8906 9.24764 35.2815 9.41382C34.6668 9.57999 34.0465 9.6336 33.4149 9.56391C32.7833 9.49959 32.1855 9.31733 31.6272 9.02786C31.0689 8.73839 30.5952 8.35243 30.1948 7.88606C29.8 7.41434 29.5124 6.889 29.3319 6.31007C29.1571 5.73113 29.1063 5.14147 29.174 4.54109C29.2473 3.94071 29.4391 3.37785 29.7436 2.85252C30.0538 2.32182 30.4542 1.87154 30.9504 1.4963C31.4523 1.1157 32.005 0.847674 32.6197 0.681498C33.2288 0.509961 33.8491 0.461716 34.4864 0.531403Z" fill="#F1F1F1"/>
<path d="M63.8367 14.0949C63.9946 14.2449 64.113 14.4164 64.2032 14.6148C64.2878 14.8077 64.3272 15.0114 64.3272 15.2257C64.3272 15.4401 64.2878 15.6438 64.2032 15.8367C64.113 16.035 63.9946 16.2065 63.8367 16.3566C63.6732 16.5067 63.4928 16.6246 63.2841 16.705C63.0755 16.7854 62.8613 16.8282 62.6357 16.8282C62.4158 16.8282 62.1959 16.7854 61.993 16.705C61.7843 16.6246 61.5983 16.5067 61.4404 16.3566C61.2825 16.2065 61.1585 16.035 61.0739 15.8367C60.9893 15.6438 60.9442 15.4401 60.9442 15.2257C60.9442 15.0114 60.9893 14.8077 61.0739 14.6148C61.1585 14.4164 61.2825 14.2449 61.4404 14.0949C61.5983 13.9448 61.7843 13.8269 61.993 13.7465C62.1959 13.6661 62.4158 13.6232 62.6357 13.6232C62.8613 13.6232 63.0755 13.6661 63.2841 13.7465C63.4928 13.8269 63.6732 13.9448 63.8367 14.0949Z" fill="#F1F1F1"/>
</svg>
