<svg width="38" height="40" viewBox="0 0 38 40" fill="none" xmlns="http://www.w3.org/2000/svg">
<path d="M16.2179 23.0035C18.403 25.3862 21.0468 27.2257 23.9638 28.3929L27.91 25.0175C28.027 24.9309 28.1658 24.8845 28.3078 24.8845C28.4499 24.8845 28.5886 24.9309 28.7056 25.0175L36.0328 30.0919C36.311 30.2717 36.5464 30.5185 36.7206 30.8129C36.8948 31.1073 37.0029 31.4412 37.0364 31.7882C37.0699 32.1352 37.0279 32.4859 36.9137 32.8124C36.7994 33.139 36.6161 33.4325 36.3782 33.6699L32.9449 37.3153C32.4532 37.8375 31.8489 38.2208 31.1859 38.4309C30.5229 38.6409 29.8218 38.6713 29.1452 38.5192C22.396 37.0209 16.1751 33.5118 11.1935 28.3929C6.32247 23.2232 2.95173 16.6452 1.49019 9.45678C1.3458 8.74078 1.37594 7.99684 1.57767 7.29704C1.7794 6.59724 2.14588 5.96532 2.64161 5.46252L6.20054 1.77205C6.42078 1.52878 6.68936 1.34222 6.98617 1.22633C7.28299 1.11044 7.60035 1.06824 7.91449 1.10287C8.22864 1.1375 8.53142 1.24808 8.80017 1.42632C9.06892 1.60455 9.29668 1.84584 9.46639 2.1321L14.3442 9.90684C14.4284 10.0289 14.4738 10.1768 14.4738 10.3288C14.4738 10.4807 14.4284 10.6286 14.3442 10.7507L11.1307 14.9025C12.2461 17.9752 13.9839 20.7424 16.2179 23.0035Z" fill="#E3E3E3" stroke="#E3E3E3" stroke-width="1.87617"/>
</svg>
