<svg width="105" height="84" viewBox="0 0 105 84" fill="none" xmlns="http://www.w3.org/2000/svg">
<path d="M100.319 3.80783L100.318 3.80684C98.1806 1.99035 95.6119 1.09038 92.6614 1.09038H12.6395C9.68896 1.09038 7.1216 1.99036 4.9878 3.80733C2.84706 5.63022 1.7271 7.88012 1.7271 10.5175V76.8477C1.7271 77.9761 2.03112 78.9901 2.68018 79.8363C3.3226 80.6738 4.25051 81.2788 5.38602 81.6928C7.72 82.5453 9.88177 82.2006 11.7288 80.6279L22.977 71.0498H92.6614C95.6119 71.0498 98.1806 70.1498 100.318 68.3333L100.319 68.3323C102.456 66.5092 103.574 64.2594 103.574 61.6226V10.5175C103.574 7.88072 102.456 5.63092 100.319 3.80783Z" fill="#F04625" stroke="#1E1B2C" stroke-width="1.81924"/>
<path d="M50.6703 43.9693C50.6703 41.1543 50.9224 39.1296 51.4267 37.8952C51.9297 36.6621 52.9973 35.3158 54.6297 33.8561C56.0537 32.605 57.1387 31.5186 57.8848 30.597C58.6322 29.6767 59.0059 28.6258 59.0059 27.4442C59.0059 26.0193 58.5287 24.8377 57.5743 23.8993C56.6184 22.961 55.2896 22.4918 53.5878 22.4918C51.8164 22.4918 50.4702 23.0305 49.5491 24.1079C48.6294 25.1852 47.9786 26.2799 47.5965 27.392L42.2305 25.0983C42.9598 22.8741 44.297 20.9453 46.242 19.3119C48.187 17.6785 50.6356 16.8618 53.5878 16.8618C57.2346 16.8618 60.0395 17.8787 62.0026 19.9125C63.9642 21.9448 64.945 24.3859 64.945 27.2356C64.945 28.9733 64.572 30.4594 63.826 31.6938C63.0786 32.9268 61.906 34.3253 60.3084 35.8892C58.6065 37.5226 57.5736 38.7647 57.2096 39.6154C56.8442 40.4676 56.6615 41.9189 56.6615 43.9693H50.6703ZM53.5878 56.4805C52.4416 56.4805 51.4608 56.0725 50.6453 55.2565C49.8284 54.4391 49.4199 53.4569 49.4199 52.3101C49.4199 51.1632 49.8284 50.1811 50.6453 49.3637C51.4608 48.5477 52.4416 48.1397 53.5878 48.1397C54.7339 48.1397 55.7154 48.5477 56.5323 49.3637C57.3478 50.1811 57.7556 51.1632 57.7556 52.3101C57.7556 53.4569 57.3478 54.4391 56.5323 55.2565C55.7154 56.0725 54.7339 56.4805 53.5878 56.4805Z" fill="white"/>
</svg>
