<svg width="32" height="36" viewBox="0 0 32 36" fill="none" xmlns="http://www.w3.org/2000/svg">
<path d="M26.5615 35.229C25.0859 35.229 23.8316 34.7152 22.7986 33.6877C21.7657 32.6602 21.2492 31.4125 21.2492 29.9446C21.2492 29.7391 21.264 29.526 21.2935 29.3052C21.323 29.0856 21.3673 28.8878 21.4263 28.7116L8.94238 21.4897C8.44066 21.93 7.87992 22.2747 7.26015 22.5236C6.64038 22.7738 5.9911 22.8988 5.31231 22.8988C3.83667 22.8988 2.58237 22.3851 1.54942 21.3576C0.516474 20.3301 0 19.0824 0 17.6145C0 16.1466 0.516474 14.8989 1.54942 13.8714C2.58237 12.8439 3.83667 12.3301 5.31231 12.3301C5.9911 12.3301 6.64038 12.4546 7.26015 12.7036C7.87992 12.9537 8.44066 13.2989 8.94238 13.7393L21.4263 6.51736C21.3673 6.34121 21.323 6.14335 21.2935 5.92375C21.264 5.70298 21.2492 5.48985 21.2492 5.28435C21.2492 3.81647 21.7657 2.56878 22.7986 1.54127C23.8316 0.513756 25.0859 0 26.5615 0C28.0372 0 29.2915 0.513756 30.3244 1.54127C31.3574 2.56878 31.8738 3.81647 31.8738 5.28435C31.8738 6.75222 31.3574 7.99991 30.3244 9.02742C29.2915 10.0549 28.0372 10.5687 26.5615 10.5687C25.8827 10.5687 25.2334 10.4436 24.6137 10.1935C23.9939 9.94455 23.4332 9.59989 22.9315 9.15953L10.4475 16.3815C10.5066 16.5576 10.5508 16.7555 10.5803 16.9751C10.6099 17.1958 10.6246 17.409 10.6246 17.6145C10.6246 17.82 10.6099 18.0325 10.5803 18.2521C10.5508 18.4729 10.5066 18.6714 10.4475 18.8475L22.9315 26.0694C23.4332 25.6291 23.9939 25.2838 24.6137 25.0337C25.2334 24.7848 25.8827 24.6603 26.5615 24.6603C28.0372 24.6603 29.2915 25.174 30.3244 26.2015C31.3574 27.2291 31.8738 28.4768 31.8738 29.9446C31.8738 31.4125 31.3574 32.6602 30.3244 33.6877C29.2915 34.7152 28.0372 35.229 26.5615 35.229Z" fill="#F0F0F0"/>
</svg>
