<svg width="54" height="49" viewBox="0 0 54 49" fill="none" xmlns="http://www.w3.org/2000/svg">
<path d="M40.3964 8.90166C42.8437 8.90166 44.8314 6.98589 44.8314 4.63327C44.8314 2.28066 42.8437 0.370148 40.3964 0.370148C37.9379 0.370148 35.9557 2.28066 35.9557 4.63327C35.9557 6.98589 37.9379 8.90166 40.3964 8.90166Z" fill="#F1F1F1"/>
<path d="M25.1075 12.0713L18.2022 19.7404C17.7924 20.2247 17.1778 20.5195 16.48 20.5195C15.2452 20.5195 14.2429 19.5615 14.2429 18.3771C14.2429 17.735 14.5308 17.1612 14.996 16.7665L22.444 8.52355C22.8537 8.04982 23.4684 7.74979 24.1661 7.74979L34.9477 7.73927C35.7396 7.73927 36.4484 8.04982 36.9745 8.53408L43.8465 15.14L49.5391 9.6763C49.9434 9.34995 50.4584 9.15519 51.0232 9.15519C52.2968 9.15519 53.3268 10.15 53.3268 11.3712C53.3268 11.9081 53.1385 12.3924 52.8118 12.7819L45.9453 19.4299C43.8576 21.4301 42.1797 19.7352 42.1797 19.7352L37.9657 15.6611L31.3815 22.9829L37.4175 28.7834C37.4175 28.7834 38.6911 29.9204 37.9601 32.1785L34.5767 46.6694C34.3109 47.9274 33.1536 48.8749 31.7692 48.8749C30.1799 48.8749 28.9007 47.6379 28.9007 46.1167C28.9007 45.8693 28.9284 45.6377 28.9893 45.4166L31.7692 33.5313L24.9137 27.1254L19.0162 33.447C19.0162 33.447 18.0638 34.5735 15.5331 34.4893L3.5665 34.5103C2.23196 34.5314 1.01924 33.6523 0.72021 32.3522C0.365807 30.8678 1.31826 29.4098 2.86877 29.0782C3.11242 29.0256 3.35054 29.0098 3.58865 29.015L13.8774 29.0414L29.089 12.0871L25.1075 12.0713Z" fill="#F1F1F1"/>
</svg>
