<svg width="56" height="59" viewBox="0 0 56 59" fill="none" xmlns="http://www.w3.org/2000/svg">
<path d="M53.1749 0.143555H2.87167C1.66193 0.143555 0.68457 1.19475 0.68457 2.49589V56.5996C0.68457 57.9007 1.66193 58.9519 2.87167 58.9519H53.1749C54.3847 58.9519 55.362 57.9007 55.362 56.5996V2.49589C55.362 1.19475 54.3847 0.143555 53.1749 0.143555ZM42.7384 21.4395C42.7589 21.785 42.7589 22.1452 42.7589 22.4981C42.7589 33.2894 35.1177 45.72 21.1544 45.72C16.8486 45.72 12.8571 44.3748 9.49448 42.0592C10.1096 42.1327 10.6974 42.1621 11.3262 42.1621C14.8802 42.1621 18.1472 40.8683 20.7512 38.6777C17.4159 38.6042 14.6137 36.2519 13.6568 33.0174C14.8255 33.2012 15.8781 33.2012 17.081 32.8704C15.3636 32.4951 13.82 31.4919 12.7124 30.0313C11.6047 28.5706 11.0014 26.7426 11.0049 24.8578V24.7548C12.0096 25.365 13.192 25.7399 14.4291 25.7913C13.3892 25.0459 12.5363 24.036 11.9462 22.8511C11.356 21.6663 11.0468 20.3431 11.046 18.999C11.046 17.4773 11.415 16.088 12.078 14.8824C13.9842 17.4063 16.3629 19.4705 19.0594 20.9409C21.7559 22.4113 24.7099 23.2549 27.7294 23.417C26.6564 17.8669 30.5111 13.3754 35.1451 13.3754C37.3321 13.3754 39.3005 14.3605 40.688 15.9483C42.4035 15.6028 44.0438 14.9118 45.5064 13.9856C44.9392 15.8748 43.7499 17.47 42.1711 18.4771C43.7021 18.3006 45.1784 17.8449 46.5453 17.2053C45.5133 18.8373 44.2215 20.2854 42.7384 21.4395Z" fill="#E8E8E8"/>
</svg>
