<svg width="38" height="67" viewBox="0 0 38 67" fill="none" xmlns="http://www.w3.org/2000/svg">
<path d="M37.4551 6.16545C37.2659 6.15146 37.0767 6.13875 36.8751 6.12603C36.8751 5.97093 36.8751 5.80056 36.8751 5.5145C36.001 6.22647 35.1048 6.74901 34.7499 7.71779C34.2376 9.10867 33.2696 10.197 32.1386 11.2001C30.5906 12.5706 29.0979 13.992 27.5485 15.3613C26.6468 16.1597 25.6304 16.803 24.3448 16.9848C23.4044 17.1183 22.6546 17.562 22.0635 18.2448C21.768 18.5868 21.4808 18.9376 21.1577 19.2555C20.9657 19.4462 20.7323 19.6229 20.4783 19.731C20.0695 19.9064 19.7353 19.6763 19.8472 19.2771C19.9411 18.9402 20.1289 18.5969 20.3719 18.3299C20.6812 17.9905 20.684 17.6892 20.4493 17.3484C20.2725 17.0929 20.0612 16.8564 19.901 16.592C19.7574 16.3555 19.6014 16.0999 19.5669 15.8406C19.5227 15.4948 19.3514 15.407 19.0145 15.3638C18.5988 15.313 18.1832 15.2214 17.7896 15.0905C16.1781 14.5501 15.2612 14.6188 14.3885 15.6397C13.6055 16.5564 13.2464 17.6332 13.0145 18.7469C12.8819 19.3903 12.8598 20.0539 12.7894 20.6947C11.5065 20.1836 10.2872 19.6852 9.05678 19.211C8.59417 19.033 8.50165 18.7508 8.64803 18.3477C9.26806 16.6288 9.94746 14.9252 11.2704 13.547C12.0837 12.7003 12.5947 11.7188 13.1015 10.722C13.1719 10.5847 13.1608 10.4118 13.194 10.2186C12.2246 10.1893 12.3295 11.1543 11.6142 11.4734C11.7413 10.7348 11.8517 10.0927 11.9622 9.45067C11.9014 9.42652 11.8407 9.40236 11.7785 9.3782C11.5949 9.49136 11.4112 9.60451 11.2552 9.70113C11.182 9.57781 11.1088 9.45449 11.0356 9.33116C10.805 9.46847 10.5758 9.60578 10.3175 9.75961C10.0662 9.39346 9.77209 9.44304 9.58843 9.83717C9.44896 10.1347 9.41305 10.4729 9.28601 10.9687C8.97392 10.4551 8.74884 10.0825 8.52237 9.71003C8.45608 9.73292 8.3898 9.75707 8.32214 9.78123C8.31109 9.96049 8.25723 10.1474 8.2959 10.3177C8.42018 10.8733 8.52237 11.4404 8.73088 11.9705C9.02778 12.7283 8.98911 13.4186 8.50718 14.0899C8.27933 14.4065 8.03353 14.7154 7.84434 15.0511C7.14008 16.2932 6.39577 17.5201 5.78817 18.8029C5.38357 19.656 5.60589 20.1696 6.45929 20.6515C8.26828 21.6711 10.0386 22.7721 12.1362 23.2692C12.5684 23.3709 12.7631 23.6188 12.7714 24.0575C12.7866 25.0263 12.8349 25.995 12.9164 26.9613C12.9675 27.5906 13.1001 28.2149 13.2092 28.9357C14.7295 27.8169 14.8096 26.3154 14.8718 24.6652C15.3192 25.1216 15.6851 25.4127 15.9434 25.7713C16.6159 26.7032 17.5369 27.3376 18.5878 27.8678C19.5075 28.3305 20.4161 28.8302 21.264 29.3985C22.2002 30.0266 22.3135 30.7703 21.7404 31.6971C21.5678 31.9768 21.3261 32.2222 21.1701 32.5095C20.8842 33.0295 20.6205 33.5635 20.3761 34.1026C19.9576 35.0269 19.6276 35.9893 19.1402 36.8831C18.0934 38.8003 16.9556 40.6756 15.8881 42.5826C15.2874 43.6544 14.9878 43.8324 13.745 43.5082C12.429 43.1649 11.164 43.2641 9.94746 43.7993C9.25977 44.1019 8.61351 44.4821 7.94791 44.8228C7.37622 45.1152 6.799 45.4 6.15826 45.7229C5.98702 44.7465 5.53961 44.3142 4.85744 44.3931C4.23604 44.4643 3.66986 44.7147 3.40611 45.2487C3.07469 45.9225 2.56238 46.3917 1.91197 46.7972C1.54327 47.0261 1.22566 47.3503 0.94948 47.677C0.163745 48.6077 0.0712241 49.6718 0.416451 50.7639C0.685727 51.6183 1.60265 51.8153 2.32348 51.214C2.50576 51.0614 2.64247 50.8682 2.80542 50.6965C3.44063 50.024 4.03995 49.3171 4.7235 48.6852C6.0754 47.4367 7.72697 46.871 9.65747 46.9383C11.5963 47.0057 13.5392 46.9854 15.478 47.0579C16.638 47.1024 17.5493 46.7985 18.2937 45.9365C19.1112 44.9893 20.0322 44.1172 20.9837 43.1382C20.3498 44.8558 19.7118 46.4463 18.6209 47.8626C17.5687 49.2281 16.6766 50.6724 16.2637 52.343C15.7832 54.2843 15.1963 56.2016 14.6757 58.1341C14.5569 58.5765 14.3277 58.7812 13.8126 58.7443C13.466 58.7202 13.1111 58.7659 12.7617 58.7977C11.9802 58.8676 11.7716 59.0978 11.8062 59.8377C11.8131 59.989 11.8117 60.1466 11.8517 60.2916C12.2315 61.638 12.3005 63.0148 12.4262 64.393C12.4897 65.077 12.9261 65.7381 13.2395 66.3903C13.3169 66.5518 13.571 66.6395 13.7436 66.7629C13.8609 66.5988 14.0322 66.4476 14.0833 66.267C14.2227 65.7725 14.318 65.2664 14.4175 64.763C14.5928 63.8705 14.8621 63.0199 15.634 62.3868C16.2168 61.9088 16.5371 61.296 16.6352 60.5992C17.0978 57.2873 19.2078 54.5895 20.5666 51.6119C20.6357 51.4581 20.7807 51.3348 20.8856 51.1924C21.5554 50.3037 22.2196 49.4112 22.8948 48.525C24.0893 46.9536 25.2672 45.3707 26.4962 43.8248C27.5222 42.533 28.5745 41.2604 29.0564 39.6903C30.1819 36.0096 30.4498 32.3176 29.1034 28.6331C28.5262 27.0528 27.891 25.4865 27.2198 23.938C26.974 23.3709 26.5418 22.8725 26.1993 22.3411C25.8555 21.811 25.4357 21.3075 25.1954 20.7392C24.8571 19.9408 24.969 19.7806 25.7436 19.2669C26.0129 19.0877 26.2822 18.9122 26.5377 18.7215C28.4461 17.3027 30.4512 16.0008 31.8956 14.1014C32.8015 12.9088 33.8993 11.8294 34.9985 10.7767C35.7469 10.0622 36.5989 9.45321 36.8075 8.40433C36.8641 8.12717 36.9359 7.85256 37.0008 7.57794C36.708 7.65931 36.4139 7.74195 36.0963 7.83094C36.4705 7.47623 36.8806 7.11898 37.2438 6.72358C37.375 6.58627 37.3888 6.35488 37.4551 6.16545ZM14.4851 21.1498C14.1703 20.5421 13.8568 19.9331 13.5723 19.3852C14.2918 19.656 14.9367 19.9522 15.6188 20.1416C16.2223 20.3069 16.6959 20.5637 17.0508 21.1257C16.145 21.6736 15.3123 21.0875 14.4851 21.1498Z" fill="#F1F1F1"/>
<path d="M23.3424 6.19931C25.0104 6.20566 26.3262 4.99926 26.3331 3.45979C26.3373 1.91142 25.0435 0.719 23.359 0.717729C21.68 0.716457 20.3586 1.91396 20.3503 3.44453C20.342 4.95985 21.68 6.19168 23.3424 6.19931Z" fill="#F1F1F1"/>
</svg>
