<svg width="42" height="34" viewBox="0 0 42 34" fill="none" xmlns="http://www.w3.org/2000/svg">
<path d="M4.16667 0C3.0616 0 2.00179 0.438987 1.22039 1.22039C0.438987 2.00179 0 3.0616 0 4.16667V12.5C1.10507 12.5 2.16488 12.939 2.94628 13.7204C3.72768 14.5018 4.16667 15.5616 4.16667 16.6667C4.16667 17.7717 3.72768 18.8315 2.94628 19.6129C2.16488 20.3943 1.10507 20.8333 0 20.8333V29.1667C0 30.2717 0.438987 31.3315 1.22039 32.1129C2.00179 32.8943 3.0616 33.3333 4.16667 33.3333H37.5C38.6051 33.3333 39.6649 32.8943 40.4463 32.1129C41.2277 31.3315 41.6667 30.2717 41.6667 29.1667V20.8333C40.5616 20.8333 39.5018 20.3943 38.7204 19.6129C37.939 18.8315 37.5 17.7717 37.5 16.6667C37.5 15.5616 37.939 14.5018 38.7204 13.7204C39.5018 12.939 40.5616 12.5 41.6667 12.5V4.16667C41.6667 3.0616 41.2277 2.00179 40.4463 1.22039C39.6649 0.438987 38.6051 0 37.5 0H4.16667ZM28.125 6.25L31.25 9.375L13.5417 27.0833L10.4167 23.9583L28.125 6.25ZM14.1875 6.33333C16.2292 6.33333 17.875 7.97917 17.875 10.0208C17.875 10.9988 17.4865 11.9367 16.795 12.6283C16.1034 13.3198 15.1655 13.7083 14.1875 13.7083C12.1458 13.7083 10.5 12.0625 10.5 10.0208C10.5 9.04285 10.8885 8.10492 11.58 7.41338C12.2716 6.72184 13.2095 6.33333 14.1875 6.33333ZM27.4792 19.625C29.5208 19.625 31.1667 21.2708 31.1667 23.3125C31.1667 24.2905 30.7782 25.2284 30.0866 25.92C29.3951 26.6115 28.4572 27 27.4792 27C25.4375 27 23.7917 25.3542 23.7917 23.3125C23.7917 22.3345 24.1802 21.3966 24.8717 20.705C25.5633 20.0135 26.5012 19.625 27.4792 19.625Z" fill="#F04625"/>
</svg>
