<svg width="55" height="61" viewBox="0 0 55 61" fill="none" xmlns="http://www.w3.org/2000/svg">
<path d="M54.2081 4.36838C54.1379 4.32693 54.0502 4.32693 53.9684 4.33729C53.3837 4.40983 52.9862 4.96422 52.4016 5.0523C52.4308 4.87096 52.5126 4.6948 52.5945 4.52382C53.1148 3.46167 53.6468 2.39952 54.2022 1.35292C54.2841 1.19231 54.3484 0.969513 54.1847 0.876251C54.0853 0.819259 53.945 0.855525 53.8631 0.928063C53.7754 1.0006 53.7287 1.09904 53.6819 1.19749C53.3662 1.81923 52.916 2.37362 52.4659 2.92283C52.1853 3.26479 51.9046 3.60674 51.5539 3.89689C51.1388 4.23885 50.636 4.49273 50.2443 4.85541C49.9929 5.08339 49.7883 5.34763 49.5486 5.58596C49.0166 6.10926 48.3092 6.49267 47.5375 6.65847C45.5965 7.08851 43.6029 7.41493 41.6444 7.77761C40.8143 7.93305 39.9782 8.0833 39.2007 8.38899C38.3705 8.72059 37.628 9.21799 37.0434 9.83973C36.1899 10.7464 34.512 10.5236 33.3603 11.1247C33.0621 11.2801 32.7756 11.4718 32.4482 11.5806C32.0975 11.6998 31.7116 11.7205 31.3316 11.762C29.9577 11.9278 28.6423 12.5132 27.666 13.394C27.514 12.7257 27.8823 12.0469 27.7595 11.3734C27.7478 11.306 27.7244 11.2335 27.6777 11.1765C27.6367 11.1298 27.5783 11.0988 27.5374 11.0469C27.4847 10.9796 27.4789 10.8863 27.4789 10.8034C27.4555 9.96926 27.2743 9.14027 26.9352 8.36827C26.8592 8.19211 26.7773 8.02113 26.6604 7.87087C26.5727 7.7517 26.4616 7.6429 26.3447 7.54446C25.5379 6.83981 24.1465 6.48231 23.0182 6.47195C21.9951 6.46159 20.9778 6.90717 20.3581 7.63254C19.5338 8.60142 19.4578 9.90191 19.3877 11.1195C19.3818 11.2024 19.376 11.2853 19.3526 11.363C19.3175 11.4563 19.259 11.5392 19.2181 11.6324C19.0778 11.9278 19.1246 12.2697 19.2064 12.5858C19.3117 13.0054 19.4695 13.4199 19.6741 13.8137C19.715 13.8914 19.7618 13.9795 19.8495 14.0158C19.9197 14.0469 19.9957 14.0417 20.0658 14.0624C20.2354 14.1142 20.3289 14.2956 20.3348 14.4562C20.3464 14.622 20.2997 14.7826 20.3055 14.9484C20.3055 15.2644 20.4926 15.5494 20.6388 15.8344C20.7908 16.1245 20.9135 16.4509 20.7966 16.7515C20.668 17.0727 20.2763 17.2903 20.212 17.6323C19.9314 17.8499 19.5864 18.0623 19.3058 18.2799C19.1246 18.4198 18.9492 18.5597 18.7855 18.7099C18.6276 18.855 18.4932 19.0156 18.3529 19.1711L17.131 20.57C16.7627 20.9897 16.2599 21.7254 16.0202 22.2073C16.0144 22.2124 16.0144 22.2176 16.0085 22.228C15.459 23.3109 15.1842 24.4922 15.1959 25.6838C15.2076 26.7926 15.1199 27.8962 14.9445 28.9946C14.8217 29.7459 14.9269 30.606 14.4826 31.2536C14.3189 31.4868 14.0851 31.6733 13.8629 31.8598C12.6352 32.8961 11.5653 34.0774 10.6767 35.3572C9.92838 36.4504 8.71236 37.3053 8.06927 38.4503C7.89388 38.7612 7.73603 39.0876 7.50802 39.3726C7.36187 39.5436 7.19233 39.699 7.08125 39.8855C6.92924 40.129 6.88247 40.4088 6.82401 40.6834C6.68955 41.357 6.50831 42.0254 6.27446 42.673C5.86522 43.8129 5.30983 44.9268 5.13444 46.1081C5.08182 46.476 5.05844 46.8439 5.03505 47.2117C4.89474 49.5692 4.75443 51.9266 4.60827 54.2893C4.67843 54.3359 4.57904 54.4292 4.51473 54.481C4.45042 54.5328 4.36273 54.5587 4.28673 54.6001C4.08795 54.7193 4.04703 54.968 3.89503 55.1338C3.68456 55.3618 3.29871 55.4032 3.08239 55.626C2.90116 55.8074 2.87777 56.0716 2.81347 56.3099C2.59131 57.2011 1.80791 57.8798 1.07128 58.5119C0.86081 58.6933 0.638651 58.885 0.568496 59.1389C0.474956 59.4653 0.650343 59.8021 0.662036 60.1388C0.667882 60.1958 0.667883 60.258 0.70296 60.3046C0.708808 60.315 0.720498 60.3254 0.726345 60.3357C0.884194 60.4601 1.10635 60.5067 1.31682 60.5015L4.19319 60.4601C4.43873 60.4601 4.69012 60.4549 4.91812 60.3824C5.29813 60.2632 5.5846 59.9834 5.94122 59.8228C6.368 59.6259 6.87078 59.6104 7.33848 59.4912C7.80034 59.372 8.27973 59.0819 8.32066 58.6518C8.34404 58.3772 8.18619 58.1182 8.05173 57.8695C7.70095 57.1856 7.5431 56.4187 7.60741 55.6675C7.6191 55.5431 7.6308 55.4084 7.56064 55.2944C7.50802 55.2115 7.41448 55.1545 7.35602 55.0768C7.25663 54.9421 7.26248 54.7711 7.27417 54.6105C7.47879 52.6831 8.8819 51.051 9.67699 49.248C10.437 47.533 10.2324 45.5641 10.6241 43.7507C10.6709 43.5227 10.7293 43.2896 10.8521 43.0823C10.8696 43.0979 10.8638 43.0875 10.8521 43.0668C10.8462 43.0461 10.8638 43.0253 10.8813 43.0098C11.7173 42.3621 12.5534 41.7145 13.3894 41.0616C13.5998 40.8959 13.8278 40.7249 14.1085 40.6782C14.6171 40.5953 15.0556 40.958 15.5174 41.1756C15.7571 41.2844 15.9851 41.5746 16.0319 41.8077C16.3534 43.3725 16.6048 44.9476 16.7978 46.533C16.827 46.761 16.8562 46.9993 16.827 47.2273C16.7568 47.8179 16.3359 48.3827 16.4879 48.9578C15.4005 48.9941 14.3306 49.7143 14.0559 50.6572C13.9565 50.9785 13.9448 51.3204 13.9565 51.6572C13.9682 51.937 14.0032 52.2271 14.1143 52.4914C14.2137 52.7194 14.3657 52.9214 14.5236 53.1131C14.9386 53.6157 15.4005 54.082 15.915 54.5069C15.6519 55.1131 15.5467 55.8695 15.7805 56.4861C15.9384 56.8954 16.1781 57.2736 16.4821 57.6156C16.751 57.9161 17.1544 58.0923 17.587 58.0923H20.0366C20.4458 58.0923 20.8375 57.9368 21.1006 57.657C21.2935 57.4498 21.4631 57.2322 21.5917 56.9783C22.0243 56.1493 21.9016 55.1183 21.2935 54.3877C21.8489 53.8022 22.4511 53.1339 22.7843 52.424C23.1176 51.7194 23.1994 50.88 22.8019 50.1961C22.6206 49.8904 22.3576 49.6262 22.0945 49.3723C22.0711 49.1651 22.0009 48.9837 21.9717 48.7765C21.9483 48.5537 21.9191 48.3257 21.8256 48.1184C21.6034 47.647 21.0655 47.362 20.5628 47.1237C20.2646 46.9889 19.9372 46.6418 19.8203 46.362C19.7443 46.1807 19.6157 45.9993 19.604 45.8232C19.528 45.0305 19.4578 44.2325 19.3877 43.4346C19.3643 43.1652 19.3409 42.901 19.3467 42.6316C19.3643 42.2119 19.4578 41.7922 19.5221 41.3725C19.6624 40.4606 19.6507 39.5228 19.4812 38.6109C19.4637 38.5177 19.4461 38.4192 19.4753 38.326C19.5046 38.2327 19.5747 38.1602 19.6449 38.0876L20.5511 37.1602C20.7615 36.9426 21.2 36.7664 21.5215 36.7664C22.8603 36.7509 24.2401 37.2846 25.5146 36.9011C25.8302 36.8079 26.1284 36.6525 26.4616 36.6265C26.789 36.6006 27.1807 36.7561 27.2392 37.0462C27.9641 37.4141 28.4669 37.9996 28.9872 38.585C29.414 39.0617 29.8349 39.5384 30.2617 40.015C30.5014 40.2845 30.7996 40.5798 31.1854 40.5746C31.4134 40.5694 31.6122 40.4554 31.7993 40.3466C32.3138 40.0306 32.7932 39.6731 33.2199 39.269C34.1203 39.7249 35.0206 40.1446 35.9151 40.6005C36.1898 40.7404 36.4705 40.8855 36.6985 41.0824C37.1369 41.4606 37.3533 42.0046 37.4234 42.5487C37.4936 43.0927 37.4351 43.6419 37.4 44.1859C37.3649 44.8595 37.3766 45.533 37.4351 46.2014C37.4819 46.7972 37.5696 47.3983 37.7917 47.963C37.9496 48.3671 38.1659 48.7454 38.3705 49.134C39.1948 50.7401 39.6567 52.4966 39.721 54.2634C39.7502 55.0302 39.3118 55.7711 39.2591 56.5431C39.2416 56.8177 39.2942 57.0923 39.2416 57.3669C39.1773 57.7658 38.8967 58.1285 38.8967 58.5327C38.8967 58.6829 38.9434 58.8435 39.0779 58.9368C39.1656 58.9938 39.2767 59.0145 39.3761 59.0352C39.8847 59.1337 40.4167 59.2632 40.7558 59.6104C40.8493 59.7036 40.9195 59.8124 41.0247 59.8953C41.2644 60.0922 41.6093 60.1337 41.9309 60.1596C42.9657 60.2476 44.018 60.2476 45.0587 60.1596C45.3919 60.1285 45.7953 60.0456 45.8947 59.7554C45.9239 59.6673 45.9181 59.5741 45.9122 59.4808C45.8713 58.8902 45.7836 58.2684 45.3685 57.8125C45.082 57.4912 44.6611 57.2892 44.3571 56.9835C43.9712 56.6001 43.7959 56.0923 43.6322 55.5949C43.5562 55.3721 43.4802 55.1442 43.3165 54.9628C43.2346 54.8747 43.1352 54.797 43.0534 54.7038C42.8663 54.4913 42.7961 54.2012 42.574 54.0198C42.5214 53.8851 42.4804 53.7711 42.4278 53.6364C42.4921 53.139 42.4804 52.6105 42.4863 52.1132C42.4921 51.6261 42.4687 51.1391 42.4629 50.6521C42.4512 49.564 42.5214 48.4759 42.5974 47.3827C42.7318 45.3828 42.4044 43.3776 41.6561 41.4865C41.3346 40.6679 41.1358 39.8182 41.1533 38.9374C41.1592 38.6058 41.1066 38.2742 40.9546 37.9737C40.2296 36.5385 38.809 35.5437 37.9613 34.1655C37.3942 33.2484 36.1665 32.7717 35.4708 31.9272C35.2837 31.694 35.1083 31.4505 34.9037 31.2277C34.243 30.4972 33.2433 29.9635 32.9218 29.0724C32.875 28.9428 32.8458 28.8133 32.7756 28.6993C32.5359 28.3055 31.9571 28.2226 31.4661 28.1864C31.4368 28.1138 31.3024 28.119 31.2205 28.1035C31.1153 28.0879 31.0977 27.9584 31.1036 27.8651C31.1328 26.9895 31.1854 26.1191 31.2556 25.2486C31.3141 24.5336 31.3842 23.8134 31.3901 23.0932C31.3901 22.342 31.3199 21.5959 31.2556 20.8498C31.0977 19.1763 31.8227 17.6374 31.9922 15.9639C32.2319 15.7826 32.5593 15.8085 32.8633 15.7359C34.0267 15.4613 34.9329 14.679 35.9268 14.0728C37.0376 13.3889 38.2828 12.9174 39.5222 12.4459C42.0303 11.4925 44.4506 10.306 46.7424 8.98483C46.9938 8.83976 47.2452 8.69468 47.5082 8.57034C47.8181 8.42008 48.1338 8.29055 48.4553 8.16102C49.0049 7.93305 49.5544 7.71026 50.104 7.48746C50.408 7.36311 50.712 7.34239 51.0277 7.25431C51.9222 7.01079 52.4016 6.14553 53.1791 5.67922C53.4188 5.53933 53.6878 5.43053 53.9158 5.27509C54.1438 5.11966 54.3367 4.89168 54.3425 4.63262C54.3425 4.53418 54.3075 4.42019 54.2081 4.36838ZM19.4403 51.0044C19.4812 50.9785 19.5046 50.9422 19.5455 50.9215C19.6507 50.8541 19.791 50.8852 19.9021 50.9422C20.0132 50.994 20.1184 51.0717 20.2412 51.0976C20.4283 51.1339 20.6271 51.0458 20.7498 50.9111C20.8785 50.7764 20.9428 50.6054 21.0012 50.4396C21.2117 50.5225 21.3695 50.6935 21.4514 50.8852C21.5332 51.0769 21.5508 51.2842 21.5508 51.4914C21.5449 51.6831 21.5215 51.88 21.4514 52.0613C21.3403 52.367 21.1065 52.6157 20.8785 52.8592C20.7498 52.9991 20.6212 53.139 20.4926 53.2789C19.9898 52.823 19.2532 52.6002 18.5458 52.6468C17.8325 52.6934 17.1544 52.9991 16.6574 53.4551C16.3417 53.0976 16.0202 52.7401 15.7045 52.3826C15.57 52.2271 15.4297 52.0717 15.3479 51.8904C15.19 51.5432 15.2602 51.1235 15.494 50.8075C15.687 50.5588 16.0494 50.2946 16.3944 50.2479C16.6048 50.2168 16.599 50.2997 16.7159 50.4552C16.8211 50.6002 16.9498 50.7298 17.1018 50.8438C17.2304 50.9422 17.4467 51.0251 17.5636 50.9111C17.5987 50.88 17.6162 50.8438 17.6513 50.8179C17.7332 50.7557 17.8618 50.7971 17.9612 50.8438C18.1366 50.9267 18.3529 51.0303 18.5224 50.9318C18.5692 50.9111 18.6043 50.8697 18.6569 50.8541C18.7796 50.8127 18.9024 50.9111 19.0135 50.9733C19.1421 51.051 19.3175 51.0873 19.4403 51.0044Z" fill="#F1F1F1"/>
</svg>
