<svg width="43" height="45" viewBox="0 0 43 45" fill="none" xmlns="http://www.w3.org/2000/svg">
<path d="M0.820312 41.2091H42.7114V44.2185H0.820312V41.2091ZM34.4828 15.629H9.79698C9.00364 15.6298 8.24302 15.9471 7.68204 16.5113C7.12106 17.0755 6.80555 17.8405 6.80476 18.6384V30.6761C6.80714 32.6708 7.59603 34.583 8.99839 35.9934C10.4008 37.4039 12.3021 38.1973 14.2853 38.1997H26.2542C28.2375 38.1973 30.1388 37.4039 31.5411 35.9934C32.9435 34.583 33.7324 32.6708 33.7348 30.6761V29.1714H34.4828C36.2684 29.1714 37.9808 28.458 39.2434 27.1882C40.506 25.9183 41.2153 24.196 41.2153 22.4002C41.2153 20.6044 40.506 18.8821 39.2434 17.6123C37.9808 16.3424 36.2684 15.629 34.4828 15.629ZM30.7426 30.6761C30.7414 31.873 30.2681 33.0205 29.4266 33.8668C28.5852 34.7131 27.4442 35.1891 26.2542 35.1902H14.2853C13.0953 35.1891 11.9544 34.7131 11.1129 33.8668C10.2714 33.0205 9.79817 31.873 9.79698 30.6761V18.6384H30.7426V30.6761ZM34.4828 26.162H33.7348V18.6384H34.4828C35.4748 18.6384 36.4262 19.0348 37.1276 19.7402C37.829 20.4457 38.2231 21.4025 38.2231 22.4002C38.2231 23.3979 37.829 24.3547 37.1276 25.0602C36.4262 25.7657 35.4748 26.162 34.4828 26.162ZM26.2542 12.6196H23.262V12.3999C23.2642 11.8406 23.1105 11.2919 22.8182 10.8161C22.526 10.3403 22.107 9.95638 21.6088 9.70798L17.5917 7.69016C16.5956 7.19293 15.7579 6.42502 15.1735 5.47346C14.5891 4.5219 14.2814 3.42474 14.2853 2.30631V0.581909H17.2775V2.30631C17.2757 2.8655 17.4296 3.41405 17.7218 3.88981C18.0139 4.36558 18.4327 4.74955 18.9307 4.99823L22.9463 7.01605C23.9426 7.51321 24.7805 8.28106 25.3651 9.23261C25.9498 10.1841 26.2578 11.2814 26.2542 12.3999V12.6196Z" fill="#EBEBEB"/>
</svg>
