<svg width="37" height="38" viewBox="0 0 37 38" fill="none" xmlns="http://www.w3.org/2000/svg">
<path d="M19.0464 0.528568C17.0978 0.536657 15.172 0.701683 13.504 0.950839L14.2773 3.96337C17.4542 3.26929 20.775 3.49256 24.1111 3.97146L24.7025 1.06409C22.9586 0.674178 20.9949 0.521287 19.0464 0.528568ZM12.3439 1.84554C11.563 2.05748 10.7972 2.30907 10.0694 2.59867C9.44764 2.8454 9.06096 3.37526 8.62121 4.0653C8.18145 4.75452 7.72654 5.63628 7.26404 6.65636C6.33146 8.69492 5.3587 11.2755 4.46782 13.8237C3.60879 16.2829 2.83164 18.6935 2.25314 20.5379C2.71336 20.1496 3.28201 19.8989 3.88932 19.9151C4.41475 18.2648 5.05315 16.3152 5.7469 14.3333C6.62868 11.8094 7.59765 9.25309 8.49231 7.29543C8.93965 6.30851 9.37182 5.47449 9.75092 4.88638C10.13 4.29504 10.5015 3.97874 10.5394 3.96256C11.2294 3.68994 11.9497 3.45535 12.6927 3.25716L12.3439 1.84554ZM25.8549 2.26862L25.5592 3.71098C26.416 4.03294 27.2273 4.42366 27.9855 4.88314C28.2053 5.01419 28.6299 5.49876 29.0621 6.25998C29.4867 7.02039 29.9492 8.03158 30.4041 9.20455C31.3291 11.5424 32.2541 14.5113 33.0805 17.4154C33.3156 18.2567 33.5506 19.0899 33.7705 19.8989C34.324 19.9798 34.8395 20.2629 35.249 20.6674C35.3172 20.7321 35.3778 20.7968 35.4385 20.8696C35.1125 19.6319 34.7637 18.3214 34.3846 16.9947C33.5582 14.0583 32.618 11.057 31.6627 8.63829C31.1926 7.42486 30.7074 6.36514 30.2297 5.50684C29.7445 4.65259 29.282 3.99654 28.6678 3.61957C27.7808 3.08242 26.8406 2.63426 25.8549 2.26862ZM23.4136 14.8591L13.8376 14.9481L13.7997 14.9562C11.5023 15.2151 9.75092 17.4235 9.42489 20.2953C9.88739 20.3195 10.3423 20.3438 10.7896 20.36C11.0778 18.1111 12.4122 16.5822 13.9361 16.4042L23.2847 16.3152C24.4674 16.5256 25.7336 17.8199 26.0597 20.271C26.507 20.2467 26.9619 20.2305 27.4244 20.2063C27.0529 17.1727 25.4152 15.1908 23.4666 14.8672L23.4136 14.8591ZM33.4141 21.3388C31.4049 21.4521 29.4943 21.5653 27.6519 21.6543C28.8498 26.5889 28.7967 31.572 28.7891 36.4743C30.9955 36.2477 33.2625 35.9808 35.6129 35.6815C35.6584 35.6734 35.7797 35.6249 35.9541 35.2689C36.1285 34.9211 36.2953 34.3467 36.4014 33.6348C36.6213 32.2111 36.644 30.2777 36.4545 28.3605C36.2574 26.4514 35.8403 24.5584 35.2641 23.2317C34.976 22.5684 34.65 22.0507 34.3315 21.7433C34.0055 21.4359 33.7326 21.3226 33.4141 21.3388ZM3.77635 21.3712C3.51781 21.3793 3.29262 21.4925 3.02422 21.7595C2.71716 22.0588 2.39568 22.5765 2.11515 23.2398C1.55485 24.5746 1.15452 26.4918 0.955114 28.4333C0.75571 30.3748 0.752677 32.3486 0.927819 33.8128C1.01501 34.5409 1.15149 35.1476 1.29782 35.5116C1.44491 35.8837 1.56849 35.908 1.48054 35.8918C3.78318 36.3044 6.02591 36.6037 8.24211 36.814C7.81752 32.1059 7.97674 27.1228 9.14436 21.7352C7.46875 21.6543 5.72415 21.533 3.89008 21.3793C3.85141 21.3793 3.8135 21.3712 3.77635 21.3712ZM26.2568 21.719C20.9191 21.9617 16.0363 22.0507 10.5243 21.808C9.31875 27.228 9.16711 32.1868 9.62202 36.9354C15.5208 37.3884 21.2679 37.1861 27.4244 36.6037C27.432 31.5397 27.4851 26.5404 26.2568 21.719Z" fill="#F9F9F9"/>
</svg>
