<svg width="45" height="43" viewBox="0 0 45 43" fill="none" xmlns="http://www.w3.org/2000/svg">
<path d="M10.4547 19.219L6.49016 22.7154C6.26485 22.9141 6.1277 23.1942 6.10889 23.494C6.09008 23.7938 6.19114 24.0888 6.38984 24.3141L17.3784 36.7741C17.4768 36.8856 17.5962 36.9767 17.7298 37.0421C17.8634 37.1076 18.0085 37.146 18.157 37.1553C18.3054 37.1647 18.4543 37.1446 18.595 37.0964C18.7357 37.0482 18.8656 36.9728 18.9771 36.8744L22.9416 33.378C23.0532 33.2796 23.1443 33.1602 23.2097 33.0266C23.2751 32.893 23.3136 32.7479 23.3229 32.5994C23.3322 32.4509 23.3122 32.3021 23.264 32.1614C23.2158 32.0207 23.1403 31.8908 23.0419 31.7792L12.0534 19.3193C11.8547 19.094 11.5746 18.9569 11.2748 18.938C10.975 18.9192 10.68 19.0203 10.4547 19.219V19.219ZM27.4454 4.23454L23.4809 7.73091C23.2556 7.92962 23.1184 8.20969 23.0996 8.50952C23.0808 8.80935 23.1818 9.10437 23.3806 9.32968L34.3691 21.7896C34.4675 21.9012 34.5869 21.9923 34.7205 22.0577C34.8541 22.1231 34.9992 22.1616 35.1477 22.1709C35.2961 22.1802 35.445 22.1602 35.5857 22.112C35.7264 22.0638 35.8563 21.9883 35.9678 21.8899L39.9323 18.3936C40.0439 18.2952 40.135 18.1758 40.2004 18.0422C40.2658 17.9086 40.3043 17.7634 40.3136 17.6149C40.3229 17.4665 40.3029 17.3176 40.2547 17.1769C40.2065 17.0362 40.131 16.9063 40.0327 16.7948L29.0441 4.33486C28.8454 4.10954 28.5653 3.9724 28.2655 3.95358C27.9657 3.93477 27.6707 4.03583 27.4454 4.23454V4.23454Z" stroke="#F9F9F9" stroke-width="2.83179" stroke-linecap="round" stroke-linejoin="round"/>
<path d="M16.9386 26.4933L28.2657 16.5037M10.0242 38.6324L4.03047 31.8361C3.83176 31.6108 3.7307 31.3158 3.74951 31.016C3.76833 30.7161 3.90547 30.4361 4.13079 30.2373L6.67939 27.9897C6.9047 27.791 7.19972 27.6899 7.49954 27.7087C7.79937 27.7275 8.07944 27.8647 8.27815 28.09L14.2719 34.8863C14.4706 35.1116 14.5717 35.4067 14.5528 35.7065C14.534 36.0063 14.3969 36.2864 14.1716 36.4851L11.623 38.7328C11.3977 38.9315 11.1026 39.0325 10.8028 39.0137C10.503 38.9949 10.2229 38.8578 10.0242 38.6324V38.6324ZM41.1738 11.1609L35.1801 4.3646C34.9814 4.13929 34.7013 4.00214 34.4015 3.98333C34.1017 3.96451 33.8067 4.06558 33.5813 4.26428L31.0327 6.51195C30.8074 6.71066 30.6703 6.99073 30.6515 7.29056C30.6327 7.59038 30.7337 7.8854 30.9324 8.11072L36.9262 14.907C37.1249 15.1324 37.4049 15.2695 37.7048 15.2883C38.0046 15.3071 38.2996 15.2061 38.5249 15.0074L41.0735 12.7597C41.2988 12.561 41.436 12.2809 41.4548 11.9811C41.4736 11.6813 41.3725 11.3862 41.1738 11.1609V11.1609Z" stroke="#F9F9F9" stroke-width="2.83179" stroke-linecap="round" stroke-linejoin="round"/>
</svg>
