<svg width="36" height="36" viewBox="0 0 36 36" fill="none" xmlns="http://www.w3.org/2000/svg">
<path d="M4.29562 35.3103C3.33561 35.3103 2.51408 34.9688 1.83102 34.2857C1.1468 33.6015 0.804688 32.7794 0.804688 31.8194V10.8738C0.804688 9.91378 1.1468 9.09225 1.83102 8.40919C2.51408 7.72497 3.33561 7.38286 4.29562 7.38286H9.79383L13.0229 3.89193H23.4957V9.12832C24.4557 9.12832 25.2778 9.47043 25.9621 10.1547C26.6451 10.8377 26.9866 11.6592 26.9866 12.6192H35.714V31.8194C35.714 32.7794 35.3724 33.6015 34.6894 34.2857C34.0052 34.9688 33.183 35.3103 32.223 35.3103H4.29562ZM18.2593 29.2012C20.4412 29.2012 22.296 28.4378 23.8239 26.9111C25.3506 25.3832 26.1139 23.5284 26.1139 21.3466C26.1139 19.1647 25.3506 17.3099 23.8239 15.782C22.296 14.2553 20.4412 13.492 18.2593 13.492C16.0775 13.492 14.2227 14.2553 12.6948 15.782C11.1681 17.3099 10.4047 19.1647 10.4047 21.3466C10.4047 23.5284 11.1681 25.3832 12.6948 26.9111C14.2227 28.4378 16.0775 29.2012 18.2593 29.2012ZM18.2593 25.7102C17.0375 25.7102 16.0048 25.2884 15.1611 24.4448C14.3175 23.6011 13.8957 22.5684 13.8957 21.3466C13.8957 20.1247 14.3175 19.092 15.1611 18.2484C16.0048 17.4047 17.0375 16.9829 18.2593 16.9829C19.4812 16.9829 20.5139 17.4047 21.3575 18.2484C22.2012 19.092 22.623 20.1247 22.623 21.3466C22.623 22.5684 22.2012 23.6011 21.3575 24.4448C20.5139 25.2884 19.4812 25.7102 18.2593 25.7102ZM33.3576 10.8738C33.3576 8.60468 32.5721 6.68467 31.0012 5.11375C29.4303 3.54284 27.5103 2.75738 25.2412 2.75738V0.401001C28.1503 0.401001 30.623 1.41919 32.6594 3.45556C34.6958 5.49194 35.714 7.96468 35.714 10.8738H33.3576ZM28.7321 10.8738C28.7321 9.91378 28.3906 9.09225 27.7075 8.40919C27.0233 7.72497 26.2012 7.38286 25.2412 7.38286V5.02648C26.8412 5.02648 28.2009 5.59376 29.3203 6.72831C30.4409 7.86286 31.0303 9.24469 31.0885 10.8738H28.7321Z" fill="#EBEBEB"/>
</svg>
