<svg width="68" height="124" viewBox="0 0 68 124" fill="none" xmlns="http://www.w3.org/2000/svg">
<path d="M29.3866 34.4646C29.3753 34.4646 29.3527 34.2988 30.0978 33.7795C30.1091 33.7906 30.1203 33.8127 30.1203 33.8348C30.2332 34.0889 30.3123 34.2988 30.3913 34.4977C29.5785 34.5972 29.4091 34.5198 29.3866 34.4646ZM29.0027 32.6525C29.1269 32.5752 29.3414 32.4868 29.6462 32.3542C29.6575 32.4094 29.6688 32.4647 29.6801 32.5089C29.364 32.5752 29.1495 32.6194 29.0027 32.6525ZM23.6969 47.0385C23.6969 47.0385 21.2698 45.4696 20.1973 44.6519C18.6169 43.4586 15.7608 39.3704 15.7608 39.3704C16.5397 40.4201 24.4984 44.1989 24.4984 44.1989L23.6969 47.0385ZM64.7775 110.582C64.3937 110.317 63.0729 109.919 62.6326 109.621C60.5441 108.174 58.4218 106.041 57.1913 104.185C54.9222 100.771 52.8112 98.5167 50.0454 97.235C48.2504 96.4063 47.0087 97.003 46.8393 94.7379C46.8393 94.2959 45.6653 92.9037 45.3266 92.5833C44.5138 91.7215 44.8863 84.7052 44.8637 83.5672C44.8073 81.6335 44.1413 82.9594 44.2316 81.0148C44.367 77.9763 44.8637 73.0041 43.5204 70.2971C42.6285 68.4961 44.7621 69.5678 44.7509 67.6784C44.7283 65.9216 43.8477 64.1095 44.5025 62.3969C45.7443 58.9496 44.5815 55.005 45.8798 51.4693C47.6634 46.6629 47.686 43.8785 45.383 39.3152C44.4912 37.5031 44.1638 37.2711 44.7283 35.459C45.654 32.542 42.8543 34.7629 41.8496 33.5475C41.1497 32.4094 42.7075 31.8901 42.4818 27.6141C42.3576 25.0728 42.0076 21.7912 38.3048 20.8741C34.4553 19.9128 29.7252 21.6365 28.9802 25.9236C28.9237 26.2661 28.8898 28.0892 28.8898 28.0892C28.8898 28.0892 27.5013 29.0947 27.3433 29.3819C26.9143 30.1996 28.4383 29.7024 29.4091 29.7134C29.3414 30.5421 29.4204 31.3377 29.5898 32.1221C28.506 32.5752 28.4721 32.6746 28.5173 32.7961C28.5399 32.8514 28.5512 32.8956 28.7318 32.8956C28.8898 32.8956 29.1946 32.8624 29.7365 32.7409C29.8155 33.0061 29.9171 33.2823 30.0187 33.5475C29.3188 34.0226 29.0592 34.332 29.1608 34.564C29.2172 34.6745 29.3753 34.774 29.8042 34.774C29.9736 34.774 30.1994 34.7519 30.459 34.7187C30.7412 35.5695 30.3913 35.3154 29.6462 36.365C28.7318 37.6688 27.3207 38.7075 27.3207 38.7075C27.3207 38.7075 25.3112 37.9119 24.0243 37.2711C23.3582 36.9285 21.0327 35.8568 19.3619 35.0612C18.4475 34.6303 17.646 34.6082 17.5783 34.0779C17.2961 32.995 18.0073 31.0614 18.2443 29.8129C18.4475 28.7411 18.1766 28.277 18.1766 28.277C18.1766 28.277 27.0949 16.3771 29.0479 8.41059C29.7026 5.75879 30.2671 3.59315 30.0865 1.63744C29.9849 0.598821 29.285 0.76456 28.4721 0.797705C28.1448 0.819805 27.7271 0.963444 27.6029 1.37226C26.8917 3.73679 26.1015 5.76984 25.7176 6.78636C23.076 13.8247 19.5313 20.8188 16.043 27.4704C15.7946 27.9456 13.074 27.7356 12.3402 28.0892C10.7259 28.7853 11.3016 28.6306 10.263 30.2659C9.85662 30.8957 8.06167 33.1497 8.28745 33.89C8.43421 34.4977 7.62141 35.2159 7.66656 35.9894C7.79074 38.2876 5.2733 42.0443 9.22444 43.094C10.0937 43.326 11.3919 43.315 12.1144 43.8785C13.5255 44.9724 12.5208 44.9724 13.2207 46.0883C14.4964 48.1656 16.8445 50.5522 18.0524 51.8449C19.441 53.3366 21.3714 54.9166 22.2632 55.2149C22.7938 55.3917 22.9405 55.1045 22.3761 54.0769C23.5389 54.4305 25.5483 53.1046 25.5483 53.1046C25.5483 53.1046 25.0967 58.1982 24.7016 60.6622C24.4646 62.1207 23.2905 63.1372 23.0309 64.5294C22.9518 64.9272 24.0582 67.6895 24.3065 67.5237C23.6405 68.021 22.2858 67.5348 21.4504 68.0651C20.4118 68.717 19.678 69.7888 19.4071 70.9711C19.0346 72.5732 16.6187 74.54 15.614 75.8106C12.7014 79.479 10.0824 82.3849 8.50194 86.9261C7.74558 85.4013 4.06538 79.711 3.17355 84.2743C2.78972 86.1858 2.92519 87.6443 2.57523 89.4453C2.47363 90.1193 2.05594 90.9259 1.79629 91.5336C1.5818 92.0087 2.47363 96.5168 2.75585 96.9367C3.89604 98.6935 3.79444 97.909 4.35889 99.9641C5.00236 102.262 5.6797 104.516 6.71829 106.671C7.06824 107.4 8.08425 108.671 7.723 109.566C7.06824 111.157 7.22629 112.085 7.22629 112.085C6.37962 112.737 4.5508 114.063 2.94777 114.991C-1.86134 116.891 0.294856 120.759 6.15384 120.759C8.61483 120.759 9.72115 119.974 11.042 118.383C12.216 116.991 14.9931 117.831 16.63 117.499C20.8408 116.637 18.0976 113.367 18.1314 110.428C15.8624 107.732 17.4315 104.958 17.5331 101.831C17.5896 99.8537 17.3299 94.7379 17.3299 94.7379C17.3299 94.7379 21.7213 91.6883 23.7985 89.9867C25.6386 88.484 27.2868 87.5559 28.8334 85.7659C30.1994 88.484 34.7827 94.981 34.7827 94.981C34.7827 94.981 33.4054 95.6881 33.1006 95.8649C32.5249 96.2074 31.8814 96.2295 32.8636 97.9532C33.6651 99.3675 35.8664 100.959 36.2277 102.373C36.3067 102.682 40.2466 105.809 41.0932 106.074C41.7141 106.262 42.4027 106.163 42.9898 106.384C44.1413 106.826 45.383 108.229 46.3878 108.936C47.9569 110.041 54.2788 112.892 54.5723 114.781C54.8432 116.615 56.4914 117.124 56.0511 119.477C55.7915 120.891 55.0351 123.687 57.2816 123.797C59.0201 123.897 61.4247 122.615 62.3278 121.234C64.7662 117.466 63.1293 116.869 64.5404 115.709C65.7258 114.726 65.8161 115.345 67.0014 112.527C67.3288 111.754 65.1162 110.814 64.7775 110.582Z" fill="#F1F1F1"/>
</svg>
