<svg width="108" height="99" viewBox="0 0 108 99" fill="none" xmlns="http://www.w3.org/2000/svg">
<path d="M73.5762 66.0713C73.0996 65.0244 72.3016 64.1346 71.2597 63.5274L53.3812 52.9435C53.3258 53.2994 53.2372 53.6554 53.1152 54.0008L49.5684 63.9147L63.2127 71.9862L73.809 95.52C74.7733 97.6556 77.0123 98.9432 79.3621 98.9432C80.1269 98.9432 80.9138 98.8071 81.6786 98.514C84.7378 97.331 86.1787 94.0648 84.904 91.2173L73.5762 66.0713Z" fill="#F1F1F1"/>
<path d="M69.6974 10.6182C69.6974 11.9477 69.4203 13.2249 68.8661 14.4498C68.323 15.6851 67.536 16.7738 66.5274 17.7055C65.5077 18.6477 64.3439 19.3805 63.0138 19.883C61.6948 20.396 60.3093 20.6473 58.8795 20.6473C57.4386 20.6473 56.0641 20.396 54.7341 19.883C53.4151 19.3805 52.2402 18.6477 51.2315 17.7055C50.2118 16.7738 49.4359 15.6851 48.8817 14.4498C48.3386 13.2249 48.0615 11.9477 48.0615 10.6182C48.0615 9.27819 48.3386 8.001 48.8817 6.77615C49.4359 5.54084 50.2118 4.45209 51.2315 3.52037C52.2402 2.57818 53.4151 1.84536 54.7341 1.34286C56.0641 0.829895 57.4386 0.578644 58.8795 0.578644C60.3093 0.578644 61.6948 0.829895 63.0138 1.34286C64.3439 1.84536 65.5077 2.57818 66.5274 3.52037C67.536 4.45209 68.323 5.54084 68.8661 6.77615C69.4203 8.001 69.6974 9.27819 69.6974 10.6182Z" fill="#F1F1F1"/>
<path d="M52.5605 51.907C53.3253 48.9025 53.8462 46.2539 54.1566 43.7623C54.1012 43.71 54.0457 43.6786 54.0014 43.6262L41.3768 31.5453C40.4568 30.6659 39.9691 29.5039 39.9802 28.279C40.0023 27.0542 40.5344 25.9026 41.4876 25.0442C42.4187 24.2172 43.6379 23.7565 44.9347 23.7565C46.287 23.7565 47.5505 24.2486 48.4927 25.1489L53.5359 29.975C53.3474 29.0223 53.1479 28.0487 52.9041 27.0228C51.308 20.2704 45.6552 17.58 41.4654 18.0929C40.7893 18.1662 40.1686 18.3756 39.5922 18.6687C39.4703 18.7106 39.3484 18.7629 39.2154 18.8153L23.9417 25.8398C23.1326 26.2062 22.4897 26.8343 22.1239 27.5986L15.7285 41.1556C14.875 42.9667 15.7506 45.0709 17.7014 45.8561C18.2002 46.0655 18.7322 46.1597 19.2421 46.1597C20.7273 46.1597 22.135 45.3641 22.7668 44.0241L28.608 31.6604L35.6574 28.4151C36.2005 34.7487 37.3754 43.7937 35.3471 51.2266C34.4493 55.948 35.3693 57.4241 37.8299 58.0836L33.7288 69.5469L9.01158 60.6485C5.91915 59.5283 2.43879 60.9521 1.23063 63.8205C0.0335667 66.6994 1.57424 69.9238 4.66666 71.0439L35.2695 82.0676C35.9789 82.3188 36.7104 82.4444 37.453 82.4444C38.3287 82.4444 39.1932 82.2665 40.0023 81.9105C41.4987 81.2615 42.6292 80.068 43.1502 78.6233L52.0617 53.6763C52.2058 53.2994 52.2945 52.912 52.3388 52.5247C52.4164 52.3258 52.4829 52.1269 52.5605 51.907Z" fill="#F1F1F1"/>
<path d="M107.494 88.5058C107.638 89.5736 107.549 90.6205 107.239 91.6569C106.928 92.6933 106.418 93.6355 105.709 94.4834C105 95.3314 104.135 96.0119 103.126 96.5458C102.118 97.0692 101.043 97.4042 99.8899 97.5298C98.7372 97.6659 97.6066 97.5822 96.4982 97.2995C95.3787 97.0064 94.3701 96.5353 93.4501 95.8758C92.5412 95.2163 91.7986 94.4102 91.2333 93.4784C90.657 92.5467 90.3023 91.5417 90.1693 90.4739C90.0252 89.4061 90.1139 88.3592 90.4242 87.3228C90.7346 86.2864 91.2444 85.3442 91.9538 84.4962C92.6632 83.6587 93.5277 82.9678 94.5364 82.4339C95.545 81.9104 96.6202 81.5754 97.7729 81.4498C98.9145 81.3242 100.056 81.3975 101.165 81.6801C102.284 81.9733 103.293 82.4444 104.213 83.1144C105.122 83.7739 105.864 84.5695 106.429 85.5012C107.006 86.4434 107.361 87.438 107.494 88.5058Z" fill="#F1F1F1"/>
<path d="M47.6961 25.8607C46.2219 24.4474 43.7835 24.416 42.265 25.7874C40.7354 27.1588 40.7021 29.4201 42.1763 30.8334L54.8009 42.9143C55.5325 43.6157 56.53 43.9926 57.5608 43.9926C57.8823 43.9926 58.2148 43.9612 58.5473 43.8775L78.2324 39.02C80.283 38.507 81.5022 36.5493 80.9591 34.644C80.416 32.7492 78.31 31.6081 76.2484 32.121L58.7468 36.4446L47.6961 25.8607Z" fill="#F1F1F1"/>
</svg>
