<svg width="120" height="99" viewBox="0 0 120 99" fill="none" xmlns="http://www.w3.org/2000/svg">
<path d="M44.3833 0.709873C43.7526 0.746339 42.415 1.71876 42.415 1.71876L41.284 2.90997C41.284 2.90997 39.2721 4.59954 39.0002 4.72109C38.7283 4.84265 37.2058 5.49903 36.7708 5.68136C36.3358 5.86368 36.1183 6.47144 36.1183 6.47144C36.1183 6.47144 35.8356 6.82395 36.2706 7.00627C36.7056 7.1886 36.7056 7.72343 37.0318 7.84498C37.3581 7.96654 37.5865 9.04835 37.5865 9.04835C37.5865 9.04835 37.9671 12.5247 37.9671 13.2419C37.9671 13.9712 38.5108 13.6187 38.5108 13.6187L39.0002 14.1535C39.0002 14.1535 38.9458 15.5271 39.0002 15.7702C39.0546 16.0133 38.7827 17.4476 38.7827 17.4476L39.5331 17.7515L39.9137 18.6631L39.979 19.5505L41.0121 20.2798L41.1208 21.1185L41.8821 21.787L42.1975 22.6743L42.8608 23.7562L44.0571 23.6468L46.2212 22.6743L46.1233 24.1208L45.2425 25.4336C45.2425 25.4336 44.4812 27.0016 43.9375 28.5575C43.3937 30.1255 44.9271 31.572 45.1446 32.2891C45.3621 33.0184 47.9612 37.8076 47.9612 37.8076C47.9612 37.8076 48.3962 40.3359 48.2875 41.1746C48.1787 42.0133 49.4837 47.0577 49.4837 47.0577L49.1684 49.1119L47.6458 51.9927L46.6671 57.1465L42.9587 64.8408L41.4362 65.5579L39.1525 66.2873L37.5321 70.0068L36.8796 71.3317L38.0758 71.9273L28.9408 76.8623L7.96289 89.3457C7.96289 89.3457 5.78789 90.5491 4.80913 90.9137C3.83038 91.2662 4.26538 90.1966 4.15663 89.7104C4.04788 89.2363 4.49376 88.6285 4.49376 88.0329C4.49376 87.4252 3.61288 86.708 3.61288 86.708C3.61288 86.708 2.63413 86.8174 1.76413 87.4252C0.894125 88.0208 1.11163 88.8717 1.00288 89.4673L0.6875 91.3878C0.6875 91.3878 1.54663 93.4906 1.76413 93.673C1.98163 93.8553 4.91788 94.8763 4.91788 94.8763L10.7904 91.9955L22.1983 85.2616L31.7683 78.7828L37.0318 75.5982L38.5108 75.1727C38.5108 75.1727 39.4352 75.9628 39.544 76.2545C39.6527 76.5584 40.7946 74.8688 40.7946 74.8688L42.5346 74.3826L44.9271 73.1306L46.6018 70.2499L52.2025 66.8829L54.16 67.9039L54.334 67.0044L54.16 65.801L55.3562 66.5911L56.0087 65.9226L57.5312 65.5579C57.5312 65.5579 59.1081 64.6585 59.3256 64.5977C59.5431 64.5369 60.5763 61.5953 60.5763 61.5953L60.6306 59.2494L61.1744 59.0184L61.555 57.6935L64.165 54.752L65.905 52.9408L68.4063 49.1119L70.69 45.0886L72.0929 45.5626L72.9738 46.5229L71.2773 48.9296L69.0479 51.5673L67.1556 54.752L65.8506 57.6327L66.166 60.2218L68.2323 63.9413L70.4725 67.7216L70.4181 69.399L72.4192 74.0909L76.0623 83.4018L77.041 85.7964L77.0954 87.8992L76.2798 89.528C76.2798 89.528 75.4098 91.1447 75.3554 91.4486C75.301 91.7403 74.431 92.8221 74.3223 93.126C74.2135 93.4299 72.4735 94.694 72.0929 94.9371C71.7123 95.1802 71.6035 95.946 71.4948 96.2499C71.386 96.5537 72.7019 97.7571 72.9194 97.6963C73.1369 97.6356 75.3554 98.3041 75.3554 98.3041L78.8354 98.7174C78.8354 98.7174 81.7173 98.0002 81.5542 97.3925C81.391 96.7969 82.6417 96.2499 82.6417 96.2499L84.7079 96.5537L86.7198 95.0465C86.7198 95.0465 86.4479 92.4696 86.5023 92.2386C86.5567 91.9955 85.7411 89.4065 85.7411 89.4065C85.7411 89.4065 84.9254 87.6683 84.8167 87.3644C84.7079 87.0727 83.1854 82.32 83.1854 82.32L82.261 77.8712L81.826 74.2732C81.826 74.2732 81.0757 70.0068 80.9669 69.7636C80.8582 69.5205 79.4335 65.2054 79.1617 64.78C78.8898 64.3546 77.5304 63.2241 77.3673 62.981C77.2042 62.7379 76.6169 61.5346 76.5625 61.0605C76.5082 60.5743 76.8235 59.2008 76.8235 59.2008L78.9442 57.8151V58.7753L80.8473 61.2428C80.8473 61.2428 86.6654 67.4177 86.6654 67.6608C86.6654 67.9039 87.7529 69.4719 87.7529 69.4719L89.3298 70.6631L91.9942 71.0886C91.9942 71.0886 92.0486 71.5018 91.8854 71.9273C91.7223 72.3527 93.1361 73.1306 93.1361 73.1306L96.6052 74.6865C96.6052 74.6865 104.5 80.9951 104.555 81.2382C104.609 81.4813 106.175 82.7454 106.393 82.6846C106.61 82.6239 107.535 83.572 107.752 83.6328C107.97 83.6935 107.589 84.6659 107.317 85.2008C107.045 85.7478 107.698 86.2218 107.806 86.7688C107.915 87.3036 108.894 88.2031 108.948 88.6285C109.003 89.054 109.546 90.1236 109.818 90.6098C110.09 91.0839 110.416 92.5911 110.362 93.1868C110.308 93.7945 109.383 94.9857 108.894 95.4719C108.405 95.946 108.459 97.0886 108.35 97.5748C108.241 98.0488 109.057 98.0488 109.329 97.9881C109.601 97.9394 112.537 97.3925 112.537 97.3925L115.408 95.3504L116.724 93.0774V90.306C116.724 90.306 116.67 86.708 116.67 86.0395C116.67 85.3831 117.54 85.0792 118.192 84.4715C118.845 83.8759 118.79 83.5841 118.79 83.5841C118.79 83.5841 119.323 81.1774 119.432 80.752C119.541 80.3387 119.551 79.0745 119.551 78.3574C119.551 77.6402 118.736 77.3971 118.41 77.0932C118.083 76.8015 116.561 77.0325 116.071 76.9717C115.582 76.9109 113.679 76.9717 113.679 76.9717L111.286 76.3153L109.111 73.8478L105.316 70.7968L103.891 68.0255C103.891 68.0255 100.531 64.4761 100.15 64.1236C99.7698 63.759 98.5192 63.0418 97.8667 62.8595C97.2142 62.6772 95.7352 62.3247 95.4633 62.1423C95.1915 61.96 94.2236 59.5533 94.2779 59.3102C94.3323 59.0792 92.9621 55.1774 92.9621 55.1774L92.1029 50.838L90.3629 47.3616L90.7436 46.7052C90.7436 46.7052 91.7767 45.0764 91.9398 44.7847C92.1029 44.4808 92.7011 42.6818 92.7011 41.9039C92.7011 41.1138 92.8642 39.5579 92.7554 38.8894C92.6467 38.233 92.7554 35.2307 92.7011 34.8174C92.6467 34.392 92.0486 32.4714 91.7767 31.8029C91.5048 31.1465 89.0579 28.6304 88.6229 28.0226C88.1879 27.427 85.7954 25.6159 85.1429 25.2026C84.4904 24.7772 79.9773 21.6533 79.7598 21.471C79.5423 21.3008 71.3316 16.0741 71.3316 16.0741C71.3316 16.0741 66.2856 12.8286 65.47 12.78C64.6544 12.7192 59.4344 11.9899 59.4344 11.9899L56.8787 12.7071C56.8787 12.7071 54.4319 12.5247 54.16 12.1601C53.8881 11.8076 53.8881 11.1512 53.9969 10.8473C54.1056 10.5556 53.2356 8.98757 53.1269 8.74447C53.0181 8.51352 53.29 7.5411 53.29 7.5411L52.5287 5.98524C52.5287 5.98524 51.4412 4.35644 51.3869 4.06471C51.3325 3.76083 51.4521 2.61824 51.6696 2.49669C51.8871 2.37514 51.0062 1.84031 51.0062 1.84031L48.6681 1.65798L46.765 1.3541C46.765 1.3541 45.0358 1.06237 44.6008 0.758493C44.5465 0.722027 44.4703 0.697718 44.3833 0.709873ZM54.8125 35.9478L56.3894 36.2517L58.51 36.9689L60.7938 38.9502L64.3281 39.1933L64.3825 40.1049L63.6648 42.1348L59.815 51.2148L59.0537 51.7496L57.0419 55.9553L55.1931 58.0582C55.1931 58.0582 52.3112 61.5953 52.2025 61.8992C52.0937 62.2031 52.2025 63.8198 52.2025 63.8198L47.9068 66.2873L51.1694 61.4738L53.1921 58.7753L54.5406 55.0437C54.5406 55.0437 55.6825 51.6889 55.9 51.5673C56.1175 51.4457 56.1719 47.6047 56.1719 47.2522C56.1719 46.8875 55.9 42.0133 55.9 42.0133L54.8125 35.9478Z" fill="#F1F1F1"/>
</svg>
