<svg width="74" height="107" viewBox="0 0 74 107" fill="none" xmlns="http://www.w3.org/2000/svg">
<path d="M42.5125 17.1075C42.0253 19.0874 39.7244 20.5955 36.9675 20.5955C34.2105 20.5955 31.9096 19.0874 31.4225 17.1075H42.5125ZM71.2221 52.4488H50.2754C49.7054 45.7088 43.9635 40.3948 36.9675 40.3948C29.9714 40.3948 24.2191 45.7088 23.6595 52.4488H2.70248V2.55041H18.0315V16.0098C18.0315 16.6151 18.529 17.1075 19.1509 17.1075H29.1526C29.619 20.3082 32.946 22.8011 36.9675 22.8011C40.9889 22.8011 44.3055 20.3082 44.7719 17.1075H54.7944C55.4059 17.1075 55.9034 16.6151 55.9034 16.0098V2.55041H71.2221V52.4488ZM31.4225 89.9751C31.9096 87.9849 34.2105 86.4871 36.9675 86.4871C39.7244 86.4871 42.0253 87.9849 42.5125 89.9751H31.4225ZM55.9034 104.532V91.0625C55.9034 90.4573 55.4059 89.9751 54.7944 89.9751H44.7719C44.3055 86.7846 40.9889 84.2918 36.9675 84.2918C32.946 84.2918 29.619 86.7846 29.1526 89.9751H19.1509C18.529 89.9751 18.0315 90.4573 18.0315 91.0625V104.532H2.70248V54.6339H23.6595C24.2191 61.3841 29.9714 66.6981 36.9675 66.6981C43.9635 66.6981 49.7054 61.3841 50.2754 54.6339H71.2221V104.532H55.9034ZM48.7726 104.532V97.8333C48.7726 97.228 48.2751 96.7458 47.6636 96.7458H26.2713C25.6598 96.7458 25.1623 97.228 25.1623 97.8333V104.532H20.2599V92.1705H53.675V104.532H48.7726ZM27.3907 104.532V98.931H46.5442V104.532H27.3907ZM25.8775 52.4488C26.4475 46.9193 31.1944 42.5799 36.9675 42.5799C42.7301 42.5799 47.4874 46.9193 48.0471 52.4488H25.8775ZM48.0471 54.6339C47.4874 60.1736 42.7301 64.5027 36.9675 64.5027C31.1944 64.5027 26.4475 60.1736 25.8775 54.6339H48.0471ZM27.3907 2.55041H46.5442V8.15167H27.3907V2.55041ZM25.1623 2.55041V9.24935C25.1623 9.85461 25.6598 10.347 26.2713 10.347H47.6636C48.2751 10.347 48.7726 9.85461 48.7726 9.24935V2.55041H53.675V14.9224H20.2599V2.55041H25.1623ZM0.474121 1.46299V105.63C0.474121 106.235 0.971616 106.717 1.59348 106.717H72.3518C72.9633 106.717 73.4608 106.235 73.4608 105.63V1.46299C73.4608 0.85773 72.9633 0.365311 72.3518 0.365311H1.59348C0.971616 0.365311 0.474121 0.85773 0.474121 1.46299Z" fill="white"/>
</svg>
