<svg width="119" height="93" viewBox="0 0 119 93" fill="none" xmlns="http://www.w3.org/2000/svg">
<path d="M8.37527 24.3637L18.8159 28.3623L20.0226 30.2409C19.4245 30.7027 18.9838 31.3744 18.8369 32.1825C18.5221 33.9036 19.6764 35.5513 21.4077 35.8557L23.9471 36.307L24.5557 37.2515L25.563 36.6008L39.8022 39.1301C39.9911 39.1616 40.1799 39.1826 40.3583 39.1826C41.1348 39.1826 41.8798 38.8992 42.4674 38.385L50.778 31.0805L54.0519 50.895L55.3635 70.1007L37.9029 83.9016C35.7623 85.6018 35.4056 88.7083 37.1055 90.8493C38.0813 92.0772 39.5399 92.7174 40.9984 92.7174C42.0792 92.7174 43.1705 92.371 44.0834 91.6469L63.5796 76.2298C63.6111 76.2088 63.6321 76.1878 63.6531 76.1668C63.7685 76.0724 63.8734 75.9779 63.9679 75.8835C64.0098 75.8415 64.0518 75.81 64.0833 75.768C64.1882 75.6526 64.2932 75.5476 64.3876 75.4217C64.3981 75.4007 64.4191 75.3797 64.4401 75.3587C64.5555 75.2118 64.6604 75.0544 64.7549 74.8969C64.7654 74.876 64.7863 74.8445 64.7968 74.8235C64.8703 74.687 64.9437 74.5506 65.0067 74.4142C65.0277 74.3722 65.0487 74.3302 65.0592 74.2882C65.1221 74.1518 65.1746 74.0154 65.2166 73.8789C65.2271 73.837 65.248 73.8055 65.2585 73.7635C65.311 73.5851 65.353 73.4067 65.3845 73.2178C65.4159 73.0603 65.4369 72.9029 65.4474 72.7455L66.8955 54.6207L85.122 70.2582L87.4935 88.1626C87.8293 90.6499 89.9594 92.455 92.4148 92.455C92.6246 92.455 92.845 92.4445 93.0653 92.413C95.7831 92.0562 97.7033 89.5689 97.336 86.8612L94.7128 67.0887C94.7128 67.0572 94.7023 67.0257 94.7023 66.9942C94.6918 66.9208 94.6813 66.8578 94.6603 66.7948C94.6498 66.7109 94.6288 66.6374 94.6078 66.5535C94.5973 66.48 94.5763 66.417 94.5554 66.354C94.5344 66.2806 94.5134 66.1966 94.4819 66.1232C94.4609 66.0602 94.4399 65.9867 94.4085 65.9238C94.377 65.8503 94.3455 65.7768 94.314 65.7034C94.2825 65.6404 94.2616 65.5774 94.2301 65.504C94.1881 65.4305 94.1356 65.3465 94.0937 65.2731C94.0307 65.1681 93.9782 65.0737 93.9153 64.9897C93.8628 64.9057 93.8103 64.8323 93.7579 64.7588C93.7159 64.7063 93.6739 64.6644 93.632 64.6119C93.5795 64.5384 93.5165 64.465 93.4536 64.402C93.4116 64.36 93.3696 64.3075 93.3277 64.2656C93.2857 64.2341 93.2542 64.1921 93.2122 64.1606L75.1955 47.0958L71.9846 27.6801L101.166 39.5079C101.565 39.6759 101.964 39.7493 102.373 39.7493C103.621 39.7493 104.807 39.0042 105.311 37.7763C105.972 36.1601 105.195 34.3129 103.569 33.6518L69.5817 19.8719C69.162 19.6935 68.7318 19.62 68.3015 19.6305C68.0602 19.6095 67.8084 19.62 67.546 19.662L52.4044 22.1493C52.1736 22.1808 51.9532 22.2542 51.7434 22.3382C51.2187 22.4432 50.715 22.6845 50.2848 23.0624L39.4139 32.6338L22.9187 29.6952L21.1139 26.893L21.7855 15.7789V15.7684C22.2052 13.2496 21.7225 10.5629 20.222 8.24347C17.0111 3.26887 10.3585 1.83106 5.37423 5.03202C0.379501 8.22248 -1.06855 14.8448 2.14235 19.8194C3.64286 22.1388 5.89889 23.692 8.37527 24.3637ZM6.27664 18.2032C5.86741 18.4551 5.33226 18.3396 5.08042 17.9408C4.81809 17.542 4.93352 17.0068 5.33226 16.7444C5.74149 16.4925 6.27664 16.608 6.52848 17.0068C6.79081 17.4056 6.67538 17.9408 6.27664 18.2032ZM7.93456 20.764C7.52532 21.0263 6.99017 20.9109 6.73834 20.5016C6.47601 20.1028 6.59144 19.5675 6.99017 19.3157C7.39941 19.0533 7.93456 19.1687 8.18639 19.578C8.44872 19.9768 8.33329 20.5121 7.93456 20.764ZM15.9933 15.6004C15.5945 15.8523 15.0594 15.7369 14.7971 15.3381C14.5452 14.9393 14.6607 14.404 15.0594 14.1521C15.4581 13.8898 15.9933 14.0052 16.2556 14.404C16.5179 14.8028 16.4025 15.3381 15.9933 15.6004ZM16.7173 16.7129C17.116 16.461 17.6512 16.5765 17.9135 16.9753C18.1759 17.3741 18.0604 17.9093 17.6512 18.1612C17.2525 18.4236 16.7173 18.3081 16.455 17.9093C16.1926 17.5 16.3186 16.9753 16.7173 16.7129ZM15.2273 18.6965C15.4791 19.0953 15.3637 19.6305 14.965 19.8824C14.5662 20.1448 14.0311 20.0293 13.7687 19.6305C13.5064 19.2317 13.6218 18.6965 14.0311 18.4341C14.4298 18.1822 14.965 18.2976 15.2273 18.6965ZM11.3343 20.1552C11.7436 19.9034 12.2787 20.0188 12.5305 20.4176C12.7929 20.8164 12.6775 21.3517 12.2787 21.614C11.8695 21.8659 11.3343 21.7505 11.0825 21.3517C10.8202 20.9529 10.9356 20.4176 11.3343 20.1552ZM13.307 17.3216C12.9083 17.5735 12.3731 17.458 12.1108 17.0592C11.8485 16.6604 11.9639 16.1252 12.3731 15.8733C12.7719 15.6109 13.307 15.7264 13.5694 16.1252C13.8212 16.5345 13.7058 17.0592 13.307 17.3216ZM11.6491 14.7503C11.2504 15.0127 10.7152 14.8973 10.4529 14.4985C10.1906 14.0997 10.306 13.5644 10.7152 13.302C11.114 13.0502 11.6491 13.1656 11.9115 13.5644C12.1633 13.9632 12.0479 14.4985 11.6491 14.7503ZM10.8831 17.8464C11.135 18.2557 11.0195 18.7804 10.6208 19.0428C10.2116 19.3052 9.67642 19.1897 9.42458 18.7804C9.16225 18.3816 9.27768 17.8464 9.68691 17.5945C10.0856 17.3321 10.6208 17.4476 10.8831 17.8464ZM8.96288 16.4715C8.56415 16.7339 8.0185 16.6185 7.76667 16.2196C7.50433 15.8208 7.61976 15.2856 8.02899 15.0232C8.42773 14.7713 8.96288 14.8868 9.22521 15.2856C9.47705 15.6844 9.36162 16.2196 8.96288 16.4715ZM19.1307 26.3263L13.9891 24.3637C15.0279 24.0804 16.0353 23.6396 16.9901 23.0309C17.945 22.4222 18.774 21.677 19.456 20.8584L19.1307 26.3263ZM17.7456 12.4205C18.1549 12.1686 18.69 12.284 18.9418 12.6828C19.2042 13.0817 19.0888 13.6169 18.6795 13.8793C18.2808 14.1311 17.7456 14.0157 17.4833 13.6169C17.2315 13.2181 17.3469 12.6828 17.7456 12.4205ZM16.0877 9.8597C16.497 9.59732 17.0321 9.71277 17.2839 10.1221C17.5463 10.5209 17.4308 11.0561 17.0321 11.308C16.6229 11.5704 16.0877 11.4549 15.8254 11.0456C15.5736 10.6468 15.689 10.1116 16.0877 9.8597ZM14.4298 7.28843C14.839 7.03655 15.3742 7.152 15.626 7.55081C15.8883 7.94962 15.7729 8.48486 15.3742 8.74723C14.965 8.99911 14.4298 8.88367 14.178 8.48486C13.9156 8.08605 14.0311 7.55081 14.4298 7.28843ZM13.4015 11.5809C13.8002 11.329 14.3354 11.4444 14.5977 11.8432C14.86 12.2421 14.7446 12.7773 14.3354 13.0292C13.9366 13.2915 13.4015 13.1761 13.1391 12.7773C12.8873 12.368 13.0027 11.8432 13.4015 11.5809ZM11.7436 9.0201C12.1423 8.75773 12.6775 8.87317 12.9398 9.27198C13.2021 9.67079 13.0867 10.206 12.6775 10.4684C12.2787 10.7203 11.7436 10.6048 11.4812 10.206C11.2294 9.80722 11.3448 9.27198 11.7436 9.0201ZM10.0856 6.44884C10.4844 6.18646 11.03 6.3124 11.2819 6.71121C11.5442 7.11002 11.4288 7.64526 11.0195 7.89714C10.6208 8.15951 10.0856 8.04407 9.82332 7.64526C9.57148 7.23596 9.68691 6.71121 10.0856 6.44884ZM9.05732 10.7413C9.45606 10.4789 9.99121 10.5943 10.2535 10.9932C10.5159 11.392 10.3899 11.9272 9.99121 12.1896C9.59247 12.4415 9.05732 12.326 8.79499 11.9272C8.53266 11.5284 8.65858 10.9932 9.05732 10.7413ZM7.39941 8.17001C7.79815 7.91813 8.3333 8.03358 8.59562 8.43238C8.85795 8.83119 8.74253 9.36643 8.33329 9.61831C7.93456 9.88069 7.39941 9.76524 7.13708 9.36643C6.88524 8.96763 7.00067 8.43238 7.39941 8.17001ZM6.37108 12.4624C6.76982 12.2001 7.30497 12.3155 7.5673 12.7143C7.81913 13.1236 7.70371 13.6484 7.30497 13.9108C6.90623 14.1731 6.37108 14.0472 6.10875 13.6484C5.84642 13.2496 5.96185 12.7143 6.37108 12.4624ZM4.71316 9.89118C5.1119 9.6393 5.64705 9.75475 5.90938 10.1536C6.16122 10.5524 6.04579 11.0876 5.64705 11.3395C5.24832 11.6019 4.71316 11.4864 4.45084 11.0876C4.18851 10.6888 4.30393 10.1536 4.71316 9.89118ZM3.67434 14.1836C4.08358 13.9212 4.61873 14.0367 4.87056 14.446C5.13289 14.8448 5.01746 15.38 4.61873 15.6319C4.20949 15.8943 3.67434 15.7789 3.42251 15.3695C3.16018 14.9707 3.27561 14.4355 3.67434 14.1836Z" fill="#F1F1F1"/>
<path d="M62.7615 1.02287C63.9367 1.14882 65.0385 1.50564 66.0773 2.07237C67.1161 2.6391 68.0081 3.38424 68.7426 4.3078C69.4876 5.23135 70.0227 6.25986 70.348 7.39331C70.6733 8.52677 70.7782 9.68121 70.6418 10.8566C70.5159 12.0321 70.1592 13.1341 69.582 14.1626C69.0154 15.2016 68.2599 16.0831 67.3365 16.8178C66.4131 17.5524 65.3743 18.0877 64.241 18.413C63.0973 18.7384 61.943 18.8433 60.7678 18.7069C59.5926 18.5809 58.4803 18.2241 57.4415 17.6574C56.4027 17.0906 55.5212 16.335 54.7762 15.422C54.0417 14.4984 53.5066 13.4699 53.1708 12.3364C52.8455 11.203 52.751 10.0485 52.877 8.8731C53.0134 7.69767 53.3701 6.59569 53.9368 5.56719C54.5139 4.52819 55.2589 3.64661 56.1823 2.91197C57.1162 2.16682 58.1445 1.64207 59.2883 1.31673C60.4215 0.980894 61.5758 0.88644 62.7615 1.02287Z" fill="#F1F1F1"/>
<path d="M117.367 27.5752C117.661 27.869 117.881 28.2049 118.049 28.5932C118.206 28.971 118.28 29.3698 118.28 29.7896C118.28 30.2094 118.206 30.6082 118.049 30.986C117.881 31.3744 117.661 31.7102 117.367 32.004C117.063 32.2979 116.727 32.5288 116.339 32.6862C115.95 32.8436 115.552 32.9276 115.132 32.9276C114.723 32.9276 114.313 32.8436 113.936 32.6862C113.547 32.5288 113.201 32.2979 112.907 32.004C112.613 31.7102 112.383 31.3744 112.225 30.986C112.068 30.6082 111.984 30.2094 111.984 29.7896C111.984 29.3698 112.068 28.971 112.225 28.5932C112.383 28.2049 112.613 27.869 112.907 27.5752C113.201 27.2813 113.547 27.0504 113.936 26.893C114.313 26.7356 114.723 26.6516 115.132 26.6516C115.552 26.6516 115.95 26.7356 116.339 26.893C116.727 27.0504 117.063 27.2813 117.367 27.5752Z" fill="#F1F1F1"/>
</svg>
