<svg width="99" height="96" viewBox="0 0 99 96" fill="none" xmlns="http://www.w3.org/2000/svg">
<path d="M74.2547 17.4952C78.8084 17.4952 82.507 13.7444 82.507 9.13844C82.507 4.53245 78.8084 0.792023 74.2547 0.792023C69.6805 0.792023 65.9922 4.53245 65.9922 9.13844C65.9922 13.7444 69.6805 17.4952 74.2547 17.4952Z" fill="#F1F1F1"/>
<path d="M45.8103 23.6982L32.9631 38.7114C32.2008 39.6594 31.0572 40.2365 29.7591 40.2365C27.4616 40.2365 25.5969 38.3611 25.5969 36.0426C25.5969 34.7855 26.1326 33.6624 26.998 32.8896L40.8548 16.7531C41.6172 15.8258 42.7607 15.2384 44.0589 15.2384L64.1177 15.2178C65.5909 15.2178 66.9096 15.8258 67.8884 16.7738L80.6737 29.7056L91.2646 19.0098C92.0167 18.3709 92.9748 17.9897 94.0256 17.9897C96.3952 17.9897 98.3115 19.9372 98.3115 22.3277C98.3115 23.3788 97.9612 24.3267 97.3533 25.0893L84.5783 38.1035C80.6943 42.0191 77.5727 38.7011 77.5727 38.7011L69.7325 30.7257L57.4829 45.0588L68.7126 56.4141C68.7126 56.4141 71.0821 58.6398 69.7222 63.0603L63.4274 91.4278C62.9329 93.8905 60.7797 95.7453 58.2041 95.7453C55.2473 95.7453 52.8674 93.3238 52.8674 90.3459C52.8674 89.8616 52.9189 89.4082 53.0323 88.9754L58.2041 65.7085L45.4497 53.1683L34.4776 65.5436C34.4776 65.5436 32.7056 67.7487 27.9974 67.5839L5.73382 67.6251C3.25093 67.6663 0.994703 65.9455 0.438371 63.4003C-0.220985 60.4946 1.55103 57.6403 4.43571 56.9911C4.88902 56.8881 5.33202 56.8572 5.77503 56.8675L24.9169 56.919L53.2177 23.7291L45.8103 23.6982Z" fill="#F1F1F1"/>
</svg>
