<svg width="101" height="117" viewBox="0 0 101 117" fill="none" xmlns="http://www.w3.org/2000/svg">
<path d="M100.725 7.00044C100.595 6.9193 100.432 6.9193 100.279 6.93959C99.1916 7.08159 98.452 8.16686 97.3643 8.33929C97.4187 7.98429 97.5709 7.63944 97.7232 7.30473C98.6913 5.22546 99.681 3.14619 100.714 1.09735C100.867 0.782927 100.986 0.346788 100.682 0.164216C100.497 0.0526477 100.236 0.123644 100.083 0.265644C99.9203 0.407642 99.8333 0.600355 99.7463 0.793068C99.159 2.0102 98.3214 3.09548 97.4839 4.17061C96.9618 4.84004 96.4398 5.50946 95.7871 6.07745C95.0149 6.74687 94.0795 7.24387 93.3507 7.95387C92.883 8.40015 92.5023 8.91743 92.0564 9.384C91.0666 10.4084 89.7505 11.159 88.3148 11.4836C84.7037 12.3254 80.9947 12.9644 77.3509 13.6744C75.8064 13.9787 74.251 14.2728 72.8044 14.8712C71.2599 15.5204 69.8785 16.4941 68.7908 17.7112C67.2028 19.4862 64.0812 19.0501 61.9384 20.2266C61.3837 20.5309 60.8508 20.9062 60.2417 21.1192C59.589 21.3525 58.8712 21.393 58.1642 21.4742C55.6081 21.7987 53.1608 22.9449 51.3444 24.6692C51.0616 23.3607 51.7468 22.032 51.5184 20.7135C51.4967 20.5816 51.4532 20.4396 51.3662 20.328C51.29 20.2368 51.1813 20.1759 51.1051 20.0745C51.0072 19.9426 50.9963 19.7601 50.9963 19.5978C50.9528 17.9648 50.6157 16.3419 49.9848 14.8307C49.8434 14.4858 49.6911 14.1511 49.4736 13.857C49.3104 13.6237 49.1038 13.4107 48.8862 13.218C47.3852 11.8385 44.7966 11.1387 42.6973 11.1184C40.7939 11.0981 38.9013 11.9704 37.7484 13.3904C36.2147 15.2871 36.0733 17.8329 35.9428 20.2165C35.9319 20.3788 35.9211 20.541 35.8776 20.6932C35.8123 20.8758 35.7035 21.038 35.6274 21.2206C35.3663 21.7988 35.4534 22.4682 35.6056 23.0869C35.8014 23.9085 36.0951 24.7199 36.4758 25.4907C36.5519 25.6429 36.6389 25.8153 36.8021 25.8863C36.9326 25.9471 37.074 25.937 37.2045 25.9776C37.52 26.079 37.694 26.434 37.7049 26.7484C37.7266 27.073 37.6396 27.3874 37.6505 27.712C37.6505 28.3307 37.9985 28.8885 38.2705 29.4464C38.5533 30.0144 38.7817 30.6534 38.5641 31.2417C38.3248 31.8705 37.5961 32.2965 37.4764 32.9659C36.9544 33.3919 36.3126 33.8078 35.7905 34.2338C35.4534 34.5076 35.1271 34.7815 34.8225 35.0756C34.5288 35.3596 34.2787 35.6741 34.0176 35.9783L31.7444 38.7169C31.0591 39.5385 30.1237 40.9787 29.6778 41.922C29.6669 41.9322 29.6669 41.9423 29.656 41.9626C28.6336 44.0824 28.1224 46.395 28.1441 48.7278C28.1659 50.8984 28.0027 53.0588 27.6764 55.209C27.448 56.6798 27.6438 58.3635 26.8172 59.6313C26.5126 60.0877 26.0775 60.4529 25.6642 60.818C23.3801 62.8466 21.3896 65.1591 19.7363 67.6644C18.3441 69.8045 16.0817 71.4781 14.8853 73.7196C14.559 74.3282 14.2653 74.9672 13.8411 75.525C13.5692 75.8597 13.2537 76.164 13.0471 76.5292C12.7643 77.0059 12.6773 77.5536 12.5685 78.0911C12.3183 79.4097 11.9812 80.7181 11.5461 81.986C10.7847 84.2174 9.75141 86.3981 9.4251 88.7106C9.32721 89.4308 9.2837 90.1509 9.24019 90.871C8.97915 95.486 8.7181 100.101 8.44618 104.726C8.5767 104.817 8.3918 105 8.27216 105.101C8.15251 105.203 7.98936 105.253 7.84796 105.335C7.47815 105.568 7.40201 106.055 7.11921 106.379C6.72765 106.826 6.00978 106.907 5.60733 107.343C5.27015 107.698 5.22664 108.215 5.107 108.682C4.69368 110.426 3.23618 111.755 1.8657 112.992C1.47414 113.347 1.06082 113.723 0.930294 114.22C0.756265 114.859 1.08257 115.518 1.10432 116.177C1.1152 116.289 1.1152 116.411 1.18046 116.502C1.19134 116.522 1.21309 116.542 1.22397 116.563C1.51764 116.806 1.93096 116.897 2.32253 116.887L7.67393 116.806C8.13075 116.806 8.59846 116.796 9.02266 116.654C9.72965 116.421 10.2626 115.873 10.9261 115.559C11.7201 115.173 12.6555 115.143 13.5257 114.909C14.3849 114.676 15.2768 114.108 15.353 113.266C15.3965 112.729 15.1028 112.222 14.8526 111.735C14.2 110.396 13.9064 108.895 14.026 107.424C14.0478 107.181 14.0695 106.917 13.939 106.694C13.8411 106.531 13.6671 106.42 13.5583 106.268C13.3734 106.004 13.3843 105.669 13.406 105.355C13.7867 101.582 16.3971 98.3868 17.8764 94.8572C19.2904 91.4999 18.9097 87.6456 19.6384 84.0957C19.7255 83.6494 19.8342 83.193 20.0626 82.7873C20.0953 82.8177 20.0844 82.7974 20.0626 82.7568C20.0518 82.7163 20.0844 82.6757 20.117 82.6453C21.6724 81.3774 23.2278 80.1096 24.7832 78.8316C25.1748 78.507 25.5989 78.1723 26.121 78.081C27.0673 77.9187 27.8831 78.6287 28.7424 79.0547C29.1883 79.2677 29.6125 79.8357 29.6995 80.2921C30.2977 83.3552 30.7654 86.4386 31.1244 89.5423C31.1788 89.9886 31.2331 90.4552 31.1788 90.9015C31.0482 92.0577 30.2651 93.1633 30.5479 94.2892C28.5248 94.3602 26.5344 95.77 26.0231 97.616C25.8382 98.2448 25.8165 98.9143 25.8382 99.5735C25.86 100.121 25.9253 100.689 26.1319 101.207C26.3168 101.653 26.5996 102.048 26.8933 102.424C27.6655 103.408 28.5248 104.32 29.482 105.152C28.9925 106.339 28.7967 107.82 29.2318 109.027C29.5255 109.828 29.9714 110.568 30.537 111.238C31.0374 111.826 31.7879 112.171 32.5928 112.171H37.1501C37.9115 112.171 38.6403 111.867 39.1297 111.319C39.4887 110.913 39.8041 110.487 40.0434 109.99C40.8483 108.367 40.6199 106.349 39.4887 104.919C40.522 103.773 41.6423 102.464 42.2623 101.075C42.8822 99.6953 43.0345 98.0521 42.2949 96.7133C41.9577 96.1149 41.4682 95.5976 40.9788 95.1006C40.9353 94.6949 40.8048 94.3399 40.7504 93.9342C40.7069 93.498 40.6525 93.0517 40.4785 92.646C40.0651 91.723 39.0645 91.1652 38.1291 90.6986C37.5743 90.4349 36.9652 89.7553 36.7477 89.2076C36.6063 88.8526 36.367 88.4976 36.3453 88.1528C36.2039 86.6009 36.0733 85.0389 35.9428 83.477C35.8993 82.9495 35.8558 82.4323 35.8667 81.9048C35.8993 81.0833 36.0733 80.2617 36.193 79.4401C36.454 77.655 36.4323 75.8192 36.1168 74.034C36.0842 73.8515 36.0516 73.6588 36.106 73.4762C36.1604 73.2936 36.2909 73.1516 36.4214 73.0096L38.1073 71.1941C38.4989 70.7681 39.3146 70.4232 39.9129 70.4232C42.4037 70.3928 44.9706 71.4375 47.3417 70.6869C47.9291 70.5044 48.4838 70.2001 49.1038 70.1494C49.7129 70.0986 50.4416 70.4029 50.5504 70.9709C51.8991 71.691 52.8345 72.8372 53.8026 73.9833C54.5966 74.9165 55.3797 75.8496 56.1737 76.7827C56.6197 77.3102 57.1744 77.8883 57.8923 77.8782C58.3165 77.868 58.6863 77.6449 59.0343 77.4319C59.9915 76.8131 60.8834 76.1133 61.6774 75.3222C63.3524 76.2147 65.0275 77.0363 66.6916 77.9289C67.2028 78.2027 67.7249 78.4867 68.1491 78.8721C68.9649 79.6126 69.3673 80.6775 69.4978 81.7425C69.6284 82.8075 69.5196 83.8827 69.4543 84.9477C69.3891 86.2662 69.4108 87.5848 69.5196 88.8932C69.6066 90.0596 69.7698 91.2362 70.1831 92.3417C70.4768 93.1329 70.8792 93.8733 71.2599 94.634C72.7935 97.7783 73.6528 101.217 73.7724 104.675C73.8268 106.176 73.0111 107.627 72.9132 109.138C72.8805 109.676 72.9784 110.213 72.8805 110.751C72.7609 111.532 72.2388 112.242 72.2388 113.033C72.2388 113.327 72.3258 113.642 72.576 113.824C72.7391 113.936 72.9458 113.976 73.1307 114.017C74.077 114.21 75.0668 114.463 75.6976 115.143C75.8717 115.325 76.0022 115.538 76.198 115.701C76.6439 116.086 77.2857 116.167 77.8839 116.218C79.8091 116.39 81.7669 116.39 83.703 116.218C84.323 116.157 85.0735 115.995 85.2584 115.427C85.3128 115.254 85.3019 115.072 85.291 114.889C85.2149 113.733 85.0517 112.516 84.2795 111.623C83.7465 110.994 82.9634 110.599 82.3978 110C81.6799 109.25 81.3536 108.256 81.049 107.282C80.9076 106.846 80.7662 106.4 80.4617 106.045C80.3094 105.872 80.1245 105.72 79.9722 105.537C79.6242 105.122 79.4936 104.554 79.0803 104.199C78.9824 103.935 78.9063 103.712 78.8084 103.448C78.928 102.474 78.9063 101.44 78.9172 100.466C78.928 99.5127 78.8845 98.5593 78.8737 97.6058C78.8519 95.4759 78.9824 93.3459 79.1238 91.2057C79.374 87.2906 78.7649 83.3654 77.3727 79.6633C76.7744 78.0607 76.4046 76.3973 76.4373 74.673C76.4481 74.0239 76.3502 73.3748 76.0675 72.7865C74.7187 69.9769 72.0756 68.0295 70.4985 65.3315C69.4435 63.5363 67.1593 62.6031 65.865 60.9499C65.5169 60.4934 65.1906 60.0167 64.8099 59.5806C63.5808 58.1505 61.7209 57.1057 61.1227 55.3612C61.0357 55.1076 60.9813 54.854 60.8508 54.6309C60.4048 53.8601 59.328 53.6978 58.4143 53.6268C58.36 53.4848 58.1098 53.4949 57.9575 53.4645C57.7617 53.4341 57.7291 53.1805 57.74 52.9979C57.7944 51.2838 57.8923 49.5798 58.0228 47.8758C58.1315 46.4761 58.2621 45.0663 58.273 43.6564C58.273 42.1857 58.1424 40.7252 58.0228 39.2646C57.7291 35.9885 59.0778 32.9761 59.3933 29.7C59.8392 29.345 60.4483 29.3957 61.0139 29.2537C63.1784 28.7161 64.8643 27.1846 66.7134 25.9979C68.78 24.659 71.0967 23.736 73.4026 22.813C78.0688 20.9468 82.5718 18.6241 86.8355 16.0377C87.3032 15.7537 87.7709 15.4697 88.2604 15.2262C88.8368 14.9321 89.4242 14.6785 90.0224 14.425C91.0448 13.9787 92.0673 13.5425 93.0897 13.1064C93.6553 12.863 94.2209 12.8224 94.8082 12.65C96.4724 12.1733 97.3643 10.4794 98.8109 9.56657C99.2569 9.29271 99.7572 9.07972 100.181 8.77543C100.606 8.47115 100.965 8.02486 100.975 7.51773C100.975 7.32501 100.91 7.10187 100.725 7.00044ZM36.0407 98.2956C36.1168 98.2448 36.1604 98.1738 36.2365 98.1333C36.4323 98.0014 36.6933 98.0623 36.9 98.1738C37.1066 98.2753 37.3024 98.4274 37.5308 98.4781C37.8789 98.5491 38.2487 98.3767 38.4771 98.113C38.7164 97.8493 38.8361 97.5146 38.9448 97.19C39.3364 97.3523 39.6301 97.687 39.7823 98.0623C39.9346 98.4375 39.9672 98.8433 39.9672 99.249C39.9564 99.6243 39.9129 100.01 39.7823 100.365C39.5757 100.963 39.1406 101.45 38.7164 101.927C38.4771 102.201 38.2378 102.474 37.9985 102.748C37.0631 101.856 35.6926 101.42 34.3766 101.511C33.0496 101.602 31.7879 102.201 30.8633 103.093C30.276 102.393 29.6778 101.693 29.0904 100.994C28.8402 100.689 28.5792 100.385 28.4269 100.03C28.1332 99.3504 28.2638 98.5288 28.6988 97.9101C29.0578 97.4233 29.7321 96.906 30.3739 96.8147C30.7654 96.7538 30.7546 96.9161 30.9721 97.2204C31.1679 97.5044 31.4072 97.758 31.69 97.9811C31.9293 98.1738 32.3317 98.3361 32.5492 98.113C32.6145 98.0521 32.6471 97.9811 32.7124 97.9304C32.8647 97.8087 33.104 97.8898 33.2889 97.9811C33.6152 98.1434 34.0176 98.3463 34.333 98.1536C34.4201 98.113 34.4853 98.0318 34.5832 98.0014C34.8116 97.9203 35.04 98.113 35.2467 98.2347C35.486 98.3868 35.8123 98.4578 36.0407 98.2956Z" fill="#F1F1F1"/>
</svg>
