<?xml version="1.0" standalone="no"?>
<!DOCTYPE svg PUBLIC "-//W3C//DTD SVG 20010904//EN"
 "http://www.w3.org/TR/2001/REC-SVG-20010904/DTD/svg10.dtd">
<svg version="1.0" xmlns="http://www.w3.org/2000/svg"
 width="1072.000000pt" height="1072.000000pt" viewBox="0 0 1072.000000 1072.000000"
 preserveAspectRatio="xMidYMid meet">
<metadata>
Created by potrace 1.14, written by Peter Selinger 2001-2017
</metadata>
<g transform="translate(0.000000,1072.000000) scale(0.100000,-0.100000)"
fill="#000000" stroke="none">
<path d="M3419 7783 c-1 -5 -1 -12 0 -16 1 -4 -8 -3 -19 3 -11 6 -20 7 -20 2
0 -5 -20 -9 -44 -8 -35 1 -42 -2 -34 -11 14 -17 -4 -17 -21 0 -11 10 -13 10
-7 0 7 -12 -11 -17 -51 -16 -7 1 -13 -6 -13 -13 0 -10 -8 -13 -24 -10 -20 4
-24 1 -19 -12 6 -15 5 -16 -12 -2 -11 9 -16 10 -11 3 5 -9 0 -13 -13 -13 -12
0 -21 -6 -21 -12 0 -9 -4 -8 -10 2 -5 8 -10 10 -10 5 0 -6 -9 -16 -21 -23 -15
-10 -19 -10 -14 -1 5 8 4 10 -3 5 -7 -4 -12 -15 -12 -24 0 -15 -2 -15 -10 -2
-8 13 -10 12 -10 -2 0 -16 -18 -23 -43 -19 -5 1 -5 -3 -2 -9 4 -7 -2 -14 -14
-17 -11 -3 -18 -9 -15 -14 3 -5 -2 -9 -10 -9 -9 0 -16 -4 -16 -10 0 -5 -7 -10
-15 -10 -9 0 -12 -6 -8 -17 4 -11 3 -14 -5 -9 -7 4 -15 1 -18 -8 -3 -9 -16
-16 -28 -16 -17 0 -18 -2 -6 -10 13 -8 12 -10 -3 -10 -9 0 -16 -6 -15 -12 2
-7 -3 -12 -9 -10 -7 1 -13 -5 -13 -13 0 -8 -4 -15 -10 -15 -5 0 -10 -7 -10
-15 0 -8 -7 -15 -15 -15 -8 0 -14 -3 -14 -7 4 -23 -2 -43 -11 -38 -5 3 -10 -3
-10 -15 0 -12 -4 -18 -10 -15 -5 3 -11 1 -11 -4 -1 -6 -3 -15 -4 -21 -1 -5 -3
-15 -4 -21 0 -5 -5 -7 -11 -4 -9 5 -15 -24 -11 -48 1 -5 -3 -6 -8 -3 -5 4 -12
-4 -16 -16 -6 -22 -16 -47 -37 -93 -5 -11 -10 -43 -11 -72 -1 -28 -5 -49 -9
-46 -10 5 -10 -13 -12 -234 -1 -95 1 -167 5 -162 3 6 9 1 12 -10 3 -12 1 -19
-4 -15 -5 3 -9 0 -9 -5 0 -6 6 -11 13 -11 8 0 7 -4 -3 -10 -10 -6 -11 -10 -2
-10 6 0 12 -5 12 -11 0 -5 -4 -8 -9 -4 -5 3 -13 0 -17 -6 -4 -7 -3 -9 4 -5 6
3 13 2 17 -4 3 -5 0 -10 -7 -10 -10 0 -10 -2 -1 -8 8 -5 12 -37 12 -92 -1
-125 3 -190 10 -185 4 2 8 -6 8 -18 2 -17 0 -19 -7 -7 -8 13 -10 12 -10 -2 0
-10 4 -18 8 -18 5 0 10 -55 11 -122 1 -77 6 -127 14 -137 9 -12 9 -13 0 -7 -9
4 -13 1 -13 -9 0 -10 6 -15 13 -12 9 3 12 -25 12 -122 0 -72 4 -129 10 -133 6
-5 4 -8 -5 -8 -13 0 -13 -2 -1 -9 8 -5 15 -22 17 -37 2 -21 1 -25 -6 -14 -13
21 -12 3 1 -21 8 -15 7 -24 -3 -37 -9 -11 -10 -14 0 -8 9 5 12 -13 13 -81 1
-48 1 -96 0 -105 -1 -10 2 -18 7 -18 6 0 13 -7 16 -16 5 -13 4 -14 -7 -6 -10
9 -14 8 -14 -3 0 -8 6 -16 14 -19 9 -4 10 -12 3 -31 -5 -14 -6 -25 -2 -25 4 0
7 -49 7 -109 0 -92 2 -108 15 -103 13 5 13 3 1 -11 -10 -13 -10 -17 -1 -17 9
0 9 -4 -1 -17 -10 -11 -10 -14 -1 -9 9 6 12 -20 13 -116 1 -68 1 -126 0 -130
0 -5 4 -8 11 -8 9 0 9 -3 0 -12 -7 -7 -12 -17 -12 -22 0 -6 5 -4 10 4 7 11 10
-4 10 -50 2 -145 6 -206 13 -217 5 -7 5 -19 1 -25 -11 -17 -12 -48 -2 -42 9 6
9 9 12 -128 2 -60 6 -111 9 -115 4 -3 2 -12 -4 -20 -9 -10 -8 -13 2 -13 9 0
15 -13 16 -38 1 -20 5 -48 8 -61 5 -20 8 -22 16 -10 5 7 9 9 9 4 0 -6 -5 -16
-12 -23 -9 -9 -9 -12 0 -12 7 0 11 -3 11 -7 -4 -25 2 -53 11 -48 6 4 10 -8 10
-29 0 -24 5 -36 14 -36 8 0 12 -9 11 -24 -2 -19 1 -23 12 -19 11 4 14 2 11 -8
-3 -8 2 -27 10 -44 9 -16 17 -34 17 -40 1 -5 6 -9 13 -8 7 2 11 0 11 -5 -3
-19 2 -33 11 -27 6 4 10 -5 10 -20 0 -14 3 -24 8 -22 4 2 15 -4 25 -15 9 -10
14 -18 10 -18 -4 0 3 -9 15 -20 12 -12 22 -25 22 -31 0 -6 4 -8 8 -5 4 2 14
-9 21 -26 10 -22 16 -27 22 -17 6 10 9 8 9 -7 0 -14 8 -24 21 -27 14 -4 18
-10 13 -19 -4 -7 -4 -10 1 -6 4 4 14 0 22 -10 8 -9 11 -11 7 -3 -5 9 -3 12 4
7 7 -4 12 -15 12 -24 0 -15 2 -15 10 -2 8 13 10 12 10 -2 0 -10 7 -18 16 -18
8 0 12 -4 9 -10 -3 -5 3 -10 15 -10 11 0 23 -7 27 -16 3 -8 12 -13 19 -10 8 3
14 -1 14 -10 0 -8 5 -12 10 -9 6 3 10 1 10 -5 0 -6 4 -8 10 -5 5 3 10 2 10 -4
0 -5 9 -13 20 -16 11 -4 18 -11 15 -16 -4 -5 10 -9 29 -9 20 0 36 -4 36 -9 0
-5 12 -11 28 -13 16 -2 26 -8 24 -16 -2 -9 6 -12 25 -10 16 1 27 -2 26 -7 -1
-9 25 -15 89 -18 17 -1 23 -6 17 -13 -6 -7 3 -10 29 -9 20 1 48 -4 61 -12 13
-9 20 -10 17 -4 -4 6 0 11 8 11 9 0 16 -4 16 -9 0 -11 19 -9 39 3 10 7 12 6 6
-4 -5 -8 -3 -11 6 -8 8 3 13 11 11 17 -1 7 2 10 8 6 6 -3 8 -10 5 -15 -3 -5
765 -9 1840 -9 1144 0 1845 4 1845 10 0 5 5 9 11 9 5 0 7 -5 4 -10 -8 -13 33
-9 55 5 8 5 31 10 50 11 19 0 48 6 63 13 16 6 42 11 58 11 18 0 28 4 24 10 -4
6 5 10 20 10 16 0 24 4 19 11 -4 8 0 8 15 0 17 -10 20 -9 15 4 -5 11 1 15 26
15 18 0 29 4 25 10 -3 6 3 10 14 10 29 0 52 11 45 22 -3 5 0 9 7 7 8 -1 21 -1
29 0 13 1 13 2 0 11 -11 7 -7 10 18 10 17 0 32 5 32 11 0 5 -5 7 -12 3 -7 -4
-8 -3 -4 5 4 6 11 9 16 6 5 -3 15 1 23 9 8 8 17 12 21 9 3 -4 6 -1 6 6 0 6 11
16 25 21 14 5 25 14 25 20 0 5 8 10 18 10 14 0 15 2 2 10 -12 8 -11 10 8 10
13 0 22 6 22 16 0 8 5 12 10 9 6 -3 10 1 10 9 0 9 5 16 11 16 14 0 39 25 39
39 0 6 7 11 16 11 8 0 12 5 9 10 -3 6 1 10 9 10 9 0 16 6 16 13 0 7 9 19 19
27 11 7 18 17 15 22 -3 4 0 8 5 8 6 0 11 6 11 13 0 7 9 19 20 27 14 10 16 16
7 22 -8 5 -7 8 6 8 9 0 17 5 17 11 0 5 4 8 8 5 4 -2 9 7 10 22 1 14 6 28 11
31 5 3 11 17 13 31 2 15 9 24 17 22 12 -3 12 0 0 14 -10 13 -11 16 -1 10 9 -6
12 -3 10 10 -2 11 2 18 10 17 10 -3 18 31 13 60 -1 4 5 15 13 22 8 8 13 26 12
39 -2 14 3 27 11 30 8 3 13 11 12 18 -5 37 2 128 9 124 5 -3 9 1 9 9 0 8 -3
12 -7 10 -4 -2 -7 2 -7 10 0 8 4 12 9 9 4 -3 8 14 9 38 4 211 7 263 16 261 5
-1 10 4 10 12 0 8 -4 12 -8 10 -4 -3 -10 2 -13 11 -4 10 -2 13 6 8 8 -5 9 -2
5 9 -3 10 -3 17 2 17 4 0 8 7 8 15 0 8 -4 12 -8 9 -4 -2 -11 0 -14 6 -4 6 -1
9 7 8 10 -2 13 20 13 99 0 57 4 103 8 103 4 0 3 9 -3 19 -6 12 -6 22 -1 25 5
4 11 0 14 -6 2 -7 4 0 4 16 0 19 -2 24 -8 15 -6 -10 -9 -10 -9 -2 0 6 4 14 9
17 8 5 15 110 13 193 -1 26 3 31 16 27 14 -5 14 -4 2 4 -8 6 -14 28 -15 53 -1
23 1 37 3 31 2 -7 8 -9 13 -6 6 3 5 11 -2 20 -9 11 -8 14 2 14 11 0 11 2 -1
10 -8 5 -10 10 -4 10 7 0 10 34 10 100 -1 68 3 101 11 104 12 5 12 23 0 43 -4
6 -3 14 3 18 15 9 12 28 -2 19 -10 -6 -10 -4 0 7 7 8 12 43 12 95 0 57 4 84
13 87 10 4 10 6 0 6 -7 1 -13 6 -13 12 0 5 6 7 13 3 9 -6 9 -5 0 7 -8 10 -9
19 -3 25 6 6 12 60 13 120 2 60 7 116 12 123 5 9 4 12 -2 8 -15 -9 -11 25 4
41 10 10 10 19 2 34 -6 12 -7 18 -1 14 6 -4 10 34 11 102 1 59 6 111 11 116 6
6 10 15 10 20 0 6 -5 4 -10 -4 -8 -12 -10 -10 -10 8 0 13 4 21 9 18 9 -6 10
19 13 262 1 67 6 122 11 122 4 0 5 -5 1 -12 -5 -7 -3 -8 5 -4 10 6 9 12 -2 24
-14 18 -12 52 4 52 6 0 7 5 4 10 -4 6 -12 8 -18 4 -7 -3 -5 0 3 8 15 13 22 91
8 82 -4 -3 -8 0 -8 5 0 6 4 11 8 11 5 0 9 7 9 15 0 18 -13 20 -21 3 -3 -7 -3
-1 -1 14 2 15 7 33 11 39 4 8 3 9 -5 5 -9 -6 -11 8 -8 58 2 37 -1 66 -6 66 -5
0 -6 7 -3 16 3 8 2 12 -4 9 -6 -3 -11 2 -11 12 -3 38 -4 44 -17 52 -7 4 -12
12 -11 17 1 5 1 20 0 34 -1 20 -3 22 -11 10 -8 -12 -10 -10 -11 10 -1 14 -1
29 0 34 1 5 -4 4 -11 -2 -11 -9 -13 -5 -12 16 2 34 -6 48 -17 31 -6 -10 -9 -8
-9 9 0 12 -4 22 -10 22 -5 0 -10 12 -10 26 0 20 -4 25 -16 20 -12 -5 -14 -1
-8 16 5 17 3 20 -10 15 -10 -4 -14 -3 -11 2 3 6 -3 14 -12 20 -14 8 -15 11 -3
11 8 0 3 7 -12 16 -16 8 -28 22 -28 31 0 9 -3 14 -6 11 -7 -8 -44 28 -44 42 0
6 -9 10 -21 10 -11 0 -17 5 -14 10 3 6 -2 10 -12 10 -15 0 -16 2 -3 10 12 8
11 10 -7 10 -12 0 -33 11 -47 25 -16 16 -26 20 -29 12 -3 -7 -6 -4 -6 6 -1 9
-8 17 -17 17 -8 0 -12 5 -9 10 4 6 -6 10 -23 10 -16 0 -35 7 -42 15 -7 8 -16
13 -20 10 -5 -3 -10 -1 -12 5 -1 5 -15 11 -31 12 -16 1 -26 7 -23 14 3 8 -4
11 -20 9 -13 -1 -27 1 -29 5 -2 4 -16 6 -30 5 -14 -2 -23 0 -20 5 3 4 -2 11
-11 14 -10 4 -13 2 -8 -7 5 -7 0 -5 -11 3 -10 8 -20 14 -22 13 -1 -2 -6 -3
-10 -2 -5 1 -21 0 -37 -1 -21 -1 -26 2 -20 12 5 9 2 9 -11 -2 -11 -9 -16 -10
-11 -2 9 15 -6 16 -21 1 -8 -8 -13 -8 -17 0 -10 15 -79 14 -95 -1 -9 -9 -12
-9 -7 -1 9 17 -312 17 -333 0 -11 -9 -13 -9 -8 0 11 17 -3491 17 -3512 0 -11
-9 -13 -9 -8 0 10 16 -212 16 -232 0 -11 -9 -13 -9 -8 0 11 17 -194 17 -205 0
-6 -9 -8 -9 -8 1 0 6 -5 12 -11 12 -5 0 -7 -4 -4 -10 3 -5 1 -10 -4 -10 -6 0
-11 5 -11 10 0 11 -29 14 -31 3z"/>
</g>
</svg>
